<svg width="1624" height="687" xmlns="http://www.w3.org/2000/svg" xmlns:xlink="http://www.w3.org/1999/xlink" overflow="hidden"><defs><clipPath id="clip0"><rect x="1456" y="927" width="1624" height="687"/></clipPath></defs><g clip-path="url(#clip0)" transform="translate(-1456 -927)"><path d="M1538 957 1528.5 931 1519 957 1528.5 957 1538 957Z" fill-rule="evenodd"/><path d="M1528.5 931 1528.5 957 1519 957 1528.5 931 1538 957 1528.5 957 1528.5 931 1528.5 931" stroke="#000000" stroke-width="2.29167" stroke-miterlimit="8" fill="none" fill-rule="evenodd"/><path d="M2906 1487 2906 1495.5 2906 1504 2940 1495.5 2906 1487Z" fill-rule="evenodd"/><path d="M2940 1495.5 2906 1495.5 2906 1487 2940 1495.5 2906 1504 2906 1495.5 2940 1495.5 2940 1495.5" stroke="#000000" stroke-width="2.29167" stroke-miterlimit="8" fill="none" fill-rule="evenodd"/><text font-family="Arial,Arial_MSFontService,sans-serif" font-weight="400" font-size="46" transform="matrix(1 0 0 1 1542.29 1551)">0<tspan font-size="46" x="1397.92" y="0">f (Hz)</tspan><tspan font-size="46" x="6.875" y="-565">Mag. (dB)</tspan></text><rect x="1529" y="1197" width="363" height="299" fill="#FFFFFF"/><rect x="1529" y="1197" width="363" height="299" stroke="#000000" stroke-width="2.29167" stroke-miterlimit="8" fill="none"/><rect x="1529" y="1081" width="363" height="48.9998" fill="#FFFFFF"/><rect x="1529" y="1081" width="363" height="48.9998" stroke="#000000" stroke-width="2.29167" stroke-miterlimit="8" fill="none"/><path d="M1529 1081 1892 1081" stroke="#FFFFFF" stroke-width="2.29167" stroke-linejoin="round" stroke-miterlimit="10" fill="none" fill-rule="evenodd"/><rect x="2021" y="1413" width="299" height="49.9999" fill="#FFFFFF"/><rect x="2021" y="1413" width="299" height="49.9999" stroke="#000000" stroke-width="2.29167" stroke-miterlimit="8" fill="none"/><path d="M2021 1413 2320 1413" stroke="#FFFFFF" stroke-width="2.29167" stroke-linejoin="round" stroke-miterlimit="10" fill="none" fill-rule="evenodd"/><rect x="2449" y="1197" width="363" height="299" fill="#FFFFFF"/><rect x="2449" y="1197" width="363" height="299" stroke="#000000" stroke-width="2.29167" stroke-miterlimit="8" fill="none"/><rect x="2449" y="1081" width="363" height="48.9998" fill="#FFFFFF"/><rect x="2449" y="1081" width="363" height="48.9998" stroke="#000000" stroke-width="2.29167" stroke-miterlimit="8" fill="none"/><path d="M2449 1081 2812 1081" stroke="#FFFFFF" stroke-width="2.29167" stroke-linejoin="round" stroke-miterlimit="10" fill="none" fill-rule="evenodd"/><path d="M1931 1130 1982 1130" stroke="#000000" stroke-width="2.29167" stroke-linejoin="round" stroke-miterlimit="10" fill="none" fill-rule="evenodd"/><path d="M1950 1220 1956.5 1220 1963 1220 1956.5 1197 1950 1220Z" fill-rule="evenodd"/><path d="M1956.5 1297 1956.5 1220.56 1950 1220.56 1956.5 1197 1963 1220.56 1956.5 1220.56 1956.5 1297 1956.5 1297" stroke="#000000" stroke-width="2.29167" stroke-miterlimit="8" fill="none" fill-rule="evenodd"/><path d="M1956.5 1130 1963 1107 1956.5 1107 1950 1107 1956.5 1130Z" fill-rule="evenodd"/><path d="M1956.5 1064 1956.5 1107.24 1950 1107.24 1956.5 1130 1963 1107.24 1956.5 1107.24 1956.5 1064 1956.5 1064" stroke="#000000" stroke-width="2.29167" stroke-miterlimit="8" fill="none" fill-rule="evenodd"/><path d="M1931 1197 1982 1197" stroke="#000000" stroke-width="2.29167" stroke-linejoin="round" stroke-miterlimit="10" fill="none" fill-rule="evenodd"/><text font-family="Arial,Arial_MSFontService,sans-serif" font-weight="400" font-size="46" transform="matrix(1 0 0 1 1993.18 1183)">A<tspan font-size="37" x="30.9375" y="18">pass1</tspan></text><path d="M2851 1130 2902 1130" stroke="#000000" stroke-width="2.29167" stroke-linejoin="round" stroke-miterlimit="10" fill="none" fill-rule="evenodd"/><path d="M2870 1220 2876.78 1220 2883 1220 2876.78 1197 2870 1220Z" fill-rule="evenodd"/><path d="M2876.78 1297 2876.78 1220.56 2870 1220.56 2876.78 1197 2883 1220.56 2876.78 1220.56 2876.78 1297 2876.78 1297" stroke="#000000" stroke-width="2.29167" stroke-miterlimit="8" fill="none" fill-rule="evenodd"/><path d="M2876.78 1130 2883 1107 2876.78 1107 2870 1107 2876.78 1130Z" fill-rule="evenodd"/><path d="M2876.78 1064 2876.78 1107.24 2870 1107.24 2876.78 1130 2883 1107.24 2876.78 1107.24 2876.78 1064 2876.78 1064" stroke="#000000" stroke-width="2.29167" stroke-miterlimit="8" fill="none" fill-rule="evenodd"/><path d="M2851 1197 2902 1197" stroke="#000000" stroke-width="2.29167" stroke-linejoin="round" stroke-miterlimit="10" fill="none" fill-rule="evenodd"/><text font-family="Arial,Arial_MSFontService,sans-serif" font-weight="400" font-size="46" transform="matrix(1 0 0 1 2916.15 1183)">A<tspan font-size="37" x="30.9375" y="18">pass2</tspan></text><path d="M2144 1164 2196 1164" stroke="#000000" stroke-width="2.29167" stroke-linejoin="round" stroke-miterlimit="10" fill="none" fill-rule="evenodd"/><path d="M2164 1187 2170.5 1187 2177 1187 2170.5 1164 2164 1187Z" fill-rule="evenodd"/><path d="M2170.5 1280 2170.5 1187.43 2164 1187.43 2170.5 1164 2177 1187.43 2170.5 1187.43 2170.5 1280 2170.5 1280" stroke="#000000" stroke-width="2.29167" stroke-miterlimit="8" fill="none" fill-rule="evenodd"/><path d="M2164 1436 2170.5 1459 2177 1436 2170.5 1436 2164 1436Z" fill-rule="evenodd"/><path d="M2170.5 1346 2170.5 1436.06 2164 1436.06 2170.5 1459 2177 1436.06 2170.5 1436.06 2170.5 1346 2170.5 1346" stroke="#000000" stroke-width="2.29167" stroke-miterlimit="8" fill="none" fill-rule="evenodd"/><text font-family="Arial,Arial_MSFontService,sans-serif" font-weight="400" font-size="46" transform="matrix(1 0 0 1 2145 1327)">A<tspan font-size="37" x="30.9375" y="19">stop</tspan><tspan font-size="46" x="-254.948" y="190">|</tspan><tspan font-size="46" x="-303.073" y="238">F</tspan><tspan font-size="37" x="-272.136" y="256">pass1</tspan><tspan font-size="46" x="299.635" y="190">|</tspan><tspan font-size="46" x="272.135" y="238">F</tspan><tspan font-size="37" x="303.073" y="256">pass2</tspan><tspan font-size="46" x="-127.761" y="190">|</tspan><tspan font-size="46" x="-155.261" y="238">F</tspan><tspan font-size="37" x="-124.323" y="256">stop1</tspan><tspan font-size="46" x="171.875" y="190">|</tspan><tspan font-size="46" x="130.625" y="238">F</tspan><tspan font-size="37" x="161.563" y="256">stop2</tspan></text><path d="M1529 1496 2940 1496" stroke="#262626" stroke-width="2.29167" stroke-linejoin="round" stroke-miterlimit="10" fill="none" fill-rule="evenodd"/><path d="M0 0 0.000360892 14.0001" stroke="#262626" stroke-width="2.29167" stroke-linejoin="round" stroke-miterlimit="10" fill="none" fill-rule="evenodd" transform="matrix(1 0 0 -1 1529 1496)"/><path d="M0 0 0.000360892 14.0001" stroke="#262626" stroke-width="2.29167" stroke-linejoin="round" stroke-miterlimit="10" fill="none" fill-rule="evenodd" transform="matrix(1 0 0 -1 2812 1496)"/><text fill="#262626" font-family="Arial,Arial_MSFontService,sans-serif" font-weight="400" font-size="46" transform="matrix(1 0 0 1 2768.33 1565)">Fs/2</text><path d="M0 0 0.000360892 565" stroke="#262626" stroke-width="2.29167" stroke-linejoin="round" stroke-miterlimit="10" fill="none" fill-rule="evenodd" transform="matrix(1 0 0 -1 1529 1496)"/><path d="M1529 1164 1543 1164" stroke="#262626" stroke-width="2.29167" stroke-linejoin="round" stroke-miterlimit="10" fill="none" fill-rule="evenodd"/><text fill="#262626" font-family="Arial,Arial_MSFontService,sans-serif" font-weight="400" font-size="46" transform="matrix(1 0 0 1 1483.85 1186)">0</text></g></svg>