<svg width="1708" height="725" xmlns="http://www.w3.org/2000/svg" xmlns:xlink="http://www.w3.org/1999/xlink" overflow="hidden"><defs><clipPath id="clip0"><rect x="1416" y="912" width="1708" height="725"/></clipPath></defs><g clip-path="url(#clip0)" transform="translate(-1416 -912)"><path d="M1499 944 1489 916 1479 944 1489 944 1499 944Z" fill-rule="evenodd"/><path d="M1489 916 1489 944 1479 944 1489 916 1499 944 1489 944 1489 916 1489 916" stroke="#000000" stroke-width="2.29167" stroke-miterlimit="8" fill="none" fill-rule="evenodd"/><path d="M2947 1505 2947 1514 2947 1523 2984 1514 2947 1505Z" fill-rule="evenodd"/><path d="M2984 1514 2947 1514 2947 1505 2984 1514 2947 1523 2947 1514 2984 1514 2984 1514" stroke="#000000" stroke-width="2.29167" stroke-miterlimit="8" fill="none" fill-rule="evenodd"/><text font-family="Arial,Arial_MSFontService,sans-serif" font-weight="400" font-size="46" transform="matrix(1 0 0 1 1502.76 1571)">0<tspan font-size="46" x="1480.99" y="0">f (Hz)</tspan><tspan font-size="46" x="6.875" y="-600">Mag. (dB)</tspan></text><rect x="1489" y="1427" width="385" height="52.0002" fill="#FFFFFF"/><rect x="1489" y="1427" width="385" height="52.0002" stroke="#000000" stroke-width="2.29167" stroke-miterlimit="8" fill="none"/><path d="M1489 1427 1874 1427" stroke="#FFFFFF" stroke-width="2.29167" stroke-linejoin="round" stroke-miterlimit="10" fill="none" fill-rule="evenodd"/><rect x="2010" y="1198" width="317" height="316" fill="#FFFFFF"/><rect x="2010" y="1198" width="317" height="316" stroke="#000000" stroke-width="2.29167" stroke-miterlimit="8" fill="none"/><rect x="2010" y="1075" width="317" height="52.9999" fill="#FFFFFF"/><rect x="2010" y="1075" width="317" height="52.9999" stroke="#000000" stroke-width="2.29167" stroke-miterlimit="8" fill="none"/><path d="M2010 1075 2327 1075" stroke="#FFFFFF" stroke-width="2.29167" stroke-linejoin="round" stroke-miterlimit="10" fill="none" fill-rule="evenodd"/><rect x="2463" y="1427" width="385" height="52.0002" fill="#FFFFFF"/><rect x="2463" y="1427" width="385" height="52.0002" stroke="#000000" stroke-width="2.29167" stroke-miterlimit="8" fill="none"/><path d="M2463 1427 2848 1427" stroke="#FFFFFF" stroke-width="2.29167" stroke-linejoin="round" stroke-miterlimit="10" fill="none" fill-rule="evenodd"/><path d="M2463 1128 2517 1128" stroke="#000000" stroke-width="2.29167" stroke-linejoin="round" stroke-miterlimit="10" fill="none" fill-rule="evenodd"/><path d="M2483 1222 2490 1222 2497 1222 2490 1198 2483 1222Z" fill-rule="evenodd"/><path d="M2490 1303 2490 1221.97 2483 1221.97 2490 1198 2497 1221.97 2490 1221.97 2490 1303 2490 1303" stroke="#000000" stroke-width="2.29167" stroke-miterlimit="8" fill="none" fill-rule="evenodd"/><path d="M2490 1128 2497 1103 2490 1103 2483 1103 2490 1128Z" fill-rule="evenodd"/><path d="M2490 1057 2490 1103.18 2483 1103.18 2490 1128 2497 1103.18 2490 1103.18 2490 1057 2490 1057" stroke="#000000" stroke-width="2.29167" stroke-miterlimit="8" fill="none" fill-rule="evenodd"/><path d="M2463 1198 2517 1198" stroke="#000000" stroke-width="2.29167" stroke-linejoin="round" stroke-miterlimit="10" fill="none" fill-rule="evenodd"/><text font-family="Arial,Arial_MSFontService,sans-serif" font-weight="400" font-size="46" transform="matrix(1 0 0 1 2528.85 1185)">A<tspan font-size="37" x="30.9375" y="18">pass</tspan></text><path d="M1643 1162 1697 1162" stroke="#000000" stroke-width="2.29167" stroke-linejoin="round" stroke-miterlimit="10" fill="none" fill-rule="evenodd"/><path d="M1664 1187 1670.22 1187 1677 1187 1670.22 1162 1664 1187Z" fill-rule="evenodd"/><path d="M1670.22 1286 1670.22 1186.8 1664 1186.8 1670.22 1162 1677 1186.8 1670.22 1186.8 1670.22 1286 1670.22 1286" stroke="#000000" stroke-width="2.29167" stroke-miterlimit="8" fill="none" fill-rule="evenodd"/><path d="M1664 1451 1670.22 1476 1677 1451 1670.22 1451 1664 1451Z" fill-rule="evenodd"/><path d="M1670.22 1356 1670.22 1451.31 1664 1451.31 1670.22 1476 1677 1451.31 1670.22 1451.31 1670.22 1356 1670.22 1356" stroke="#000000" stroke-width="2.29167" stroke-miterlimit="8" fill="none" fill-rule="evenodd"/><text font-family="Arial,Arial_MSFontService,sans-serif" font-weight="400" font-size="46" transform="matrix(1 0 0 1 1643.7 1336)">A<tspan font-size="37" x="30.9375" y="19">stop1</tspan></text><path d="M2666 1162 2721 1162" stroke="#000000" stroke-width="2.29167" stroke-linejoin="round" stroke-miterlimit="10" fill="none" fill-rule="evenodd"/><path d="M2687 1187 2694 1187 2701 1187 2694 1162 2687 1187Z" fill-rule="evenodd"/><path d="M2694 1286 2694 1186.8 2687 1186.8 2694 1162 2701 1186.8 2694 1186.8 2694 1286 2694 1286" stroke="#000000" stroke-width="2.29167" stroke-miterlimit="8" fill="none" fill-rule="evenodd"/><path d="M2687 1451 2694 1476 2701 1451 2694 1451 2687 1451Z" fill-rule="evenodd"/><path d="M2694 1356 2694 1451.31 2687 1451.31 2694 1476 2701 1451.31 2694 1451.31 2694 1356 2694 1356" stroke="#000000" stroke-width="2.29167" stroke-miterlimit="8" fill="none" fill-rule="evenodd"/><text font-family="Arial,Arial_MSFontService,sans-serif" font-weight="400" font-size="46" transform="matrix(1 0 0 1 2666.93 1336)">A<tspan font-size="37" x="30.9375" y="19">stop2</tspan><tspan font-size="46" x="-661.719" y="200">|</tspan><tspan font-size="46" x="-692.656" y="252">F</tspan><tspan font-size="37" x="-661.719" y="270">pass1</tspan><tspan font-size="46" x="-344.896" y="200">|</tspan><tspan font-size="46" x="-406.771" y="252">F</tspan><tspan font-size="37" x="-375.833" y="270">pass2</tspan><tspan font-size="46" x="-795.781" y="200">|</tspan><tspan font-size="46" x="-861.094" y="252">F</tspan><tspan font-size="37" x="-830.156" y="270">stop1</tspan><tspan font-size="46" x="-206.823" y="200">|</tspan><tspan font-size="46" x="-237.761" y="252">F</tspan><tspan font-size="37" x="-206.823" y="270">stop2</tspan></text><path d="M1489 1514 2984 1514" stroke="#262626" stroke-width="2.29167" stroke-linejoin="round" stroke-miterlimit="10" fill="none" fill-rule="evenodd"/><path d="M0 0 0.000360892 14.9998" stroke="#262626" stroke-width="2.29167" stroke-linejoin="round" stroke-miterlimit="10" fill="none" fill-rule="evenodd" transform="matrix(1 0 0 -1 1489 1514)"/><path d="M0 0 0.000360892 14.9998" stroke="#262626" stroke-width="2.29167" stroke-linejoin="round" stroke-miterlimit="10" fill="none" fill-rule="evenodd" transform="matrix(1 0 0 -1 2848 1514)"/><text fill="#262626" font-family="Arial,Arial_MSFontService,sans-serif" font-weight="400" font-size="46" transform="matrix(1 0 0 1 2804.43 1584)">Fs/2</text><path d="M0 0 0.000360892 598" stroke="#262626" stroke-width="2.29167" stroke-linejoin="round" stroke-miterlimit="10" fill="none" fill-rule="evenodd" transform="matrix(1 0 0 -1 1489 1514)"/><path d="M1489 1162 1504 1162" stroke="#262626" stroke-width="2.29167" stroke-linejoin="round" stroke-miterlimit="10" fill="none" fill-rule="evenodd"/><text fill="#262626" font-family="Arial,Arial_MSFontService,sans-serif" font-weight="400" font-size="46" transform="matrix(1 0 0 1 1444.32 1185)">0</text></g></svg>