<svg width="1624" height="687" xmlns="http://www.w3.org/2000/svg" xmlns:xlink="http://www.w3.org/1999/xlink" overflow="hidden"><defs><clipPath id="clip0"><rect x="1456" y="927" width="1624" height="687"/></clipPath></defs><g clip-path="url(#clip0)" transform="translate(-1456 -927)"><path d="M1538 957 1528.5 931 1519 957 1528.5 957 1538 957Z" fill-rule="evenodd"/><path d="M1528.5 931 1528.5 957 1519 957 1528.5 931 1538 957 1528.5 957 1528.5 931 1528.5 931" stroke="#000000" stroke-width="2.29167" stroke-miterlimit="8" fill="none" fill-rule="evenodd"/><path d="M2906 1487 2906 1495.5 2906 1504 2940 1495.5 2906 1487Z" fill-rule="evenodd"/><path d="M2940 1495.5 2906 1495.5 2906 1487 2940 1495.5 2906 1504 2906 1495.5 2940 1495.5 2940 1495.5" stroke="#000000" stroke-width="2.29167" stroke-miterlimit="8" fill="none" fill-rule="evenodd"/><text font-family="Arial,Arial_MSFontService,sans-serif" font-weight="400" font-size="46" transform="matrix(1 0 0 1 1542.29 1551)">0<tspan font-size="46" x="1397.92" y="0">f (Hz)</tspan><tspan font-size="46" x="6.875" y="-565">Mag. (dB)</tspan></text><rect x="2170" y="1081" width="642" height="48.9998" fill="#FFFFFF"/><rect x="2170" y="1081" width="642" height="48.9998" stroke="#000000" stroke-width="2.29167" stroke-miterlimit="8" fill="none"/><path d="M0 0 642 0.000360892" stroke="#FFFFFF" stroke-width="2.29167" stroke-linejoin="round" stroke-miterlimit="10" fill="none" fill-rule="evenodd" transform="matrix(-1 0 0 1 2812 1081)"/><rect x="2170" y="1197" width="642" height="299" fill="#FFFFFF"/><rect x="2170" y="1197" width="642" height="299" stroke="#000000" stroke-width="2.29167" stroke-miterlimit="8" fill="none"/><path d="M0 0 642 0.000360892" stroke="#FFFFFF" stroke-width="2.29167" stroke-linejoin="round" stroke-miterlimit="10" fill="none" fill-rule="evenodd" transform="matrix(-1 0 0 1 2812 1496)"/><rect x="1529" y="1413" width="513" height="49.9999" fill="#FFFFFF"/><rect x="1529" y="1413" width="513" height="49.9999" stroke="#000000" stroke-width="2.29167" stroke-miterlimit="8" fill="none"/><path d="M1529 1413 2042 1413" stroke="#FFFFFF" stroke-width="2.29167" stroke-linejoin="round" stroke-miterlimit="10" fill="none" fill-rule="evenodd"/><path d="M1965 1130 2017 1130" stroke="#000000" stroke-width="2.29167" stroke-linejoin="round" stroke-miterlimit="10" fill="none" fill-rule="evenodd"/><path d="M1985 1220 1990.45 1220 1997 1220 1990.45 1197 1985 1220Z" fill-rule="evenodd"/><path d="M1990.45 1297 1990.45 1220.56 1985 1220.56 1990.45 1197 1997 1220.56 1990.45 1220.56 1990.45 1297 1990.45 1297" stroke="#000000" stroke-width="2.29167" stroke-miterlimit="8" fill="none" fill-rule="evenodd"/><path d="M1990.45 1130 1997 1107 1990.45 1107 1985 1107 1990.45 1130Z" fill-rule="evenodd"/><path d="M1990.45 1064 1990.45 1107.24 1985 1107.24 1990.45 1130 1997 1107.24 1990.45 1107.24 1990.45 1064 1990.45 1064" stroke="#000000" stroke-width="2.29167" stroke-miterlimit="8" fill="none" fill-rule="evenodd"/><path d="M1965 1197 2017 1197" stroke="#000000" stroke-width="2.29167" stroke-linejoin="round" stroke-miterlimit="10" fill="none" fill-rule="evenodd"/><text font-family="Arial,Arial_MSFontService,sans-serif" font-weight="400" font-size="46" transform="matrix(1 0 0 1 2027.55 1183)">A<tspan font-size="37" x="31.5106" y="18">pass</tspan></text><path d="M1631 1164 1683 1164" stroke="#000000" stroke-width="2.29167" stroke-linejoin="round" stroke-miterlimit="10" fill="none" fill-rule="evenodd"/><path d="M1651 1187 1657 1187 1663 1187 1657 1164 1651 1187Z" fill-rule="evenodd"/><path d="M1657 1280 1657 1187.43 1651 1187.43 1657 1164 1663 1187.43 1657 1187.43 1657 1280 1657 1280" stroke="#000000" stroke-width="2.29167" stroke-miterlimit="8" fill="none" fill-rule="evenodd"/><path d="M1651 1436 1657 1459 1663 1436 1657 1436 1651 1436Z" fill-rule="evenodd"/><path d="M1657 1346 1657 1436.06 1651 1436.06 1657 1459 1663 1436.06 1657 1436.06 1657 1346 1657 1346" stroke="#000000" stroke-width="2.29167" stroke-miterlimit="8" fill="none" fill-rule="evenodd"/><text font-family="Arial,Arial_MSFontService,sans-serif" font-weight="400" font-size="46" transform="matrix(1 0 0 1 1631.67 1327)">A<tspan font-size="37" x="30.9375" y="19">stop</tspan><tspan font-size="46" x="537.396" y="190">|</tspan><tspan font-size="46" x="492.708" y="238">F</tspan><tspan font-size="37" x="523.646" y="256">pass</tspan><tspan font-size="46" x="406.198" y="190">|</tspan><tspan font-size="46" x="378.698" y="238">F</tspan><tspan font-size="37" x="410.208" y="256">stop</tspan></text><path d="M1529 1496 2940 1496" stroke="#262626" stroke-width="2.29167" stroke-linejoin="round" stroke-miterlimit="10" fill="none" fill-rule="evenodd"/><path d="M0 0 0.000360892 14.0001" stroke="#262626" stroke-width="2.29167" stroke-linejoin="round" stroke-miterlimit="10" fill="none" fill-rule="evenodd" transform="matrix(1 0 0 -1 1529 1496)"/><path d="M0 0 0.000360892 14.0001" stroke="#262626" stroke-width="2.29167" stroke-linejoin="round" stroke-miterlimit="10" fill="none" fill-rule="evenodd" transform="matrix(1 0 0 -1 2812 1496)"/><text fill="#262626" font-family="Arial,Arial_MSFontService,sans-serif" font-weight="400" font-size="46" transform="matrix(1 0 0 1 2768.33 1565)">Fs/2</text><path d="M0 0 0.000360892 565" stroke="#262626" stroke-width="2.29167" stroke-linejoin="round" stroke-miterlimit="10" fill="none" fill-rule="evenodd" transform="matrix(1 0 0 -1 1529 1496)"/><path d="M1529 1164 1543 1164" stroke="#262626" stroke-width="2.29167" stroke-linejoin="round" stroke-miterlimit="10" fill="none" fill-rule="evenodd"/><text fill="#262626" font-family="Arial,Arial_MSFontService,sans-serif" font-weight="400" font-size="46" transform="matrix(1 0 0 1 1483.85 1186)">0</text></g></svg>