<svg width="1624" height="687" xmlns="http://www.w3.org/2000/svg" xmlns:xlink="http://www.w3.org/1999/xlink" overflow="hidden"><defs><clipPath id="clip0"><rect x="1456" y="927" width="1624" height="687"/></clipPath></defs><g clip-path="url(#clip0)" transform="translate(-1456 -927)"><path d="M1538 957 1528.5 931 1519 957 1528.5 957 1538 957Z" fill-rule="evenodd"/><path d="M1528.5 931 1528.5 957 1519 957 1528.5 931 1538 957 1528.5 957 1528.5 931 1528.5 931" stroke="#000000" stroke-width="2.29167" stroke-miterlimit="8" fill="none" fill-rule="evenodd"/><path d="M2906 1487 2906 1495.5 2906 1504 2940 1495.5 2906 1487Z" fill-rule="evenodd"/><path d="M2940 1495.5 2906 1495.5 2906 1487 2940 1495.5 2906 1504 2906 1495.5 2940 1495.5 2940 1495.5" stroke="#000000" stroke-width="2.29167" stroke-miterlimit="8" fill="none" fill-rule="evenodd"/><text font-family="Arial,Arial_MSFontService,sans-serif" font-weight="400" font-size="46" transform="matrix(1 0 0 1 1542.29 1551)">0<tspan font-size="46" x="1397.92" y="0">f (Hz)</tspan><tspan font-size="46" x="6.875" y="-565">Mag. (dB)</tspan></text><rect x="1529" y="1081" width="513" height="48.9998" fill="#FFFFFF"/><rect x="1529" y="1081" width="513" height="48.9998" stroke="#000000" stroke-width="2.29167" stroke-miterlimit="8" fill="none"/><path d="M1529 1081 2042 1081" stroke="#FFFFFF" stroke-width="2.29167" stroke-linejoin="round" stroke-miterlimit="10" fill="none" fill-rule="evenodd"/><rect x="1529" y="1197" width="513" height="299" fill="#FFFFFF"/><rect x="1529" y="1197" width="513" height="299" stroke="#000000" stroke-width="2.29167" stroke-miterlimit="8" fill="none"/><path d="M1529 1496 2042 1496" stroke="#FFFFFF" stroke-width="2.29167" stroke-linejoin="round" stroke-miterlimit="10" fill="none" fill-rule="evenodd"/><rect x="2170" y="1413" width="642" height="49.9999" fill="#FFFFFF"/><rect x="2170" y="1413" width="642" height="49.9999" stroke="#000000" stroke-width="2.29167" stroke-miterlimit="8" fill="none"/><path d="M0 0 642 0.000360892" stroke="#FFFFFF" stroke-width="2.29167" stroke-linejoin="round" stroke-miterlimit="10" fill="none" fill-rule="evenodd" transform="matrix(-1 0 0 1 2812 1413)"/><path d="M2170 1130 2222 1130" stroke="#000000" stroke-width="2.29167" stroke-linejoin="round" stroke-miterlimit="10" fill="none" fill-rule="evenodd"/><path d="M2190 1220 2196 1220 2202 1220 2196 1197 2190 1220Z" fill-rule="evenodd"/><path d="M2196 1297 2196 1220.56 2190 1220.56 2196 1197 2202 1220.56 2196 1220.56 2196 1297 2196 1297" stroke="#000000" stroke-width="2.29167" stroke-miterlimit="8" fill="none" fill-rule="evenodd"/><path d="M2196 1130 2202 1107 2196 1107 2190 1107 2196 1130Z" fill-rule="evenodd"/><path d="M2196 1064 2196 1107.24 2190 1107.24 2196 1130 2202 1107.24 2196 1107.24 2196 1064 2196 1064" stroke="#000000" stroke-width="2.29167" stroke-miterlimit="8" fill="none" fill-rule="evenodd"/><path d="M2170 1197 2222 1197" stroke="#000000" stroke-width="2.29167" stroke-linejoin="round" stroke-miterlimit="10" fill="none" fill-rule="evenodd"/><text font-family="Arial,Arial_MSFontService,sans-serif" font-weight="400" font-size="46" transform="matrix(1 0 0 1 2234.38 1183)">A<tspan font-size="37" x="30.9375" y="18">pass</tspan></text><path d="M2594 1164 2645 1164" stroke="#000000" stroke-width="2.29167" stroke-linejoin="round" stroke-miterlimit="10" fill="none" fill-rule="evenodd"/><path d="M2613 1187 2619.78 1187 2626 1187 2619.78 1164 2613 1187Z" fill-rule="evenodd"/><path d="M2619.78 1280 2619.78 1187.43 2613 1187.43 2619.78 1164 2626 1187.43 2619.78 1187.43 2619.78 1280 2619.78 1280" stroke="#000000" stroke-width="2.29167" stroke-miterlimit="8" fill="none" fill-rule="evenodd"/><path d="M2613 1436 2619.78 1459 2626 1436 2619.78 1436 2613 1436Z" fill-rule="evenodd"/><path d="M2619.78 1346 2619.78 1436.06 2613 1436.06 2619.78 1459 2626 1436.06 2619.78 1436.06 2619.78 1346 2619.78 1346" stroke="#000000" stroke-width="2.29167" stroke-miterlimit="8" fill="none" fill-rule="evenodd"/><text font-family="Arial,Arial_MSFontService,sans-serif" font-weight="400" font-size="46" transform="matrix(1 0 0 1 2592.45 1327)">A<tspan font-size="37" x="30.9375" y="19">stop</tspan><tspan font-size="46" x="-554.583" y="190">|</tspan><tspan font-size="46" x="-595.833" y="238">F</tspan><tspan font-size="37" x="-564.896" y="256">pass</tspan><tspan font-size="46" x="-426.823" y="190">|</tspan><tspan font-size="46" x="-454.323" y="238">F</tspan><tspan font-size="37" x="-423.385" y="256">stop</tspan></text><path d="M1529 1496 2940 1496" stroke="#262626" stroke-width="2.29167" stroke-linejoin="round" stroke-miterlimit="10" fill="none" fill-rule="evenodd"/><path d="M0 0 0.000360892 14.0001" stroke="#262626" stroke-width="2.29167" stroke-linejoin="round" stroke-miterlimit="10" fill="none" fill-rule="evenodd" transform="matrix(1 0 0 -1 2812 1496)"/><text fill="#262626" font-family="Arial,Arial_MSFontService,sans-serif" font-weight="400" font-size="46" transform="matrix(1 0 0 1 2768.33 1565)">Fs/2</text><path d="M0 0 0.000360892 565" stroke="#262626" stroke-width="2.29167" stroke-linejoin="round" stroke-miterlimit="10" fill="none" fill-rule="evenodd" transform="matrix(1 0 0 -1 1529 1496)"/><path d="M1529 1164 1543 1164" stroke="#262626" stroke-width="2.29167" stroke-linejoin="round" stroke-miterlimit="10" fill="none" fill-rule="evenodd"/><text fill="#262626" font-family="Arial,Arial_MSFontService,sans-serif" font-weight="400" font-size="46" transform="matrix(1 0 0 1 1483.85 1186)">0</text></g></svg>