<svg width="1624" height="676" xmlns="http://www.w3.org/2000/svg" xmlns:xlink="http://www.w3.org/1999/xlink" overflow="hidden"><defs><clipPath id="clip0"><rect x="1456" y="927" width="1624" height="676"/></clipPath></defs><g clip-path="url(#clip0)" transform="translate(-1456 -927)"><path d="M1538 957 1528.5 931 1519 957 1528.5 957 1538 957Z" fill-rule="evenodd"/><path d="M1528.5 931 1528.5 957 1519 957 1528.5 931 1538 957 1528.5 957 1528.5 931 1528.5 931" stroke="#000000" stroke-width="2.29167" stroke-miterlimit="8" fill="none" fill-rule="evenodd"/><path d="M2906 1487 2906 1495.5 2906 1504 2940 1495.5 2906 1487Z" fill-rule="evenodd"/><path d="M2940 1495.5 2906 1495.5 2906 1487 2940 1495.5 2906 1504 2906 1495.5 2940 1495.5 2940 1495.5" stroke="#000000" stroke-width="2.29167" stroke-miterlimit="8" fill="none" fill-rule="evenodd"/><text font-family="Arial,Arial_MSFontService,sans-serif" font-weight="400" font-size="46" transform="matrix(1 0 0 1 1542.29 1551)">0<tspan font-size="46" x="1397.92" y="0">f (Hz)</tspan><tspan font-size="46" x="6.875" y="-565">Mag. (dB)</tspan></text><rect x="1529" y="1197" width="564" height="299" fill="#FFFFFF"/><rect x="1529" y="1197" width="564" height="299" stroke="#000000" stroke-width="2.29167" stroke-miterlimit="8" fill="none"/><rect x="1529" y="1114" width="564" height="49.9999" fill="#FFFFFF"/><rect x="1529" y="1114" width="564" height="49.9999" stroke="#000000" stroke-width="2.29167" stroke-miterlimit="8" fill="none"/><path d="M1529 1114 2093 1114" stroke="#FFFFFF" stroke-width="2.29167" stroke-linejoin="round" stroke-miterlimit="10" fill="none" fill-rule="evenodd"/><rect x="2119" y="1413" width="103" height="49.9999" fill="#FFFFFF"/><rect x="2119" y="1413" width="103" height="49.9999" stroke="#000000" stroke-width="2.29167" stroke-miterlimit="8" fill="none"/><path d="M2119 1413 2222 1413" stroke="#FFFFFF" stroke-width="2.29167" stroke-linejoin="round" stroke-miterlimit="10" fill="none" fill-rule="evenodd"/><rect x="2248" y="1197" width="564" height="299" fill="#FFFFFF"/><rect x="2248" y="1197" width="564" height="299" stroke="#000000" stroke-width="2.29167" stroke-miterlimit="8" fill="none"/><rect x="2248" y="1114" width="564" height="49.9999" fill="#FFFFFF"/><rect x="2248" y="1114" width="564" height="49.9999" stroke="#000000" stroke-width="2.29167" stroke-miterlimit="8" fill="none"/><path d="M2248 1114 2812 1114" stroke="#FFFFFF" stroke-width="2.29167" stroke-linejoin="round" stroke-miterlimit="10" fill="none" fill-rule="evenodd"/><path d="M2081 1318 2081 1329.71 2081 1342 2093 1329.71 2081 1318Z" fill-rule="evenodd"/><path d="M2029 1329.71 2080.43 1329.71 2080.43 1318 2093 1329.71 2080.43 1342 2080.43 1329.71 2029 1329.71 2029 1329.71" stroke="#000000" stroke-width="2.29167" stroke-miterlimit="8" fill="none" fill-rule="evenodd"/><path d="M2260 1342 2260 1329.71 2260 1318 2248 1329.71 2260 1342Z" fill-rule="evenodd"/><path d="M2312 1329.71 2260.57 1329.71 2260.57 1342 2248 1329.71 2260.57 1318 2260.57 1329.71 2312 1329.71 2312 1329.71" stroke="#000000" stroke-width="2.29167" stroke-miterlimit="8" fill="none" fill-rule="evenodd"/><text font-family="Arial,Arial_MSFontService,sans-serif" font-weight="400" font-size="37" transform="matrix(1 0 0 1 2117.5 1346)">BW</text><path d="M2851 1164 2902 1164" stroke="#000000" stroke-width="2.29167" stroke-linejoin="round" stroke-miterlimit="10" fill="none" fill-rule="evenodd"/><path d="M2870 1220 2876.78 1220 2883 1220 2876.78 1197 2870 1220Z" fill-rule="evenodd"/><path d="M2876.78 1297 2876.78 1220.56 2870 1220.56 2876.78 1197 2883 1220.56 2876.78 1220.56 2876.78 1297 2876.78 1297" stroke="#000000" stroke-width="2.29167" stroke-miterlimit="8" fill="none" fill-rule="evenodd"/><path d="M2870 1140 2876.78 1164 2883 1140 2876.78 1140 2870 1140Z" fill-rule="evenodd"/><path d="M2876.78 1064 2876.78 1140.44 2870 1140.44 2876.78 1164 2883 1140.44 2876.78 1140.44 2876.78 1064 2876.78 1064" stroke="#000000" stroke-width="2.29167" stroke-miterlimit="8" fill="none" fill-rule="evenodd"/><path d="M2851 1197 2902 1197" stroke="#000000" stroke-width="2.29167" stroke-linejoin="round" stroke-miterlimit="10" fill="none" fill-rule="evenodd"/><text font-family="Arial,Arial_MSFontService,sans-serif" font-weight="400" font-size="46" transform="matrix(1 0 0 1 2916.15 1183)">A<tspan font-size="37" x="30.9375" y="18">pass</tspan></text><path d="M1529 1496 2940 1496" stroke="#262626" stroke-width="2.29167" stroke-linejoin="round" stroke-miterlimit="10" fill="none" fill-rule="evenodd"/><path d="M0 0 0.000360892 14.0001" stroke="#262626" stroke-width="2.29167" stroke-linejoin="round" stroke-miterlimit="10" fill="none" fill-rule="evenodd" transform="matrix(1 0 0 -1 1529 1496)"/><path d="M0 0 0.000360892 14.0001" stroke="#262626" stroke-width="2.29167" stroke-linejoin="round" stroke-miterlimit="10" fill="none" fill-rule="evenodd" transform="matrix(1 0 0 -1 2812 1496)"/><text fill="#262626" font-family="Arial,Arial_MSFontService,sans-serif" font-weight="400" font-size="46" transform="matrix(1 0 0 1 2768.33 1565)">Fs/2</text><path d="M0 0 0.000360892 565" stroke="#262626" stroke-width="2.29167" stroke-linejoin="round" stroke-miterlimit="10" fill="none" fill-rule="evenodd" transform="matrix(1 0 0 -1 1529 1496)"/><path d="M1529 1164 1543 1164" stroke="#262626" stroke-width="2.29167" stroke-linejoin="round" stroke-miterlimit="10" fill="none" fill-rule="evenodd"/><text fill="#262626" font-family="Arial,Arial_MSFontService,sans-serif" font-weight="400" font-size="46" transform="matrix(1 0 0 1 1483.85 1186)">0</text></g></svg>