<svg width="965" height="516" xmlns="http://www.w3.org/2000/svg" xmlns:xlink="http://www.w3.org/1999/xlink" xml:space="preserve" overflow="hidden"><defs><clipPath id="clip0"><rect x="1694" y="994" width="965" height="516"/></clipPath></defs><g clip-path="url(#clip0)" transform="translate(-1694 -994)"><path d="M1788 1414 2654 1414" stroke="#262626" stroke-width="2.29167" stroke-linejoin="round" stroke-miterlimit="10" fill="none" fill-rule="evenodd"/><path d="M1788 995 2654 995.001" stroke="#262626" stroke-width="2.29167" stroke-linejoin="round" stroke-miterlimit="10" fill="none" fill-rule="evenodd"/><path d="M0 0 0.000360892 8.99993" stroke="#262626" stroke-width="2.29167" stroke-linejoin="round" stroke-miterlimit="10" fill="none" fill-rule="evenodd" transform="matrix(1 0 0 -1 2004 1414)"/><path d="M0 0 0.000360892 8.99993" stroke="#262626" stroke-width="2.29167" stroke-linejoin="round" stroke-miterlimit="10" fill="none" fill-rule="evenodd" transform="matrix(1 0 0 -1 2221 1414)"/><path d="M0 0 0.000360892 8.99993" stroke="#262626" stroke-width="2.29167" stroke-linejoin="round" stroke-miterlimit="10" fill="none" fill-rule="evenodd" transform="matrix(1 0 0 -1 2437 1414)"/><path d="M2004 995 2004 1004" stroke="#262626" stroke-width="2.29167" stroke-linejoin="round" stroke-miterlimit="10" fill="none" fill-rule="evenodd"/><path d="M2221 995 2221 1004" stroke="#262626" stroke-width="2.29167" stroke-linejoin="round" stroke-miterlimit="10" fill="none" fill-rule="evenodd"/><path d="M2437 995 2437 1004" stroke="#262626" stroke-width="2.29167" stroke-linejoin="round" stroke-miterlimit="10" fill="none" fill-rule="evenodd"/><path d="M1982.13 1448.5C1981.92 1448.5 1981.71 1448.5 1981.71 1448.36 1981.5 1448.21 1981.5 1448.21 1981.5 1448.07 1981.5 1447.93 1981.5 1447.79 1981.71 1447.64 1981.71 1447.64 1981.92 1447.5 1982.13 1447.5L2003.87 1447.5C2003.87 1447.5 2004.08 1447.64 2004.29 1447.64 2004.29 1447.79 2004.5 1447.93 2004.5 1448.07 2004.5 1448.21 2004.29 1448.21 2004.29 1448.36 2004.08 1448.5 2003.87 1448.5 2003.87 1448.5L1982.13 1448.5Z" stroke="#000000" stroke-width="0" stroke-linejoin="round" stroke-miterlimit="10" fill="#262626" fill-rule="evenodd"/><path d="M2015.63 1458.5C2014.31 1458.5 2013.44 1458.28 2012.34 1457.6 2011.47 1456.93 2010.81 1456.25 2010.38 1455.35 2009.94 1454.22 2009.5 1453.33 2009.5 1451.98 2009.5 1450.85 2009.94 1449.5 2010.38 1448.15 2011.03 1446.8 2011.69 1445.45 2012.78 1444.33 2013.66 1443.2 2014.75 1442.3 2015.84 1441.63 2017.16 1440.95 2018.25 1440.5 2019.56 1440.5L2029.63 1440.5C2029.84 1440.5 2030.06 1440.73 2030.28 1440.73 2030.5 1440.95 2030.5 1441.18 2030.5 1441.63 2030.5 1441.85 2030.28 1442.3 2030.06 1442.53 2029.84 1442.98 2029.41 1442.98 2029.19 1442.98L2024.38 1442.98C2025.03 1444.1 2025.47 1445.68 2025.47 1447.25 2025.47 1448.6 2025.25 1449.95 2024.59 1451.3 2024.16 1452.65 2023.5 1453.78 2022.63 1454.9 2021.53 1456.03 2020.66 1456.93 2019.34 1457.38 2018.25 1458.05 2016.94 1458.5 2015.63 1458.5ZM2015.63 1457.38C2016.94 1457.38 2018.25 1456.7 2019.34 1455.57 2020.44 1454.45 2021.31 1453.1 2021.97 1451.3 2022.63 1449.73 2022.84 1448.15 2022.84 1446.8 2022.84 1445.68 2022.41 1444.78 2021.97 1444.1 2021.31 1443.43 2020.44 1442.98 2019.34 1442.98 2017.81 1442.98 2016.5 1443.65 2015.41 1444.55 2014.31 1445.68 2013.44 1447.03 2013 1448.6 2012.56 1450.18 2012.13 1451.75 2012.13 1453.33 2012.13 1454.45 2012.56 1455.35 2013 1456.25 2013.66 1456.93 2014.53 1457.38 2015.63 1457.38Z" stroke="#000000" stroke-width="0" stroke-linejoin="round" stroke-miterlimit="10" fill="#262626" fill-rule="evenodd"/><path d="M2221.5 1458.5C2218.34 1458.5 2216.24 1457.19 2215.18 1454.36 2214.13 1451.75 2213.5 1448.7 2213.5 1445 2213.5 1442.82 2213.71 1440.65 2214.13 1438.69 2214.55 1436.73 2215.39 1434.98 2216.45 1433.46 2217.71 1432.15 2219.39 1431.5 2221.5 1431.5 2223.18 1431.5 2224.45 1431.94 2225.71 1432.81 2226.76 1433.46 2227.39 1434.55 2228.03 1436.07 2228.66 1437.38 2229.08 1438.69 2229.29 1440.21 2229.5 1441.73 2229.5 1443.48 2229.5 1445 2229.5 1447.4 2229.29 1449.35 2228.87 1451.31 2228.45 1453.27 2227.61 1455.02 2226.55 1456.32 2225.29 1457.85 2223.61 1458.5 2221.5 1458.5ZM2221.5 1457.41C2222.97 1457.41 2224.03 1456.76 2224.66 1455.23 2225.29 1453.71 2225.71 1451.97 2225.92 1450.23 2226.13 1448.48 2226.13 1446.52 2226.13 1444.35 2226.13 1442.39 2226.13 1440.65 2225.92 1438.9 2225.71 1437.38 2225.29 1435.85 2224.66 1434.55 2224.03 1433.24 2222.97 1432.37 2221.5 1432.37 2220.03 1432.37 2218.97 1433.24 2218.34 1434.55 2217.71 1435.85 2217.29 1437.38 2217.08 1439.12 2216.87 1440.65 2216.87 1442.39 2216.87 1444.35 2216.87 1445.87 2216.87 1447.18 2216.87 1448.48 2217.08 1449.79 2217.08 1451.1 2217.5 1452.62 2217.71 1453.93 2218.34 1455.02 2218.97 1456.1 2219.61 1456.98 2220.45 1457.41 2221.5 1457.41Z" stroke="#000000" stroke-width="0" stroke-linejoin="round" stroke-miterlimit="10" fill="#262626" fill-rule="evenodd"/><path d="M2433.41 1458.5C2432.31 1458.5 2431.22 1458.28 2430.34 1457.6 2429.47 1456.93 2428.81 1456.25 2428.16 1455.35 2427.72 1454.22 2427.5 1453.33 2427.5 1451.98 2427.5 1450.85 2427.72 1449.5 2428.38 1448.15 2428.81 1446.8 2429.69 1445.45 2430.56 1444.33 2431.44 1443.2 2432.53 1442.3 2433.84 1441.63 2434.94 1440.95 2436.25 1440.5 2437.56 1440.5L2447.41 1440.5C2447.62 1440.5 2447.84 1440.73 2448.06 1440.73 2448.28 1440.95 2448.5 1441.18 2448.5 1441.63 2448.5 1441.85 2448.28 1442.3 2448.06 1442.53 2447.62 1442.98 2447.41 1442.98 2446.97 1442.98L2442.16 1442.98C2443.03 1444.1 2443.25 1445.68 2443.25 1447.25 2443.25 1448.6 2443.03 1449.95 2442.59 1451.3 2442.16 1452.65 2441.28 1453.78 2440.41 1454.9 2439.53 1456.03 2438.44 1456.93 2437.34 1457.38 2436.03 1458.05 2434.72 1458.5 2433.41 1458.5ZM2433.41 1457.38C2434.94 1457.38 2436.25 1456.7 2437.34 1455.57 2438.44 1454.45 2439.31 1453.1 2439.75 1451.3 2440.41 1449.73 2440.62 1448.15 2440.62 1446.8 2440.62 1445.68 2440.41 1444.78 2439.75 1444.1 2439.09 1443.43 2438.22 1442.98 2437.12 1442.98 2435.59 1442.98 2434.28 1443.65 2433.19 1444.55 2432.31 1445.68 2431.44 1447.03 2430.78 1448.6 2430.34 1450.18 2430.12 1451.75 2430.12 1453.33 2430.12 1454.45 2430.34 1455.35 2431 1456.25 2431.66 1456.93 2432.31 1457.38 2433.41 1457.38Z" stroke="#000000" stroke-width="0" stroke-linejoin="round" stroke-miterlimit="10" fill="#262626" fill-rule="evenodd"/><path d="M2180.23 1508.5 2180.23 1507.04C2181.71 1507.04 2182.98 1506.83 2184.47 1506.83 2185.74 1506.62 2186.38 1506.2 2186.38 1505.58L2186.38 1482.21C2186.38 1481.59 2186.38 1481.17 2185.95 1481.17 2185.53 1480.96 2185.11 1480.96 2184.26 1480.96L2182.35 1480.96C2180.02 1480.96 2178.32 1481.38 2177.26 1482.42 2176.83 1483.05 2176.41 1483.67 2176.2 1484.92 2175.98 1485.97 2175.77 1487.43 2175.77 1489.1L2174.5 1489.1 2175.35 1479.5 2201.65 1479.5 2202.5 1489.1 2201.23 1489.1C2201.01 1487.43 2200.8 1485.97 2200.59 1484.72 2200.59 1483.67 2200.17 1482.84 2199.53 1482.42 2198.47 1481.38 2196.77 1480.96 2194.44 1480.96L2192.74 1480.96C2192.11 1480.96 2191.68 1480.96 2191.47 1480.96 2191.26 1480.96 2191.05 1481.17 2190.83 1481.38 2190.62 1481.59 2190.41 1481.79 2190.41 1482.21L2190.41 1505.58C2190.41 1506.2 2191.26 1506.62 2192.53 1506.83 2193.8 1506.83 2195.29 1507.04 2196.77 1507.04L2196.77 1508.5 2180.23 1508.5Z" stroke="#000000" stroke-width="0" stroke-linejoin="round" stroke-miterlimit="10" fill="#262626" fill-rule="evenodd"/><path d="M2205.5 1508.5 2205.5 1507.02C2206.32 1507.02 2207.14 1506.81 2207.75 1506.81 2208.36 1506.59 2208.57 1506.17 2208.57 1505.54L2208.57 1493.89C2208.57 1492.62 2208.36 1491.99 2207.95 1491.78 2207.55 1491.57 2206.73 1491.35 2205.5 1491.35L2205.5 1489.87 2211.64 1489.45 2211.64 1505.54C2211.64 1506.17 2211.84 1506.59 2212.45 1506.81 2212.86 1506.81 2213.68 1507.02 2214.5 1507.02L2214.5 1508.5 2205.5 1508.5ZM2207.14 1482.04C2207.14 1481.41 2207.34 1480.77 2207.95 1480.35 2208.36 1479.92 2208.98 1479.5 2209.39 1479.5 2209.8 1479.5 2210.2 1479.71 2210.61 1479.92 2211.02 1480.14 2211.23 1480.35 2211.43 1480.77 2211.64 1481.19 2211.84 1481.62 2211.84 1482.04 2211.84 1482.68 2211.64 1483.1 2211.02 1483.73 2210.61 1484.16 2210 1484.37 2209.39 1484.37 2208.98 1484.37 2208.36 1484.16 2207.95 1483.73 2207.34 1483.1 2207.14 1482.68 2207.14 1482.04Z" stroke="#000000" stroke-width="0" stroke-linejoin="round" stroke-miterlimit="10" fill="#262626" fill-rule="evenodd"/><path d="M2216.5 1508.5 2216.5 1507.02C2217.56 1507.02 2218.2 1506.81 2218.84 1506.81 2219.48 1506.6 2219.9 1506.18 2219.9 1505.54L2219.9 1493.93C2219.9 1493.09 2219.69 1492.46 2219.48 1492.24 2219.26 1491.82 2218.84 1491.61 2218.41 1491.61 2217.99 1491.4 2217.35 1491.4 2216.5 1491.4L2216.5 1489.92 2222.66 1489.5 2222.66 1493.72C2223.3 1492.46 2224.15 1491.4 2225.43 1490.56 2226.49 1489.92 2227.76 1489.5 2229.04 1489.5 2232.44 1489.5 2234.35 1490.77 2234.99 1493.51 2235.41 1492.24 2236.26 1491.4 2237.54 1490.56 2238.6 1489.71 2239.88 1489.5 2241.15 1489.5 2242.43 1489.5 2243.49 1489.71 2244.34 1490.13 2245.4 1490.56 2246.04 1491.19 2246.46 1492.03 2246.89 1492.88 2247.1 1493.93 2247.1 1495.2L2247.1 1505.54C2247.1 1506.18 2247.53 1506.6 2248.16 1506.81 2248.8 1506.81 2249.44 1507.02 2250.5 1507.02L2250.5 1508.5 2240.51 1508.5 2240.51 1507.02C2241.57 1507.02 2242.43 1506.81 2243.06 1506.81 2243.7 1506.6 2243.91 1506.18 2243.91 1505.54L2243.91 1495.41C2243.91 1493.93 2243.7 1492.67 2243.28 1491.82 2242.85 1490.98 2242.21 1490.56 2240.94 1490.56 2239.24 1490.56 2237.75 1491.19 2236.69 1492.46 2235.62 1493.93 2234.99 1495.41 2234.99 1497.1L2234.99 1505.54C2234.99 1506.18 2235.41 1506.6 2236.05 1506.81 2236.69 1506.81 2237.54 1507.02 2238.39 1507.02L2238.39 1508.5 2228.61 1508.5 2228.61 1507.02C2229.46 1507.02 2230.31 1506.81 2230.95 1506.81 2231.59 1506.6 2232.01 1506.18 2232.01 1505.54L2232.01 1495.41C2232.01 1493.93 2231.8 1492.88 2231.38 1491.82 2230.95 1490.98 2230.1 1490.56 2228.82 1490.56 2227.12 1490.56 2225.64 1491.19 2224.57 1492.46 2223.51 1493.93 2223.09 1495.41 2223.09 1497.1L2223.09 1505.54C2223.09 1506.18 2223.3 1506.6 2223.94 1506.81 2224.57 1506.81 2225.43 1507.02 2226.49 1507.02L2226.49 1508.5 2216.5 1508.5Z" stroke="#000000" stroke-width="0" stroke-linejoin="round" stroke-miterlimit="10" fill="#262626" fill-rule="evenodd"/><path d="M2262.18 1509.5C2260.46 1509.5 2258.74 1509.05 2257.23 1508.16 2255.73 1507.04 2254.65 1505.93 2253.79 1504.14 2252.93 1502.57 2252.5 1500.79 2252.5 1499 2252.5 1497.21 2252.72 1495.65 2253.58 1493.86 2254.44 1492.3 2255.51 1490.96 2256.8 1490.06 2258.31 1489.17 2259.82 1488.5 2261.54 1488.5 2262.83 1488.5 2263.91 1488.72 2264.98 1489.39 2266.06 1489.84 2266.92 1490.51 2267.56 1491.18 2268.21 1492.07 2268.64 1492.97 2268.85 1494.08 2269.28 1495.2 2269.5 1496.54 2269.5 1497.88 2269.5 1498.33 2269.28 1498.55 2268.85 1498.55L2256.16 1498.55 2256.16 1499C2256.16 1501.46 2256.8 1503.69 2257.66 1505.48 2258.74 1507.27 2260.25 1508.16 2262.61 1508.16 2263.47 1508.16 2264.34 1507.94 2264.98 1507.49 2265.84 1507.27 2266.49 1506.6 2266.92 1505.93 2267.56 1505.03 2267.99 1504.36 2268.21 1503.47 2268.21 1503.24 2268.21 1503.24 2268.21 1503.24 2268.42 1503.02 2268.42 1503.02 2268.64 1503.02L2268.85 1503.02C2269.28 1503.02 2269.5 1503.24 2269.5 1503.69 2269.07 1505.26 2268.21 1506.82 2266.7 1507.94 2265.41 1509.05 2263.91 1509.5 2262.18 1509.5ZM2256.37 1497.44 2266.27 1497.44C2266.27 1496.32 2266.27 1494.98 2265.84 1493.86 2265.63 1492.74 2264.98 1491.85 2264.34 1490.96 2263.69 1490.29 2262.61 1489.84 2261.54 1489.84 2259.82 1489.84 2258.53 1490.51 2257.66 1492.3 2256.8 1493.86 2256.37 1495.65 2256.37 1497.44Z" stroke="#000000" stroke-width="0" stroke-linejoin="round" stroke-miterlimit="10" fill="#262626" fill-rule="evenodd"/><path d="M0 0 0.000360892 419" stroke="#262626" stroke-width="2.29167" stroke-linejoin="round" stroke-miterlimit="10" fill="none" fill-rule="evenodd" transform="matrix(1 0 0 -1 1788 1414)"/><path d="M0 0 0.000360892 419" stroke="#262626" stroke-width="2.29167" stroke-linejoin="round" stroke-miterlimit="10" fill="none" fill-rule="evenodd" transform="matrix(1 0 0 -1 2654 1414)"/><path d="M1788 1354 1797 1354" stroke="#262626" stroke-width="2.29167" stroke-linejoin="round" stroke-miterlimit="10" fill="none" fill-rule="evenodd"/><path d="M1788 1055 1797 1055" stroke="#262626" stroke-width="2.29167" stroke-linejoin="round" stroke-miterlimit="10" fill="none" fill-rule="evenodd"/><path d="M0 0 8.99993 0.000360892" stroke="#262626" stroke-width="2.29167" stroke-linejoin="round" stroke-miterlimit="10" fill="none" fill-rule="evenodd" transform="matrix(-1 0 0 1 2654 1354)"/><path d="M0 0 8.99993 0.000360892" stroke="#262626" stroke-width="2.29167" stroke-linejoin="round" stroke-miterlimit="10" fill="none" fill-rule="evenodd" transform="matrix(-1 0 0 1 2654 1055)"/><path d="M1769 1364.5C1765.64 1364.5 1763.41 1363.23 1762.29 1360.7 1761.17 1358.16 1760.5 1355.2 1760.5 1351.61 1760.5 1349.49 1760.72 1347.38 1761.17 1345.48 1761.62 1343.36 1762.29 1341.88 1763.63 1340.4 1764.97 1339.13 1766.76 1338.5 1769 1338.5 1770.79 1338.5 1772.13 1338.92 1773.25 1339.56 1774.37 1340.4 1775.26 1341.46 1775.93 1342.73 1776.38 1344 1776.83 1345.48 1777.05 1346.96 1777.28 1348.43 1777.5 1349.91 1777.5 1351.61 1777.5 1353.72 1777.28 1355.83 1776.83 1357.74 1776.38 1359.64 1775.49 1361.33 1774.37 1362.6 1773.03 1363.87 1771.24 1364.5 1769 1364.5ZM1769 1363.65C1770.34 1363.65 1771.46 1362.81 1772.36 1361.33 1773.03 1360.06 1773.47 1358.37 1773.7 1356.68 1773.92 1354.78 1773.92 1352.87 1773.92 1350.97 1773.92 1349.07 1773.92 1347.38 1773.7 1345.69 1773.47 1344 1773.03 1342.73 1772.36 1341.25 1771.68 1339.98 1770.57 1339.35 1769 1339.35 1767.43 1339.35 1766.32 1339.98 1765.64 1341.25 1764.75 1342.73 1764.3 1344.21 1764.3 1345.69 1764.08 1347.38 1764.08 1349.07 1764.08 1350.97 1764.08 1352.45 1764.08 1353.72 1764.08 1354.99 1764.08 1356.26 1764.3 1357.52 1764.75 1358.79 1764.97 1360.27 1765.42 1361.33 1766.09 1362.17 1766.99 1363.23 1767.88 1363.65 1769 1363.65Z" stroke="#000000" stroke-width="0" stroke-linejoin="round" stroke-miterlimit="10" fill="#262626" fill-rule="evenodd"/><path d="M1750.94 1065.5C1750.5 1065.5 1750.5 1065.28 1750.5 1064.85 1750.5 1064.2 1750.72 1063.98 1750.94 1063.98 1752.02 1063.98 1752.9 1063.76 1753.77 1063.33 1754.42 1062.9 1755.07 1062.24 1755.73 1061.38 1755.73 1061.38 1755.73 1061.38 1755.73 1061.38L1769.88 1037.93C1769.88 1037.5 1770.31 1037.5 1770.53 1037.5L1770.97 1037.5C1771.19 1037.5 1771.19 1037.5 1771.19 1037.5 1771.4 1037.5 1771.4 1037.5 1771.4 1037.72 1771.62 1037.72 1771.62 1037.72 1771.62 1037.93L1774.02 1063.11C1774.02 1063.11 1774.02 1063.33 1774.02 1063.55 1774.45 1063.98 1775.32 1063.98 1777.06 1063.98 1777.28 1063.98 1777.5 1064.2 1777.5 1064.63 1777.28 1064.85 1777.28 1065.07 1777.28 1065.28 1777.06 1065.28 1777.06 1065.5 1776.85 1065.5L1767.05 1065.5C1766.83 1065.5 1766.61 1065.28 1766.61 1064.85 1766.83 1064.2 1766.83 1063.98 1767.05 1063.98 1769.23 1063.98 1770.31 1063.76 1770.31 1062.9L1769.88 1056.6 1760.08 1056.6 1757.03 1061.81C1756.81 1062.03 1756.81 1062.46 1756.81 1062.68 1756.81 1063.11 1757.03 1063.55 1757.47 1063.76 1757.9 1063.98 1758.34 1063.98 1758.77 1063.98 1758.99 1063.98 1759.21 1064.2 1759.21 1064.63 1759.21 1064.85 1758.99 1065.07 1758.99 1065.28 1758.99 1065.28 1758.77 1065.5 1758.56 1065.5L1750.94 1065.5ZM1760.95 1055.08 1769.66 1055.08 1768.57 1042.49 1760.95 1055.08Z" stroke="#000000" stroke-width="0" stroke-linejoin="round" stroke-miterlimit="10" fill="#262626" fill-rule="evenodd"/><path d="M1721.91 1240.87C1721.26 1240.87 1720.62 1240.87 1719.76 1240.66 1718.9 1240.45 1718.25 1240.24 1717.61 1240.02 1716.96 1239.81 1716.1 1239.6 1714.81 1239.17 1713.52 1238.53 1712.88 1238.32 1712.66 1238.32 1711.59 1237.89 1710.73 1237.68 1710.08 1237.68 1709.22 1237.68 1708.79 1238.1 1708.79 1238.74 1708.79 1239.81 1709.44 1240.87 1710.51 1241.51 1711.8 1242.37 1713.09 1242.79 1714.6 1243.22 1714.81 1243.22 1714.81 1243.43 1714.81 1243.65L1714.81 1244.07C1714.81 1244.29 1714.6 1244.5 1714.38 1244.5L1714.17 1244.5C1712.45 1243.86 1710.94 1243.22 1709.65 1242.37 1708.36 1241.3 1707.71 1240.02 1707.71 1238.74 1707.71 1237.68 1707.93 1236.82 1708.58 1235.97 1709.44 1235.33 1710.3 1234.9 1711.37 1234.9 1711.8 1234.9 1712.45 1235.12 1712.88 1235.33 1713.95 1235.54 1715.03 1235.97 1716.1 1236.4 1717.39 1237.04 1718.47 1237.25 1719.54 1237.68 1720.62 1237.89 1721.48 1237.89 1722.55 1237.89 1723.63 1237.89 1724.49 1237.68 1725.35 1237.04 1725.99 1236.4 1726.42 1235.54 1726.42 1234.48 1726.42 1232.99 1725.13 1231.71 1722.77 1230.64 1722.55 1230.64 1722.34 1230.64 1722.12 1230.64 1721.26 1230.64 1720.4 1230.64 1719.33 1230.43L1709.44 1227.87C1709.22 1227.87 1708.79 1227.65 1708.58 1227.23 1708.15 1226.8 1708.15 1226.38 1708.15 1225.95 1708.15 1225.74 1708.15 1225.31 1708.36 1225.1 1708.58 1224.88 1709.01 1224.67 1709.44 1224.67 1709.44 1224.67 1709.65 1224.88 1709.65 1224.88L1719.54 1227.23C1720.62 1227.44 1721.69 1227.65 1722.55 1227.65 1723.63 1227.65 1724.7 1227.44 1725.35 1227.01 1725.99 1226.38 1726.42 1225.74 1726.42 1224.67 1726.42 1222.75 1725.13 1221.04 1722.55 1219.98 1721.69 1219.55 1720.4 1218.91 1718.68 1218.49 1716.96 1217.85 1715.67 1217.63 1714.81 1217.63 1713.95 1217.63 1713.31 1217.63 1712.66 1218.06 1712.23 1218.27 1711.8 1218.7 1711.16 1219.12 1710.51 1219.55 1710.08 1219.76 1709.87 1219.76 1709.22 1219.76 1708.79 1219.55 1708.36 1219.12 1707.71 1218.7 1707.5 1218.06 1707.5 1217.63 1707.5 1216.78 1707.93 1216.35 1708.58 1215.93 1709.22 1215.71 1709.87 1215.5 1710.73 1215.5 1711.8 1215.5 1712.88 1215.71 1714.6 1216.14 1716.1 1216.35 1717.61 1216.78 1719.11 1217.21 1720.62 1217.85 1721.91 1218.27 1722.77 1218.7 1725.99 1220.19 1727.5 1222.32 1727.5 1224.67 1727.5 1225.95 1727.28 1227.01 1726.85 1227.87 1726.42 1228.93 1725.56 1229.79 1724.49 1230.21 1725.35 1230.64 1725.99 1231.28 1726.64 1231.92 1727.28 1232.77 1727.5 1233.62 1727.5 1234.48 1727.5 1236.4 1727.07 1237.89 1726.21 1239.17 1725.13 1240.24 1723.84 1240.87 1721.91 1240.87Z" stroke="#000000" stroke-width="0" stroke-linejoin="round" stroke-miterlimit="10" fill="#262626" fill-rule="evenodd"/><path d="M1737.29 1200.54C1736.02 1202 1734.55 1203.46 1733.07 1204.5 1731.39 1205.75 1729.7 1206.58 1727.8 1207.42 1725.91 1208.04 1724.01 1208.67 1722.11 1209.08 1720.01 1209.29 1717.9 1209.5 1716 1209.5 1713.89 1209.5 1711.78 1209.29 1709.89 1209.08 1707.78 1208.67 1705.88 1208.04 1703.99 1207.42 1702.09 1206.58 1700.4 1205.75 1698.72 1204.5 1697.24 1203.46 1695.76 1202 1694.5 1200.54 1694.5 1200.54 1694.5 1200.33 1694.5 1200.33L1694.5 1199.92C1694.5 1199.71 1694.5 1199.71 1694.5 1199.71 1694.71 1199.5 1694.71 1199.5 1694.92 1199.5 1694.92 1199.5 1694.92 1199.5 1695.13 1199.71 1696.4 1200.96 1697.87 1202.21 1699.56 1203.04 1701.03 1204.08 1702.72 1204.71 1704.62 1205.33 1706.3 1205.96 1708.2 1206.38 1710.1 1206.58 1712 1206.79 1713.89 1207 1716 1207 1725.06 1207 1732.02 1204.5 1736.66 1199.71 1736.87 1199.5 1736.87 1199.5 1737.08 1199.5 1737.08 1199.5 1737.29 1199.5 1737.29 1199.71 1737.5 1199.71 1737.5 1199.92 1737.5 1199.92L1737.5 1200.33C1737.5 1200.33 1737.5 1200.54 1737.29 1200.54Z" stroke="#000000" stroke-width="0" stroke-linejoin="round" stroke-miterlimit="10" fill="#262626" fill-rule="evenodd"/><path d="M1723.41 1194.72C1722.98 1194.72 1722.55 1194.72 1722.33 1194.5L1709.62 1191.17 1709.62 1196.06C1709.62 1196.28 1709.41 1196.5 1708.98 1196.5 1708.33 1196.28 1708.12 1196.28 1708.12 1195.83L1708.12 1190.94 1700.79 1189.17C1700.58 1188.94 1700.15 1188.72 1699.93 1188.28 1699.72 1188.06 1699.5 1187.61 1699.5 1187.17 1699.5 1186.72 1699.72 1186.5 1699.93 1186.06 1700.15 1185.83 1700.36 1185.83 1700.79 1185.83 1700.79 1185.83 1700.79 1185.83 1701.01 1185.83 1701.01 1185.83 1701.01 1185.83 1701.01 1185.83L1708.12 1187.61 1708.12 1182.94C1708.12 1182.72 1708.33 1182.5 1708.55 1182.5 1708.76 1182.5 1708.76 1182.5 1708.98 1182.5 1709.19 1182.72 1709.41 1182.72 1709.41 1182.72 1709.62 1182.94 1709.62 1182.94 1709.62 1183.17L1709.62 1188.06 1722.33 1191.39C1723.19 1191.61 1723.84 1191.61 1724.48 1191.61 1725.78 1191.61 1726.42 1191.17 1726.42 1190.28 1726.42 1188.94 1725.78 1187.83 1724.48 1186.72 1723.41 1185.83 1721.9 1184.94 1720.61 1184.5 1720.39 1184.28 1720.39 1184.28 1720.39 1184.06L1720.39 1183.61C1720.39 1183.39 1720.39 1183.39 1720.39 1183.17 1720.61 1183.17 1720.61 1183.17 1720.61 1183.17 1720.82 1183.17 1720.82 1183.17 1720.82 1183.17 1722.55 1183.83 1724.05 1184.72 1725.56 1186.06 1726.85 1187.39 1727.5 1188.72 1727.5 1190.5 1727.5 1191.61 1727.07 1192.72 1726.42 1193.39 1725.56 1194.28 1724.7 1194.72 1723.41 1194.72Z" stroke="#000000" stroke-width="0" stroke-linejoin="round" stroke-miterlimit="10" fill="#262626" fill-rule="evenodd"/><path d="M1737.5 1178.08C1737.5 1178.29 1737.29 1178.5 1737.08 1178.5 1736.87 1178.5 1736.87 1178.5 1736.87 1178.5 1732.02 1173.5 1725.06 1171.21 1716 1171.21 1706.73 1171.21 1699.98 1173.5 1695.13 1178.29 1695.13 1178.5 1694.92 1178.5 1694.92 1178.5 1694.71 1178.5 1694.71 1178.5 1694.5 1178.29 1694.5 1178.29 1694.5 1178.29 1694.5 1178.08L1694.5 1177.67C1694.5 1177.67 1694.5 1177.46 1694.5 1177.46 1696.19 1175.37 1698.08 1173.71 1700.4 1172.46 1702.72 1171 1705.25 1170.17 1707.78 1169.54 1710.52 1168.71 1713.26 1168.5 1716 1168.5 1717.9 1168.5 1720.01 1168.71 1721.9 1168.92 1723.8 1169.33 1725.91 1169.96 1727.8 1170.58 1729.7 1171.42 1731.39 1172.25 1733.07 1173.5 1734.76 1174.54 1736.02 1176 1737.29 1177.46 1737.5 1177.46 1737.5 1177.67 1737.5 1177.67L1737.5 1178.08Z" stroke="#000000" stroke-width="0" stroke-linejoin="round" stroke-miterlimit="10" fill="#262626" fill-rule="evenodd"/><path d="M1788.5 1354.5 1788.5 1354.5 1788.5 1354.5 1789.07 1354.5 1789.07 1354.5 1789.07 1354.5 1789.07 1354.5 1789.65 1354.5 1789.65 1354.5 1789.65 1354.5 1790.22 1354.5 1790.22 1354.5 1790.22 1354.5 1790.79 1354.5 1790.79 1354.5 1790.79 1354.5 1791.37 1354.5 1791.37 1354.5 1791.37 1354.5 1791.37 1354.5 1791.94 1354.5 1791.94 1354.5 1791.94 1354.5 1792.51 1354.5 1792.51 1354.5 1792.51 1354.5 1793.09 1354.5 1793.09 1354.5 1793.09 1354.5 1793.09 1354.5 1793.66 1354.5 1793.66 1354.5 1793.66 1354.5 1794.23 1354.5 1794.23 1354.5 1794.23 1354.5 1794.8 1354.5 1794.8 1354.5 1794.8 1354.5 1794.8 1354.5 1795.38 1354.5 1795.38 1354.5 1795.38 1354.5 1795.95 1354.5 1795.95 1354.5 1795.95 1354.5 1796.52 1354.5 1796.52 1354.5 1796.52 1354.5 1796.52 1354.5 1797.1 1354.5 1797.1 1354.5 1797.1 1354.5 1797.67 1354.5 1797.67 1354.5 1797.67 1354.5 1798.24 1354.5 1798.24 1354.5 1798.24 1354.5 1798.24 1354.5 1798.82 1354.5 1798.82 1354.5 1798.82 1354.5 1799.39 1354.5 1799.39 1354.5 1799.39 1354.5 1799.96 1354.5 1799.96 1354.5 1799.96 1354.5 1800.54 1354.5 1800.54 1354.5 1800.54 1354.5 1800.54 1354.5 1801.11 1354.5 1801.11 1354.5 1801.11 1354.5 1801.68 1354.5 1801.68 1354.5 1801.68 1354.5 1802.26 1354.5 1802.26 1354.5 1802.26 1354.5 1802.83 1354.5 1802.83 1354.5 1802.83 1354.5 1802.83 1354.5 1803.4 1354.5 1803.4 1354.5 1803.4 1354.5 1803.97 1354.5 1803.97 1354.5 1803.97 1354.5 1804.55 1354.5 1804.55 1354.5 1804.55 1354.5 1804.55 1354.5 1805.12 1354.5 1805.12 1354.5 1805.12 1354.5 1805.69 1354.5 1805.69 1354.5 1805.69 1354.5 1806.27 1354.5 1806.27 1354.5 1806.27 1354.5 1806.27 1354.5 1806.84 1354.5 1806.84 1354.5 1806.84 1354.5 1807.41 1354.5 1807.41 1354.5 1807.41 1354.5 1807.99 1354.5 1807.99 1354.5 1807.99 1354.5 1807.99 1354.5 1808.56 1354.5 1808.56 1354.5 1808.56 1354.5 1809.13 1354.5 1809.13 1354.5 1809.13 1354.5 1809.71 1354.5 1809.71 1354.5 1809.71 1354.5 1809.71 1354.5 1810.28 1354.5 1810.28 1354.5 1810.28 1354.5 1810.85 1354.5 1810.85 1354.5 1810.85 1354.5 1811.43 1354.5 1811.43 1354.5 1811.43 1354.5 1811.43 1354.5 1812 1354.5 1812 1354.5 1812.57 1354.5 1812.57 1354.5 1812.57 1354.5 1812.57 1354.5 1813.14 1354.5 1813.14 1354.5 1813.14 1354.5 1813.14 1354.5 1813.72 1354.5 1813.72 1354.5 1814.29 1354.5 1814.29 1354.5 1814.29 1354.5 1814.29 1354.5 1814.86 1354.5 1814.86 1354.5 1814.86 1354.5 1814.86 1354.5 1815.44 1354.5 1815.44 1354.5 1816.01 1354.5 1816.01 1354.5 1816.01 1354.5 1816.01 1354.5 1816.58 1354.5 1816.58 1354.5 1816.58 1354.5 1816.58 1354.5 1817.16 1354.5 1817.16 1354.5 1817.73 1354.5 1817.73 1354.5 1817.73 1354.5 1817.73 1354.5 1818.3 1354.5 1818.3 1354.5 1818.3 1354.5 1818.3 1354.5 1818.88 1354.5 1818.88 1354.5 1819.45 1354.5 1819.45 1354.5 1819.45 1354.5 1819.45 1354.5 1820.02 1354.5 1820.02 1354.5 1820.02 1354.5 1820.02 1354.5 1820.6 1354.5 1820.6 1354.5 1821.17 1354.5 1821.17 1354.5 1821.17 1354.5 1821.17 1354.5 1821.74 1354.5 1821.74 1354.5 1821.74 1354.5 1821.74 1354.5 1822.31 1354.5 1822.31 1354.5 1822.89 1354.5 1822.89 1354.5 1822.89 1354.5 1822.89 1354.5 1823.46 1354.5 1823.46 1354.5 1824.03 1354.5 1824.03 1354.5 1824.03 1354.5 1824.03 1354.5 1824.61 1354.5 1824.61 1354.5 1824.61 1354.5 1824.61 1354.5 1825.18 1354.5 1825.18 1354.5 1825.75 1354.5 1825.75 1354.5 1825.75 1354.5 1825.75 1354.5 1826.33 1354.5 1826.33 1354.5 1826.33 1354.5 1826.33 1354.5 1826.9 1354.5 1826.9 1354.5 1827.47 1354.5 1827.47 1354.5 1827.47 1354.5 1827.47 1354.5 1828.05 1354.5 1828.05 1354.5 1828.05 1354.5 1828.05 1354.5 1828.62 1354.5 1828.62 1354.5 1829.19 1354.5 1829.19 1354.5 1829.19 1354.5 1829.19 1354.5 1829.77 1354.5 1829.77 1354.5 1829.77 1354.5 1829.77 1354.5 1830.34 1354.5 1830.34 1354.5 1830.91 1354.5 1830.91 1354.5 1830.91 1354.5 1830.91 1354.5 1831.48 1354.5 1831.48 1354.5 1831.48 1354.5 1831.48 1354.5 1832.06 1354.5 1832.06 1354.5 1832.63 1354.5 1832.63 1354.5 1832.63 1354.5 1832.63 1354.5 1833.2 1354.5 1833.2 1354.5 1833.2 1354.5 1833.2 1354.5 1833.78 1354.5 1833.78 1354.5 1834.35 1354.5 1834.35 1354.5 1834.35 1354.5 1834.35 1354.5 1834.92 1354.5 1834.92 1354.5 1834.92 1354.5 1834.92 1354.5 1835.5 1354.5 1835.5 1354.5 1836.07 1354.5 1836.07 1354.5 1836.07 1354.5 1836.07 1354.5 1836.64 1354.5 1836.64 1354.5 1836.64 1354.5 1836.64 1354.5 1837.22 1354.5 1837.22 1354.5 1837.79 1354.5 1837.79 1354.5 1837.79 1354.5 1837.79 1354.5 1838.36 1354.5 1838.36 1354.5 1838.36 1354.5 1838.36 1354.5 1838.94 1354.5 1838.94 1354.5 1839.51 1354.5 1839.51 1354.5 1839.51 1354.5 1839.51 1354.5 1840.08 1354.5 1840.08 1354.5 1840.08 1354.5 1840.08 1354.5 1840.65 1354.5 1840.65 1354.5 1841.23 1354.5 1841.23 1354.5 1841.23 1354.5 1841.23 1354.5 1841.8 1354.5 1841.8 1354.5 1841.8 1354.5 1841.8 1354.5 1842.37 1354.5 1842.37 1354.5 1842.95 1354.5 1842.95 1354.5 1842.95 1354.5 1842.95 1354.5 1843.52 1354.5 1843.52 1354.5 1843.52 1354.5 1843.52 1354.5 1844.09 1354.5 1844.09 1354.5 1844.67 1354.5 1844.67 1354.5 1844.67 1354.5 1844.67 1354.5 1845.24 1354.5 1845.24 1354.5 1845.24 1354.5 1845.81 1354.5 1845.81 1354.5 1845.81 1354.5 1846.39 1354.5 1846.39 1354.5 1846.39 1354.5 1846.39 1354.5 1846.96 1354.5 1846.96 1354.5 1847.53 1354.5 1847.53 1354.5 1847.53 1354.5 1847.53 1354.5 1848.11 1354.5 1848.11 1354.5 1848.11 1354.5 1848.11 1354.5 1848.68 1354.5 1848.68 1354.5 1849.25 1354.5 1849.25 1354.5 1849.25 1354.5 1849.25 1354.5 1849.82 1354.5 1849.82 1354.5 1849.82 1354.5 1849.82 1354.5 1850.4 1354.5 1850.4 1354.5 1850.97 1354.5 1850.97 1354.5 1850.97 1354.5 1850.97 1354.5 1851.54 1354.5 1851.54 1354.5 1851.54 1354.5 1851.54 1354.5 1852.12 1354.5 1852.12 1354.5 1852.69 1354.5 1852.69 1354.5 1852.69 1354.5 1852.69 1354.5 1853.26 1354.5 1853.26 1354.5 1853.26 1354.5 1853.26 1354.5 1853.84 1354.5 1853.84 1354.5 1854.41 1354.5 1854.41 1354.5 1854.41 1354.5 1854.41 1354.5 1854.98 1354.5 1854.98 1354.5 1854.98 1354.5 1855.56 1354.5 1855.56 1354.5 1855.56 1354.5 1856.13 1354.5 1856.13 1354.5 1856.13 1354.5 1856.13 1354.5 1856.7 1354.5 1856.7 1354.5 1856.7 1354.5 1857.28 1354.5 1857.28 1354.5 1857.28 1354.5 1857.85 1354.5 1857.85 1354.5 1857.85 1354.5 1857.85 1354.5 1858.42 1354.5 1858.42 1354.5 1858.42 1354.5 1858.99 1354.5 1858.99 1354.5 1858.99 1354.5 1859.57 1354.5 1859.57 1354.5 1859.57 1354.5 1859.57 1354.5 1860.14 1354.5 1860.14 1354.5 1860.14 1354.5 1860.71 1354.5 1860.71 1354.5 1860.71 1354.5 1861.29 1354.5 1861.29 1354.5 1861.29 1354.5 1861.29 1354.5 1861.86 1354.5 1861.86 1354.5 1861.86 1354.5 1862.43 1354.5 1862.43 1354.5 1862.43 1354.5 1863.01 1354.5 1863.01 1354.5 1863.01 1354.5 1863.01 1354.5 1863.58 1354.5 1863.58 1354.5 1863.58 1354.5 1864.15 1354.5 1864.15 1354.5 1864.15 1354.5 1864.73 1354.5 1864.73 1354.5 1864.73 1354.5 1864.73 1354.5 1865.3 1354.5 1865.3 1354.5 1865.3 1354.5 1865.87 1354.5 1865.87 1354.5 1865.87 1354.5 1866.45 1354.5 1866.45 1354.5 1866.45 1354.5 1867.02 1354.5 1867.02 1354.5 1867.02 1354.5 1867.02 1354.5 1867.59 1354.5 1867.59 1354.5 1867.59 1354.5 1868.17 1354.5 1868.17 1354.5 1868.17 1354.5 1868.74 1354.5 1868.74 1354.5 1868.74 1354.5 1869.31 1354.5 1869.31 1354.5 1869.31 1354.5 1869.31 1354.5 1869.88 1354.5 1869.88 1354.5 1869.88 1354.5 1870.46 1354.5 1870.46 1354.5 1870.46 1354.5 1871.03 1354.5 1871.03 1354.5 1871.03 1354.5 1871.03 1354.5 1871.6 1354.5 1871.6 1354.5 1871.6 1354.5 1872.18 1354.5 1872.18 1354.5 1872.18 1354.5 1872.75 1354.5 1872.75 1354.5 1872.75 1354.5 1872.75 1354.5 1873.32 1354.5 1873.32 1354.5 1873.32 1354.5 1873.9 1354.5 1873.9 1354.5 1873.9 1354.5 1874.47 1354.5 1874.47 1354.5 1874.47 1354.5 1874.47 1354.5 1875.04 1354.5 1875.04 1354.5 1875.04 1354.5 1875.62 1354.5 1875.62 1354.5 1875.62 1354.5 1876.19 1354.5 1876.19 1354.5 1876.19 1354.5 1876.19 1354.5 1876.76 1354.5 1876.76 1354.5 1876.76 1354.5 1877.34 1354.5 1877.34 1354.5 1877.34 1354.5 1877.91 1354.5 1877.91 1354.5 1877.91 1354.5 1878.48 1354.5 1878.48 1354.5 1878.48 1354.5 1878.48 1354.5 1879.05 1354.5 1879.05 1354.5 1879.05 1354.5 1879.63 1354.5 1879.63 1354.5 1879.63 1354.5 1880.2 1354.5 1880.2 1354.5 1880.2 1354.5 1880.2 1354.5 1880.77 1354.5 1880.77 1354.5 1880.77 1354.5 1881.35 1354.5 1881.35 1354.5 1881.35 1354.5 1881.92 1354.5 1881.92 1354.5 1881.92 1354.5 1881.92 1354.5 1882.49 1354.5 1882.49 1354.5 1882.49 1354.5 1883.07 1354.5 1883.07 1354.5 1883.07 1354.5 1883.64 1354.5 1883.64 1354.5 1883.64 1354.5 1883.64 1354.5 1884.21 1354.5 1884.21 1354.5 1884.21 1354.5 1884.79 1354.5 1884.79 1354.5 1884.79 1354.5 1885.36 1354.5 1885.36 1354.5 1885.36 1354.5 1885.36 1354.5 1885.93 1354.5 1885.93 1354.5 1885.93 1354.5 1886.51 1354.5 1886.51 1354.5 1886.51 1354.5 1887.08 1354.5 1887.08 1354.5 1887.08 1354.5 1887.08 1354.5 1887.65 1354.5 1887.65 1354.5 1888.22 1354.5 1888.22 1354.5 1888.22 1354.5 1888.22 1354.5 1888.8 1354.5 1888.8 1354.5 1888.8 1354.5 1888.8 1354.5 1889.37 1354.5 1889.37 1354.5 1889.94 1354.5 1889.94 1354.5 1889.94 1354.5 1889.94 1354.5 1890.52 1354.5 1890.52 1354.5 1890.52 1354.5 1890.52 1354.5 1891.09 1354.5 1891.09 1354.5 1891.66 1354.5 1891.66 1354.5 1891.66 1354.5 1891.66 1354.5 1892.24 1354.5 1892.24 1354.5 1892.24 1354.5 1892.81 1354.5 1892.81 1354.5 1892.81 1354.5 1893.38 1354.5 1893.38 1354.5 1893.38 1354.5 1893.38 1354.5 1893.96 1354.5 1893.96 1354.5 1893.96 1354.5 1894.53 1354.5 1894.53 1354.5 1894.53 1354.5 1895.1 1354.5 1895.1 1354.5 1895.1 1354.5 1895.1 1354.5 1895.68 1354.5 1895.68 1354.5 1895.68 1354.5 1896.25 1354.5 1896.25 1354.5 1896.25 1354.5 1896.82 1354.5 1896.82 1354.5 1896.82 1354.5 1896.82 1354.5 1897.39 1354.5 1897.39 1354.5 1897.39 1354.5 1897.97 1354.5 1897.97 1354.5 1897.97 1354.5 1898.54 1354.5 1898.54 1354.5 1898.54 1354.5 1898.54 1354.5 1899.11 1354.5 1899.11 1354.5 1899.69 1354.5 1899.69 1354.5 1899.69 1354.5 1899.69 1354.5 1900.26 1354.5 1900.26 1354.5 1900.26 1354.5 1900.26 1354.5 1900.83 1354.5 1900.83 1354.5 1901.41 1354.5 1901.41 1354.5 1901.41 1354.5 1901.41 1354.5 1901.98 1354.5 1901.98 1354.5 1901.98 1354.5 1901.98 1354.5 1902.55 1354.5 1902.55 1354.5 1903.13 1354.5 1903.13 1354.5 1903.13 1354.5 1903.13 1354.5 1903.7 1354.5 1903.7 1354.5 1903.7 1354.5 1903.7 1354.5 1904.27 1354.5 1904.27 1354.5 1904.85 1354.5 1904.85 1354.5 1904.85 1354.5 1904.85 1354.5 1905.42 1354.5 1905.42 1354.5 1905.42 1354.5 1905.42 1354.5 1905.99 1354.5 1905.99 1354.5 1906.56 1354.5 1906.56 1354.5 1906.56 1354.5 1906.56 1354.5 1907.14 1354.5 1907.14 1354.5 1907.14 1354.5 1907.14 1354.5 1907.71 1354.5 1907.71 1354.5 1908.28 1354.5 1908.28 1354.5 1908.28 1354.5 1908.28 1354.5 1908.86 1354.5 1908.86 1354.5 1908.86 1354.5 1908.86 1354.5 1909.43 1354.5 1909.43 1354.5 1910 1354.5 1910 1354.5 1910 1354.5 1910 1354.5 1910.58 1354.5 1910.58 1354.5 1910.58 1354.5 1910.58 1354.5 1911.15 1354.5 1911.15 1354.5 1911.72 1354.5 1911.72 1354.5 1911.72 1354.5 1911.72 1354.5 1912.3 1354.5 1912.3 1354.5 1912.3 1354.5 1912.3 1354.5 1912.87 1354.5 1912.87 1354.5 1913.44 1354.5 1913.44 1354.5 1913.44 1354.5 1913.44 1354.5 1914.02 1354.5 1914.02 1354.5 1914.02 1354.5 1914.02 1354.5 1914.59 1354.5 1914.59 1354.5 1915.16 1354.5 1915.16 1354.5 1915.16 1354.5 1915.16 1354.5 1915.73 1354.5 1915.73 1354.5 1916.31 1354.5 1916.31 1354.5 1916.31 1354.5 1916.31 1354.5 1916.88 1354.5 1916.88 1354.5 1916.88 1354.5 1916.88 1354.5 1917.45 1354.5 1917.45 1354.5 1918.03 1354.5 1918.03 1354.5 1918.03 1354.5 1918.03 1354.5 1918.6 1354.5 1918.6 1354.5 1918.6 1354.5 1918.6 1354.5 1919.17 1354.5 1919.17 1354.5 1919.75 1354.5 1919.75 1354.5 1919.75 1354.5 1919.75 1354.5 1920.32 1354.5 1920.32 1354.5 1920.32 1354.5 1920.32 1354.5 1920.89 1354.5 1920.89 1354.5 1921.47 1354.5 1921.47 1354.5 1921.47 1354.5 1921.47 1354.5 1922.04 1354.5 1922.04 1354.5 1922.04 1354.5 1922.04 1354.5 1922.61 1354.5 1922.61 1354.5 1923.19 1354.5 1923.19 1354.5 1923.19 1354.5 1923.19 1354.5 1923.76 1354.5 1923.76 1354.5 1923.76 1354.5 1923.76 1354.5 1924.33 1354.5 1924.33 1354.5 1924.91 1354.5 1924.91 1354.5 1924.91 1354.5 1924.91 1354.5 1925.48 1354.5 1925.48 1354.5 1925.48 1354.5 1925.48 1354.5 1926.05 1354.5 1926.05 1354.5 1926.62 1354.5 1926.62 1354.5 1926.62 1354.5 1926.62 1354.5 1927.2 1354.5 1927.2 1354.5 1927.2 1354.5 1927.2 1354.5 1927.77 1354.5 1927.77 1354.5 1928.34 1354.5 1928.34 1354.5 1928.34 1354.5 1928.34 1354.5 1928.92 1354.5 1928.92 1354.5 1928.92 1354.5 1928.92 1354.5 1929.49 1354.5 1929.49 1354.5 1930.06 1354.5 1930.06 1354.5 1930.06 1354.5 1930.06 1354.5 1930.64 1354.5 1930.64 1354.5 1930.64 1354.5 1931.21 1354.5 1931.21 1354.5 1931.21 1354.5 1931.78 1354.5 1931.78 1354.5 1931.78 1354.5 1931.78 1354.5 1932.36 1354.5 1932.36 1354.5 1932.36 1354.5 1932.93 1354.5 1932.93 1354.5 1932.93 1354.5 1933.5 1354.5 1933.5 1354.5 1933.5 1354.5 1933.5 1354.5 1934.08 1354.5 1934.08 1354.5 1934.08 1354.5 1934.65 1354.5 1934.65 1354.5 1934.65 1354.5 1935.22 1354.5 1935.22 1354.5 1935.22 1354.5 1935.22 1354.5 1935.79 1354.5 1935.79 1354.5 1935.79 1354.5 1936.37 1354.5 1936.37 1354.5 1936.37 1354.5 1936.94 1354.5 1936.94 1354.5 1936.94 1354.5 1936.94 1354.5 1937.51 1354.5 1937.51 1354.5 1937.51 1354.5 1938.09 1354.5 1938.09 1354.5 1938.09 1354.5 1938.66 1354.5 1938.66 1354.5 1938.66 1354.5 1938.66 1354.5 1939.23 1354.5 1939.23 1354.5 1939.81 1354.5 1939.81 1354.5 1939.81 1354.5 1939.81 1354.5 1940.38 1354.5 1940.38 1354.5 1940.38 1354.5 1940.38 1354.5 1940.95 1354.5 1940.95 1354.5 1941.53 1354.5 1941.53 1354.5 1941.53 1354.5 1941.53 1354.5 1942.1 1354.5 1942.1 1354.5 1942.1 1354.5 1942.67 1354.5 1942.67 1354.5 1942.67 1354.5 1943.25 1354.5 1943.25 1354.5 1943.25 1354.5 1943.25 1354.5 1943.82 1354.5 1943.82 1354.5 1943.82 1354.5 1944.39 1354.5 1944.39 1354.5 1944.39 1354.5 1944.96 1354.5 1944.96 1354.5 1944.96 1354.5 1944.96 1354.5 1945.54 1354.5 1945.54 1354.5 1945.54 1354.5 1946.11 1354.5 1946.11 1354.5 1946.11 1354.5 1946.68 1354.5 1946.68 1354.5 1946.68 1354.5 1946.68 1354.5 1947.26 1354.5 1947.26 1354.5 1947.26 1354.5 1947.83 1354.5 1947.83 1354.5 1947.83 1354.5 1948.4 1354.5 1948.4 1354.5 1948.4 1354.5 1948.4 1354.5 1948.98 1354.5 1948.98 1354.5 1948.98 1354.5 1949.55 1354.5 1949.55 1354.5 1949.55 1354.5 1950.12 1354.5 1950.12 1354.5 1950.12 1354.5 1950.12 1354.5 1950.7 1354.5 1950.7 1354.5 1950.7 1354.5 1951.27 1354.5 1951.27 1354.5 1951.27 1354.5 1951.84 1354.5 1951.84 1354.5 1951.84 1354.5 1951.84 1354.5 1952.42 1354.5 1952.42 1354.5 1952.42 1354.5 1952.99 1354.5 1952.99 1354.5 1952.99 1354.5 1953.56 1354.5 1953.56 1354.5 1953.56 1354.5 1954.13 1354.5 1954.13 1354.5 1954.13 1354.5 1954.13 1354.5 1954.71 1354.5 1954.71 1354.5 1954.71 1354.5 1955.28 1354.5 1955.28 1354.5 1955.28 1354.5 1955.85 1354.5 1955.85 1354.5 1955.85 1354.5 1955.85 1354.5 1956.43 1354.5 1956.43 1354.5 1956.43 1354.5 1957 1354.5 1957 1354.5 1957 1354.5 1957.57 1354.5 1957.57 1354.5 1957.57 1354.5 1957.57 1354.5 1958.15 1354.5 1958.15 1354.5 1958.15 1354.5 1958.72 1354.5 1958.72 1354.5 1958.72 1354.5 1959.29 1354.5 1959.29 1354.5 1959.29 1354.5 1959.29 1354.5 1959.87 1354.5 1959.87 1354.5 1959.87 1354.5 1960.44 1354.5 1960.44 1354.5 1960.44 1354.5 1961.01 1354.5 1961.01 1354.5 1961.01 1354.5 1961.59 1354.5 1961.59 1354.5 1961.59 1354.5 1961.59 1354.5 1962.16 1354.5 1962.16 1354.5 1962.16 1354.5 1962.73 1354.5 1962.73 1354.5 1962.73 1354.5 1963.3 1354.5 1963.3 1354.5 1963.3 1354.5 1963.88 1354.5 1963.88 1354.5 1963.88 1354.5 1963.88 1354.5 1964.45 1354.5 1964.45 1354.5 1964.45 1354.5 1965.02 1354.5 1965.02 1354.5 1965.02 1354.5 1965.6 1354.5 1965.6 1354.5 1965.6 1354.5 1965.6 1354.5 1966.17 1354.5 1966.17 1354.5 1966.17 1354.5 1966.74 1354.5 1966.74 1354.5 1966.74 1354.5 1967.32 1354.5 1967.32 1354.5 1967.32 1354.5 1967.32 1354.5 1967.89 1354.5 1967.89 1354.5 1967.89 1354.5 1968.46 1354.5 1968.46 1354.5 1968.46 1354.5 1969.04 1354.5 1969.04 1354.5 1969.04 1354.5 1969.04 1354.5 1969.61 1354.5 1969.61 1354.5 1969.61 1354.5 1970.18 1354.5 1970.18 1354.5 1970.18 1354.5 1970.76 1354.5 1970.76 1354.5 1970.76 1354.5 1970.76 1354.5 1971.33 1354.5 1971.33 1354.5 1971.33 1354.5 1971.9 1354.5 1971.9 1354.5 1971.9 1354.5 1972.47 1354.5 1972.47 1354.5 1972.47 1354.5 1972.47 1354.5 1973.05 1354.5 1973.05 1354.5 1973.05 1354.5 1973.62 1354.5 1973.62 1354.5 1973.62 1354.5 1974.19 1354.5 1974.19 1354.5 1974.19 1354.5 1974.19 1354.5 1974.77 1354.5 1974.77 1354.5 1975.34 1354.5 1975.34 1354.5 1975.34 1354.5 1975.34 1354.5 1975.91 1354.5 1975.91 1354.5 1975.91 1354.5 1975.91 1354.5 1976.49 1354.5 1976.49 1354.5 1977.06 1354.5 1977.06 1354.5 1977.06 1354.5 1977.06 1354.5 1977.63 1354.5 1977.63 1354.5 1977.63 1354.5 1977.63 1354.5 1978.21 1354.5 1978.21 1354.5 1978.78 1354.5 1978.78 1354.5 1978.78 1354.5 1978.78 1354.5 1979.35 1354.5 1979.35 1354.5 1979.35 1354.5 1979.35 1354.5 1979.93 1354.5 1979.93 1354.5 1980.5 1354.5 1980.5 1354.5 1980.5 1354.5 1980.5 1354.5 1981.07 1354.5 1981.07 1354.5 1981.07 1354.5 1981.07 1354.5 1981.64 1354.5 1981.64 1354.5 1982.22 1354.5 1982.22 1354.5 1982.22 1354.5 1982.22 1354.5 1982.79 1354.5 1982.79 1354.5 1982.79 1354.5 1982.79 1354.5 1983.36 1354.5 1983.36 1354.5 1983.94 1354.5 1983.94 1354.5 1983.94 1354.5 1983.94 1354.5 1984.51 1354.5 1984.51 1354.5 1984.51 1354.5 1985.08 1354.5 1985.08 1354.5 1985.08 1354.5 1985.66 1354.5 1985.66 1354.5 1985.66 1354.5 1985.66 1354.5 1986.23 1354.5 1986.23 1354.5 1986.8 1354.5 1986.8 1354.5 1986.8 1354.5 1986.8 1354.5 1987.38 1354.5 1987.38 1354.5 1987.38 1354.5 1987.38 1354.5 1987.95 1354.5 1987.95 1354.5 1988.52 1354.5 1988.52 1354.5 1988.52 1354.5 1988.52 1354.5 1989.1 1354.5 1989.1 1354.5 1989.1 1354.5 1989.1 1354.5 1989.67 1354.5 1989.67 1354.5 1990.24 1354.5 1990.24 1354.5 1990.24 1354.5 1990.24 1354.5 1990.81 1354.5 1990.81 1354.5 1990.81 1354.5 1990.81 1354.5 1991.39 1354.5 1991.39 1354.5 1991.96 1354.5 1991.96 1354.5 1991.96 1354.5 1991.96 1354.5 1992.53 1354.5 1992.53 1354.5 1992.53 1354.5 1992.53 1354.5 1993.11 1354.5 1993.11 1354.5 1993.68 1354.5 1993.68 1354.5 1993.68 1354.5 1993.68 1354.5 1994.25 1354.5 1994.25 1354.5 1994.25 1354.5 1994.25 1354.5 1994.83 1354.5 1994.83 1354.5 1995.4 1354.5 1995.4 1354.5 1995.4 1354.5 1995.4 1354.5 1995.97 1354.5 1995.97 1354.5 1995.97 1354.5 1995.97 1354.5 1996.55 1354.5 1996.55 1354.5 1997.12 1354.5 1997.12 1354.5 1997.12 1354.5 1997.12 1354.5 1997.69 1354.5 1997.69 1354.5 1997.69 1354.5 1997.69 1354.5 1998.27 1354.5 1998.27 1354.5 1998.84 1354.5 1998.84 1354.5 1998.84 1354.5 1998.84 1354.5 1999.41 1354.5 1999.41 1354.5 1999.41 1354.5 1999.41 1354.5 1999.99 1354.5 1999.99 1354.5 2000.56 1354.5 2000.56 1354.5 2000.56 1354.5 2000.56 1354.5 2001.13 1354.5 2001.13 1354.5 2001.13 1354.5 2001.13 1354.5 2001.7 1354.5 2001.7 1354.5 2002.28 1354.5 2002.28 1354.5 2002.28 1354.5 2002.28 1354.5 2002.85 1354.5 2002.85 1354.5 2002.85 1354.5 2002.85 1354.5 2003.42 1354.5 2003.42 1354.5 2004 1354.5 2004 1354.5 2004 1354.5 2004 1354.5 2004.57 1354.5 2004.57 1354.5 2004.57 1354.5 2004.57 1354.5 2005.14 1055.5 2005.14 1055.5 2005.72 1055.5 2005.72 1055.5 2005.72 1055.5 2005.72 1055.5 2006.29 1055.5 2006.29 1055.5 2006.29 1055.5 2006.86 1055.5 2006.86 1055.5 2006.86 1055.5 2007.44 1055.5 2007.44 1055.5 2007.44 1055.5 2007.44 1055.5 2008.01 1055.5 2008.01 1055.5 2008.58 1055.5 2008.58 1055.5 2008.58 1055.5 2008.58 1055.5 2009.16 1055.5 2009.16 1055.5 2009.16 1055.5 2009.16 1055.5 2009.73 1055.5 2009.73 1055.5 2010.3 1055.5 2010.3 1055.5 2010.3 1055.5 2010.3 1055.5 2010.87 1055.5 2010.87 1055.5 2010.87 1055.5 2010.87 1055.5 2011.45 1055.5 2011.45 1055.5 2012.02 1055.5 2012.02 1055.5 2012.02 1055.5 2012.02 1055.5 2012.59 1055.5 2012.59 1055.5 2012.59 1055.5 2012.59 1055.5 2013.17 1055.5 2013.17 1055.5 2013.74 1055.5 2013.74 1055.5 2013.74 1055.5 2013.74 1055.5 2014.31 1055.5 2014.31 1055.5 2014.31 1055.5 2014.31 1055.5 2014.89 1055.5 2014.89 1055.5 2015.46 1055.5 2015.46 1055.5 2015.46 1055.5 2015.46 1055.5 2016.03 1055.5 2016.03 1055.5 2016.03 1055.5 2016.03 1055.5 2016.61 1055.5 2016.61 1055.5 2017.18 1055.5 2017.18 1055.5 2017.18 1055.5 2017.18 1055.5 2017.75 1055.5 2017.75 1055.5 2017.75 1055.5 2018.33 1055.5 2018.33 1055.5 2018.33 1055.5 2018.9 1055.5 2018.9 1055.5 2018.9 1055.5 2018.9 1055.5 2019.47 1055.5 2019.47 1055.5 2019.47 1055.5 2020.04 1055.5 2020.04 1055.5 2020.04 1055.5 2020.62 1055.5 2020.62 1055.5 2020.62 1055.5 2020.62 1055.5 2021.19 1055.5 2021.19 1055.5 2021.19 1055.5 2021.76 1055.5 2021.76 1055.5 2021.76 1055.5 2022.34 1055.5 2022.34 1055.5 2022.34 1055.5 2022.34 1055.5 2022.91 1055.5 2022.91 1055.5 2022.91 1055.5 2023.48 1055.5 2023.48 1055.5 2023.48 1055.5 2024.06 1055.5 2024.06 1055.5 2024.06 1055.5 2024.06 1055.5 2024.63 1055.5 2024.63 1055.5 2024.63 1055.5 2025.2 1055.5 2025.2 1055.5 2025.2 1055.5 2025.78 1055.5 2025.78 1055.5 2025.78 1055.5 2025.78 1055.5 2026.35 1055.5 2026.35 1055.5 2026.35 1055.5 2026.92 1055.5 2026.92 1055.5 2026.92 1055.5 2027.5 1055.5 2027.5 1055.5 2027.5 1055.5 2027.5 1055.5 2028.07 1055.5 2028.07 1055.5 2028.07 1055.5 2028.64 1055.5 2028.64 1055.5 2028.64 1055.5 2029.21 1055.5 2029.21 1055.5 2029.21 1055.5 2029.79 1055.5 2029.79 1055.5 2029.79 1055.5 2029.79 1055.5 2030.36 1055.5 2030.36 1055.5 2030.36 1055.5 2030.93 1055.5 2030.93 1055.5 2030.93 1055.5 2031.51 1055.5 2031.51 1055.5 2031.51 1055.5 2032.08 1055.5 2032.08 1055.5 2032.08 1055.5 2032.08 1055.5 2032.65 1055.5 2032.65 1055.5 2032.65 1055.5 2033.23 1055.5 2033.23 1055.5 2033.23 1055.5 2033.8 1055.5 2033.8 1055.5 2033.8 1055.5 2033.8 1055.5 2034.37 1055.5 2034.37 1055.5 2034.37 1055.5 2034.95 1055.5 2034.95 1055.5 2034.95 1055.5 2035.52 1055.5 2035.52 1055.5 2035.52 1055.5 2035.52 1055.5 2036.09 1055.5 2036.09 1055.5 2036.09 1055.5 2036.67 1055.5 2036.67 1055.5 2036.67 1055.5 2037.24 1055.5 2037.24 1055.5 2037.24 1055.5 2037.24 1055.5 2037.81 1055.5 2037.81 1055.5 2037.81 1055.5 2038.38 1055.5 2038.38 1055.5 2038.38 1055.5 2038.96 1055.5 2038.96 1055.5 2038.96 1055.5 2039.53 1055.5 2039.53 1055.5 2039.53 1055.5 2039.53 1055.5 2040.1 1055.5 2040.1 1055.5 2040.1 1055.5 2040.68 1055.5 2040.68 1055.5 2040.68 1055.5 2041.25 1055.5 2041.25 1055.5 2041.25 1055.5 2041.25 1055.5 2041.82 1055.5 2041.82 1055.5 2041.82 1055.5 2042.4 1055.5 2042.4 1055.5 2042.4 1055.5 2042.97 1055.5 2042.97 1055.5 2042.97 1055.5 2042.97 1055.5 2043.54 1055.5 2043.54 1055.5 2043.54 1055.5 2044.12 1055.5 2044.12 1055.5 2044.12 1055.5 2044.69 1055.5 2044.69 1055.5 2044.69 1055.5 2044.69 1055.5 2045.26 1055.5 2045.26 1055.5 2045.26 1055.5 2045.84 1055.5 2045.84 1055.5 2045.84 1055.5 2046.41 1055.5 2046.41 1055.5 2046.41 1055.5 2046.41 1055.5 2046.98 1055.5 2046.98 1055.5 2046.98 1055.5 2047.55 1055.5 2047.55 1055.5 2047.55 1055.5 2048.13 1055.5 2048.13 1055.5 2048.13 1055.5 2048.13 1055.5 2048.7 1055.5 2048.7 1055.5 2048.7 1055.5 2049.27 1055.5 2049.27 1055.5 2049.27 1055.5 2049.85 1055.5 2049.85 1055.5 2049.85 1055.5 2049.85 1055.5 2050.42 1055.5 2050.42 1055.5 2050.99 1055.5 2050.99 1055.5 2050.99 1055.5 2050.99 1055.5 2051.57 1055.5 2051.57 1055.5 2051.57 1055.5 2051.57 1055.5 2052.14 1055.5 2052.14 1055.5 2052.71 1055.5 2052.71 1055.5 2052.71 1055.5 2052.71 1055.5 2053.29 1055.5 2053.29 1055.5 2053.29 1055.5 2053.86 1055.5 2053.86 1055.5 2053.86 1055.5 2054.43 1055.5 2054.43 1055.5 2054.43 1055.5 2054.43 1055.5 2055.01 1055.5 2055.01 1055.5 2055.01 1055.5 2055.58 1055.5 2055.58 1055.5 2055.58 1055.5 2056.15 1055.5 2056.15 1055.5 2056.15 1055.5 2056.15 1055.5 2056.73 1055.5 2056.73 1055.5 2056.73 1055.5 2057.3 1055.5 2057.3 1055.5 2057.3 1055.5 2057.87 1055.5 2057.87 1055.5 2057.87 1055.5 2057.87 1055.5 2058.44 1055.5 2058.44 1055.5 2058.44 1055.5 2059.02 1055.5 2059.02 1055.5 2059.02 1055.5 2059.59 1055.5 2059.59 1055.5 2059.59 1055.5 2059.59 1055.5 2060.16 1055.5 2060.16 1055.5 2060.16 1055.5 2060.74 1055.5 2060.74 1055.5 2060.74 1055.5 2061.31 1055.5 2061.31 1055.5 2061.31 1055.5 2061.31 1055.5 2061.88 1055.5 2061.88 1055.5 2062.46 1055.5 2062.46 1055.5 2062.46 1055.5 2062.46 1055.5 2063.03 1055.5 2063.03 1055.5 2063.03 1055.5 2063.03 1055.5 2063.6 1055.5 2063.6 1055.5 2064.18 1055.5 2064.18 1055.5 2064.18 1055.5 2064.18 1055.5 2064.75 1055.5 2064.75 1055.5 2064.75 1055.5 2064.75 1055.5 2065.32 1055.5 2065.32 1055.5 2065.9 1055.5 2065.9 1055.5 2065.9 1055.5 2065.9 1055.5 2066.47 1055.5 2066.47 1055.5 2066.47 1055.5 2066.47 1055.5 2067.04 1055.5 2067.04 1055.5 2067.61 1055.5 2067.61 1055.5 2067.61 1055.5 2067.61 1055.5 2068.19 1055.5 2068.19 1055.5 2068.19 1055.5 2068.19 1055.5 2068.76 1055.5 2068.76 1055.5 2069.33 1055.5 2069.33 1055.5 2069.33 1055.5 2069.33 1055.5 2069.91 1055.5 2069.91 1055.5 2069.91 1055.5 2069.91 1055.5 2070.48 1055.5 2070.48 1055.5 2071.05 1055.5 2071.05 1055.5 2071.05 1055.5 2071.05 1055.5 2071.63 1055.5 2071.63 1055.5 2071.63 1055.5 2071.63 1055.5 2072.2 1055.5 2072.2 1055.5 2072.77 1055.5 2072.77 1055.5 2072.77 1055.5 2072.77 1055.5 2073.35 1055.5 2073.35 1055.5 2073.35 1055.5 2073.35 1055.5 2073.92 1055.5 2073.92 1055.5 2074.49 1055.5 2074.49 1055.5 2074.49 1055.5 2074.49 1055.5 2075.07 1055.5 2075.07 1055.5 2075.07 1055.5 2075.07 1055.5 2075.64 1055.5 2075.64 1055.5 2076.21 1055.5 2076.21 1055.5 2076.21 1055.5 2076.21 1055.5 2076.78 1055.5 2076.78 1055.5 2077.36 1055.5 2077.36 1055.5 2077.36 1055.5 2077.36 1055.5 2077.93 1055.5 2077.93 1055.5 2077.93 1055.5 2077.93 1055.5 2078.5 1055.5 2078.5 1055.5 2079.08 1055.5 2079.08 1055.5 2079.08 1055.5 2079.08 1055.5 2079.65 1055.5 2079.65 1055.5 2079.65 1055.5 2079.65 1055.5 2080.22 1055.5 2080.22 1055.5 2080.8 1055.5 2080.8 1055.5 2080.8 1055.5 2080.8 1055.5 2081.37 1055.5 2081.37 1055.5 2081.37 1055.5 2081.37 1055.5 2081.94 1055.5 2081.94 1055.5 2082.52 1055.5 2082.52 1055.5 2082.52 1055.5 2082.52 1055.5 2083.09 1055.5 2083.09 1055.5 2083.09 1055.5 2083.09 1055.5 2083.66 1055.5 2083.66 1055.5 2084.24 1055.5 2084.24 1055.5 2084.24 1055.5 2084.24 1055.5 2084.81 1055.5 2084.81 1055.5 2084.81 1055.5 2084.81 1055.5 2085.38 1055.5 2085.38 1055.5 2085.95 1055.5 2085.95 1055.5 2085.95 1055.5 2085.95 1055.5 2086.53 1055.5 2086.53 1055.5 2086.53 1055.5 2086.53 1055.5 2087.1 1055.5 2087.1 1055.5 2087.67 1055.5 2087.67 1055.5 2087.67 1055.5 2087.67 1055.5 2088.25 1055.5 2088.25 1055.5 2088.25 1055.5 2088.25 1055.5 2088.82 1055.5 2088.82 1055.5 2089.39 1055.5 2089.39 1055.5 2089.39 1055.5 2089.39 1055.5 2089.97 1055.5 2089.97 1055.5 2089.97 1055.5 2089.97 1055.5 2090.54 1055.5 2090.54 1055.5 2091.11 1055.5 2091.11 1055.5 2091.11 1055.5 2091.11 1055.5 2091.69 1055.5 2091.69 1055.5 2091.69 1055.5 2091.69 1055.5 2092.26 1055.5 2092.26 1055.5 2092.83 1055.5 2092.83 1055.5 2092.83 1055.5 2092.83 1055.5 2093.41 1055.5 2093.41 1055.5 2093.41 1055.5 2093.98 1055.5 2093.98 1055.5 2093.98 1055.5 2094.55 1055.5 2094.55 1055.5 2094.55 1055.5 2094.55 1055.5 2095.12 1055.5 2095.12 1055.5 2095.12 1055.5 2095.7 1055.5 2095.7 1055.5 2095.7 1055.5 2096.27 1055.5 2096.27 1055.5 2096.27 1055.5 2096.27 1055.5 2096.84 1055.5 2096.84 1055.5 2096.84 1055.5 2097.42 1055.5 2097.42 1055.5 2097.42 1055.5 2097.99 1055.5 2097.99 1055.5 2097.99 1055.5 2097.99 1055.5 2098.56 1055.5 2098.56 1055.5 2098.56 1055.5 2099.14 1055.5 2099.14 1055.5 2099.14 1055.5 2099.71 1055.5 2099.71 1055.5 2099.71 1055.5 2099.71 1055.5 2100.28 1055.5 2100.28 1055.5 2100.86 1055.5 2100.86 1055.5 2100.86 1055.5 2100.86 1055.5 2101.43 1055.5 2101.43 1055.5 2101.43 1055.5 2101.43 1055.5 2102 1055.5 2102 1055.5 2102.58 1055.5 2102.58 1055.5 2102.58 1055.5 2102.58 1055.5 2103.15 1055.5 2103.15 1055.5 2103.15 1055.5 2103.15 1055.5 2103.72 1055.5 2103.72 1055.5 2104.29 1055.5 2104.29 1055.5 2104.29 1055.5 2104.29 1055.5 2104.87 1055.5 2104.87 1055.5 2104.87 1055.5 2105.44 1055.5 2105.44 1055.5 2105.44 1055.5 2106.01 1055.5 2106.01 1055.5 2106.01 1055.5 2106.01 1055.5 2106.59 1055.5 2106.59 1055.5 2106.59 1055.5 2107.16 1055.5 2107.16 1055.5 2107.16 1055.5 2107.73 1055.5 2107.73 1055.5 2107.73 1055.5 2107.73 1055.5 2108.31 1055.5 2108.31 1055.5 2108.31 1055.5 2108.88 1055.5 2108.88 1055.5 2108.88 1055.5 2109.45 1055.5 2109.45 1055.5 2109.45 1055.5 2109.45 1055.5 2110.03 1055.5 2110.03 1055.5 2110.03 1055.5 2110.6 1055.5 2110.6 1055.5 2110.6 1055.5 2111.17 1055.5 2111.17 1055.5 2111.17 1055.5 2111.17 1055.5 2111.75 1055.5 2111.75 1055.5 2111.75 1055.5 2112.32 1055.5 2112.32 1055.5 2112.32 1055.5 2112.89 1055.5 2112.89 1055.5 2112.89 1055.5 2112.89 1055.5 2113.46 1055.5 2113.46 1055.5 2113.46 1055.5 2114.04 1055.5 2114.04 1055.5 2114.04 1055.5 2114.61 1055.5 2114.61 1055.5 2114.61 1055.5 2115.18 1055.5 2115.18 1055.5 2115.18 1055.5 2115.18 1055.5 2115.76 1055.5 2115.76 1055.5 2115.76 1055.5 2116.33 1055.5 2116.33 1055.5 2116.33 1055.5 2116.9 1055.5 2116.9 1055.5 2116.9 1055.5 2116.9 1055.5 2117.48 1055.5 2117.48 1055.5 2117.48 1055.5 2118.05 1055.5 2118.05 1055.5 2118.05 1055.5 2118.62 1055.5 2118.62 1055.5 2118.62 1055.5 2118.62 1055.5 2119.2 1055.5 2119.2 1055.5 2119.2 1055.5 2119.77 1055.5 2119.77 1055.5 2119.77 1055.5 2120.34 1055.5 2120.34 1055.5 2120.34 1055.5 2120.34 1055.5 2120.92 1055.5 2120.92 1055.5 2120.92 1055.5 2121.49 1055.5 2121.49 1055.5 2121.49 1055.5 2122.06 1055.5 2122.06 1055.5 2122.06 1055.5 2122.06 1055.5 2122.64 1055.5 2122.64 1055.5 2122.64 1055.5 2123.21 1055.5 2123.21 1055.5 2123.21 1055.5 2123.78 1055.5 2123.78 1055.5 2123.78 1055.5 2124.35 1055.5 2124.35 1055.5 2124.35 1055.5 2124.35 1055.5 2124.93 1055.5 2124.93 1055.5 2124.93 1055.5 2125.5 1055.5 2125.5 1055.5 2125.5 1055.5 2126.07 1055.5 2126.07 1055.5 2126.07 1055.5 2126.65 1055.5 2126.65 1055.5 2126.65 1055.5 2126.65 1055.5 2127.22 1055.5 2127.22 1055.5 2127.22 1055.5 2127.79 1055.5 2127.79 1055.5 2127.79 1055.5 2128.37 1055.5 2128.37 1055.5 2128.37 1055.5 2128.37 1055.5 2128.94 1055.5 2128.94 1055.5 2128.94 1055.5 2129.51 1055.5 2129.51 1055.5 2129.51 1055.5 2130.09 1055.5 2130.09 1055.5 2130.09 1055.5 2130.09 1055.5 2130.66 1055.5 2130.66 1055.5 2130.66 1055.5 2131.23 1055.5 2131.23 1055.5 2131.23 1055.5 2131.81 1055.5 2131.81 1055.5 2131.81 1055.5 2131.81 1055.5 2132.38 1055.5 2132.38 1055.5 2132.38 1055.5 2132.95 1055.5 2132.95 1055.5 2132.95 1055.5 2133.52 1055.5 2133.52 1055.5 2133.52 1055.5 2133.52 1055.5 2134.1 1055.5 2134.1 1055.5 2134.1 1055.5 2134.67 1055.5 2134.67 1055.5 2134.67 1055.5 2135.24 1055.5 2135.24 1055.5 2135.24 1055.5 2135.24 1055.5 2135.82 1055.5 2135.82 1055.5 2135.82 1055.5 2136.39 1055.5 2136.39 1055.5 2136.39 1055.5 2136.96 1055.5 2136.96 1055.5 2136.96 1055.5 2136.96 1055.5 2137.54 1055.5 2137.54 1055.5 2138.11 1055.5 2138.11 1055.5 2138.11 1055.5 2138.11 1055.5 2138.68 1055.5 2138.68 1055.5 2138.68 1055.5 2138.68 1055.5 2139.26 1055.5 2139.26 1055.5 2139.83 1055.5 2139.83 1055.5 2139.83 1055.5 2139.83 1055.5 2140.4 1055.5 2140.4 1055.5 2140.4 1055.5 2140.4 1055.5 2140.98 1055.5 2140.98 1055.5 2141.55 1055.5 2141.55 1055.5 2141.55 1055.5 2141.55 1055.5 2142.12 1055.5 2142.12 1055.5 2142.12 1055.5 2142.12 1055.5 2142.69 1055.5 2142.69 1055.5 2143.27 1055.5 2143.27 1055.5 2143.27 1055.5 2143.27 1055.5 2143.84 1055.5 2143.84 1055.5 2143.84 1055.5 2143.84 1055.5 2144.41 1055.5 2144.41 1055.5 2144.99 1055.5 2144.99 1055.5 2144.99 1055.5 2144.99 1055.5 2145.56 1055.5 2145.56 1055.5 2145.56 1055.5 2146.13 1055.5 2146.13 1055.5 2146.13 1055.5 2146.71 1055.5 2146.71 1055.5 2146.71 1055.5 2146.71 1055.5 2147.28 1055.5 2147.28 1055.5 2147.85 1055.5 2147.85 1055.5 2147.85 1055.5 2147.85 1055.5 2148.43 1055.5 2148.43 1055.5 2148.43 1055.5 2148.43 1055.5 2149 1055.5 2149 1055.5 2149.57 1055.5 2149.57 1055.5 2149.57 1055.5 2149.57 1055.5 2150.15 1055.5 2150.15 1055.5 2150.15 1055.5 2150.15 1055.5 2150.72 1055.5 2150.72 1055.5 2151.29 1055.5 2151.29 1055.5 2151.29 1055.5 2151.29 1055.5 2151.86 1055.5 2151.86 1055.5 2151.86 1055.5 2151.86 1055.5 2152.44 1055.5 2152.44 1055.5 2153.01 1055.5 2153.01 1055.5 2153.01 1055.5 2153.01 1055.5 2153.58 1055.5 2153.58 1055.5 2153.58 1055.5 2153.58 1055.5 2154.16 1055.5 2154.16 1055.5 2154.73 1055.5 2154.73 1055.5 2154.73 1055.5 2154.73 1055.5 2155.3 1055.5 2155.3 1055.5 2155.3 1055.5 2155.3 1055.5 2155.88 1055.5 2155.88 1055.5 2156.45 1055.5 2156.45 1055.5 2156.45 1055.5 2156.45 1055.5 2157.02 1055.5 2157.02 1055.5 2157.02 1055.5 2157.02 1055.5 2157.6 1055.5 2157.6 1055.5 2158.17 1055.5 2158.17 1055.5 2158.17 1055.5 2158.17 1055.5 2158.74 1055.5 2158.74 1055.5 2158.74 1055.5 2158.74 1055.5 2159.32 1055.5 2159.32 1055.5 2159.89 1055.5 2159.89 1055.5 2159.89 1055.5 2159.89 1055.5 2160.46 1055.5 2160.46 1055.5 2160.46 1055.5 2160.46 1055.5 2161.03 1055.5 2161.03 1055.5 2161.61 1055.5 2161.61 1055.5 2161.61 1055.5 2161.61 1055.5 2162.18 1055.5 2162.18 1055.5 2162.18 1055.5 2162.18 1055.5 2162.75 1055.5 2162.75 1055.5 2163.33 1055.5 2163.33 1055.5 2163.33 1055.5 2163.33 1055.5 2163.9 1055.5 2163.9 1055.5 2163.9 1055.5 2163.9 1055.5 2164.47 1055.5 2164.47 1055.5 2165.05 1055.5 2165.05 1055.5 2165.05 1055.5 2165.05 1055.5 2165.62 1055.5 2165.62 1055.5 2165.62 1055.5 2165.62 1055.5 2166.19 1055.5 2166.19 1055.5 2166.77 1055.5 2166.77 1055.5 2166.77 1055.5 2166.77 1055.5 2167.34 1055.5 2167.34 1055.5 2167.34 1055.5 2167.34 1055.5 2167.91 1055.5 2167.91 1055.5 2168.49 1055.5 2168.49 1055.5 2168.49 1055.5 2168.49 1055.5 2169.06 1055.5 2169.06 1055.5 2169.63 1055.5 2169.63 1055.5 2169.63 1055.5 2169.63 1055.5 2170.2 1055.5 2170.2 1055.5 2170.2 1055.5 2170.2 1055.5 2170.78 1055.5 2170.78 1055.5 2171.35 1055.5 2171.35 1055.5 2171.35 1055.5 2171.35 1055.5 2171.92 1055.5 2171.92 1055.5 2171.92 1055.5 2171.92 1055.5 2172.5 1055.5 2172.5 1055.5 2173.07 1055.5 2173.07 1055.5 2173.07 1055.5 2173.07 1055.5 2173.64 1055.5 2173.64 1055.5 2173.64 1055.5 2173.64 1055.5 2174.22 1055.5 2174.22 1055.5 2174.79 1055.5 2174.79 1055.5 2174.79 1055.5 2174.79 1055.5 2175.36 1055.5 2175.36 1055.5 2175.36 1055.5 2175.36 1055.5 2175.94 1055.5 2175.94 1055.5 2176.51 1055.5 2176.51 1055.5 2176.51 1055.5 2176.51 1055.5 2177.08 1055.5 2177.08 1055.5 2177.08 1055.5 2177.08 1055.5 2177.66 1055.5 2177.66 1055.5 2178.23 1055.5 2178.23 1055.5 2178.23 1055.5 2178.23 1055.5 2178.8 1055.5 2178.8 1055.5 2178.8 1055.5 2178.8 1055.5 2179.38 1055.5 2179.38 1055.5 2179.95 1055.5 2179.95 1055.5 2179.95 1055.5 2179.95 1055.5 2180.52 1055.5 2180.52 1055.5 2180.52 1055.5 2181.09 1055.5 2181.09 1055.5 2181.09 1055.5 2181.67 1055.5 2181.67 1055.5 2181.67 1055.5 2181.67 1055.5 2182.24 1055.5 2182.24 1055.5 2182.24 1055.5 2182.81 1055.5 2182.81 1055.5 2182.81 1055.5 2183.39 1055.5 2183.39 1055.5 2183.39 1055.5 2183.39 1055.5 2183.96 1055.5 2183.96 1055.5 2183.96 1055.5 2184.53 1055.5 2184.53 1055.5 2184.53 1055.5 2185.11 1055.5 2185.11 1055.5 2185.11 1055.5 2185.11 1055.5 2185.68 1055.5 2185.68 1055.5 2185.68 1055.5 2186.25 1055.5 2186.25 1055.5 2186.25 1055.5 2186.83 1055.5 2186.83 1055.5 2186.83 1055.5 2186.83 1055.5 2187.4 1055.5 2187.4 1055.5 2187.4 1055.5 2187.97 1055.5 2187.97 1055.5 2187.97 1055.5 2188.54 1055.5 2188.54 1055.5 2188.54 1055.5 2188.54 1055.5 2189.12 1055.5 2189.12 1055.5 2189.12 1055.5 2189.69 1055.5 2189.69 1055.5 2189.69 1055.5 2190.26 1055.5 2190.26 1055.5 2190.26 1055.5 2190.26 1055.5 2190.84 1055.5 2190.84 1055.5 2190.84 1055.5 2191.41 1055.5 2191.41 1055.5 2191.41 1055.5 2191.98 1055.5 2191.98 1055.5 2191.98 1055.5 2192.56 1055.5 2192.56 1055.5 2192.56 1055.5 2193.13 1055.5 2193.13 1055.5 2193.13 1055.5 2193.13 1055.5 2193.7 1055.5 2193.7 1055.5 2193.7 1055.5 2194.28 1055.5 2194.28 1055.5 2194.28 1055.5 2194.85 1055.5 2194.85 1055.5 2194.85 1055.5 2194.85 1055.5 2195.42 1055.5 2195.42 1055.5 2195.42 1055.5 2196 1055.5 2196 1055.5 2196 1055.5 2196.57 1055.5 2196.57 1055.5 2196.57 1055.5 2196.57 1055.5 2197.14 1055.5 2197.14 1055.5 2197.14 1055.5 2197.72 1055.5 2197.72 1055.5 2197.72 1055.5 2198.29 1055.5 2198.29 1055.5 2198.29 1055.5 2198.29 1055.5 2198.86 1055.5 2198.86 1055.5 2198.86 1055.5 2199.43 1055.5 2199.43 1055.5 2199.43 1055.5 2200.01 1055.5 2200.01 1055.5 2200.01 1055.5 2200.01 1055.5 2200.58 1055.5 2200.58 1055.5 2200.58 1055.5 2201.15 1055.5 2201.15 1055.5 2201.15 1055.5 2201.73 1055.5 2201.73 1055.5 2201.73 1055.5 2202.3 1055.5 2202.3 1055.5 2202.3 1055.5 2202.3 1055.5 2202.87 1055.5 2202.87 1055.5 2202.87 1055.5 2203.45 1055.5 2203.45 1055.5 2203.45 1055.5 2204.02 1055.5 2204.02 1055.5 2204.02 1055.5 2204.02 1055.5 2204.59 1055.5 2204.59 1055.5 2204.59 1055.5 2205.17 1055.5 2205.17 1055.5 2205.17 1055.5 2205.74 1055.5 2205.74 1055.5 2205.74 1055.5 2205.74 1055.5 2206.31 1055.5 2206.31 1055.5 2206.31 1055.5 2206.89 1055.5 2206.89 1055.5 2206.89 1055.5 2207.46 1055.5 2207.46 1055.5 2207.46 1055.5 2207.46 1055.5 2208.03 1055.5 2208.03 1055.5 2208.03 1055.5 2208.6 1055.5 2208.6 1055.5 2208.6 1055.5 2209.18 1055.5 2209.18 1055.5 2209.18 1055.5 2209.18 1055.5 2209.75 1055.5 2209.75 1055.5 2209.75 1055.5 2210.32 1055.5 2210.32 1055.5 2210.32 1055.5 2210.9 1055.5 2210.9 1055.5 2210.9 1055.5 2210.9 1055.5 2211.47 1055.5 2211.47 1055.5 2211.47 1055.5 2212.04 1055.5 2212.04 1055.5 2212.04 1055.5 2212.62 1055.5 2212.62 1055.5 2212.62 1055.5 2212.62 1055.5 2213.19 1055.5 2213.19 1055.5 2213.76 1055.5 2213.76 1055.5 2213.76 1055.5 2213.76 1055.5 2214.34 1055.5 2214.34 1055.5 2214.34 1055.5 2214.34 1055.5 2214.91 1055.5 2214.91 1055.5 2215.48 1055.5 2215.48 1055.5 2215.48 1055.5 2215.48 1055.5 2216.06 1055.5 2216.06 1055.5 2216.06 1055.5 2216.63 1055.5 2216.63 1055.5 2216.63 1055.5 2217.2 1055.5 2217.2 1055.5 2217.2 1055.5 2217.2 1055.5 2217.77 1055.5 2217.77 1055.5 2217.77 1055.5 2218.35 1055.5 2218.35 1055.5 2218.35 1055.5 2218.92 1055.5 2218.92 1055.5 2218.92 1055.5 2218.92 1055.5 2219.49 1055.5 2219.49 1055.5 2219.49 1055.5 2220.07 1055.5 2220.07 1055.5 2220.07 1055.5 2220.64 1055.5 2220.64 1055.5 2220.64 1055.5 2220.64 1055.5 2221.21 1055.5 2221.21 1055.5 2221.21 1055.5 2221.79 1055.5 2221.79 1055.5 2221.79 1055.5 2222.36 1055.5 2222.36 1055.5 2222.36 1055.5 2222.36 1055.5 2222.93 1055.5 2222.93 1055.5 2223.51 1055.5 2223.51 1055.5 2223.51 1055.5 2223.51 1055.5 2224.08 1055.5 2224.08 1055.5 2224.08 1055.5 2224.08 1055.5 2224.65 1055.5 2224.65 1055.5 2225.23 1055.5 2225.23 1055.5 2225.23 1055.5 2225.23 1055.5 2225.8 1055.5 2225.8 1055.5 2225.8 1055.5 2225.8 1055.5 2226.37 1055.5 2226.37 1055.5 2226.94 1055.5 2226.94 1055.5 2226.94 1055.5 2226.94 1055.5 2227.52 1055.5 2227.52 1055.5 2227.52 1055.5 2227.52 1055.5 2228.09 1055.5 2228.09 1055.5 2228.66 1055.5 2228.66 1055.5 2228.66 1055.5 2228.66 1055.5 2229.24 1055.5 2229.24 1055.5 2229.24 1055.5 2229.24 1055.5 2229.81 1055.5 2229.81 1055.5 2230.38 1055.5 2230.38 1055.5 2230.38 1055.5 2230.38 1055.5 2230.96 1055.5 2230.96 1055.5 2230.96 1055.5 2230.96 1055.5 2231.53 1055.5 2231.53 1055.5 2232.1 1055.5 2232.1 1055.5 2232.1 1055.5 2232.1 1055.5 2232.68 1055.5 2232.68 1055.5 2232.68 1055.5 2232.68 1055.5 2233.25 1055.5 2233.25 1055.5 2233.82 1055.5 2233.82 1055.5 2233.82 1055.5 2233.82 1055.5 2234.4 1055.5 2234.4 1055.5 2234.4 1055.5 2234.4 1055.5 2234.97 1055.5 2234.97 1055.5 2235.54 1055.5 2235.54 1055.5 2235.54 1055.5 2235.54 1055.5 2236.11 1055.5 2236.11 1055.5 2236.11 1055.5 2236.11 1055.5 2236.69 1055.5 2236.69 1055.5 2237.26 1055.5 2237.26 1055.5 2237.26 1055.5 2237.26 1055.5 2237.83 1055.5 2237.83 1055.5 2238.41 1055.5 2238.41 1055.5 2238.41 1055.5 2238.41 1055.5 2238.98 1055.5 2238.98 1055.5 2238.98 1055.5 2238.98 1055.5 2239.55 1055.5 2239.55 1055.5 2240.13 1055.5 2240.13 1055.5 2240.13 1055.5 2240.13 1055.5 2240.7 1055.5 2240.7 1055.5 2240.7 1055.5 2240.7 1055.5 2241.27 1055.5 2241.27 1055.5 2241.85 1055.5 2241.85 1055.5 2241.85 1055.5 2241.85 1055.5 2242.42 1055.5 2242.42 1055.5 2242.42 1055.5 2242.42 1055.5 2242.99 1055.5 2242.99 1055.5 2243.57 1055.5 2243.57 1055.5 2243.57 1055.5 2243.57 1055.5 2244.14 1055.5 2244.14 1055.5 2244.14 1055.5 2244.14 1055.5 2244.71 1055.5 2244.71 1055.5 2245.28 1055.5 2245.28 1055.5 2245.28 1055.5 2245.28 1055.5 2245.86 1055.5 2245.86 1055.5 2245.86 1055.5 2245.86 1055.5 2246.43 1055.5 2246.43 1055.5 2247 1055.5 2247 1055.5 2247 1055.5 2247 1055.5 2247.58 1055.5 2247.58 1055.5 2247.58 1055.5 2247.58 1055.5 2248.15 1055.5 2248.15 1055.5 2248.72 1055.5 2248.72 1055.5 2248.72 1055.5 2248.72 1055.5 2249.3 1055.5 2249.3 1055.5 2249.3 1055.5 2249.3 1055.5 2249.87 1055.5 2249.87 1055.5 2250.44 1055.5 2250.44 1055.5 2250.44 1055.5 2250.44 1055.5 2251.02 1055.5 2251.02 1055.5 2251.02 1055.5 2251.02 1055.5 2251.59 1055.5 2251.59 1055.5 2252.16 1055.5 2252.16 1055.5 2252.16 1055.5 2252.16 1055.5 2252.74 1055.5 2252.74 1055.5 2252.74 1055.5 2252.74 1055.5 2253.31 1055.5 2253.31 1055.5 2253.88 1055.5 2253.88 1055.5 2253.88 1055.5 2253.88 1055.5 2254.45 1055.5 2254.45 1055.5 2254.45 1055.5 2254.45 1055.5 2255.03 1055.5 2255.03 1055.5 2255.6 1055.5 2255.6 1055.5 2255.6 1055.5 2255.6 1055.5 2256.17 1055.5 2256.17 1055.5 2256.17 1055.5 2256.75 1055.5 2256.75 1055.5 2256.75 1055.5 2257.32 1055.5 2257.32 1055.5 2257.32 1055.5 2257.32 1055.5 2257.89 1055.5 2257.89 1055.5 2257.89 1055.5 2258.47 1055.5 2258.47 1055.5 2258.47 1055.5 2259.04 1055.5 2259.04 1055.5 2259.04 1055.5 2259.04 1055.5 2259.61 1055.5 2259.61 1055.5 2259.61 1055.5 2260.19 1055.5 2260.19 1055.5 2260.19 1055.5 2260.76 1055.5 2260.76 1055.5 2260.76 1055.5 2260.76 1055.5 2261.33 1055.5 2261.33 1055.5 2261.91 1055.5 2261.91 1055.5 2261.91 1055.5 2261.91 1055.5 2262.48 1055.5 2262.48 1055.5 2262.48 1055.5 2262.48 1055.5 2263.05 1055.5 2263.05 1055.5 2263.62 1055.5 2263.62 1055.5 2263.62 1055.5 2263.62 1055.5 2264.2 1055.5 2264.2 1055.5 2264.2 1055.5 2264.2 1055.5 2264.77 1055.5 2264.77 1055.5 2265.34 1055.5 2265.34 1055.5 2265.34 1055.5 2265.34 1055.5 2265.92 1055.5 2265.92 1055.5 2265.92 1055.5 2265.92 1055.5 2266.49 1055.5 2266.49 1055.5 2267.06 1055.5 2267.06 1055.5 2267.06 1055.5 2267.06 1055.5 2267.64 1055.5 2267.64 1055.5 2267.64 1055.5 2268.21 1055.5 2268.21 1055.5 2268.21 1055.5 2268.78 1055.5 2268.78 1055.5 2268.78 1055.5 2268.78 1055.5 2269.36 1055.5 2269.36 1055.5 2269.36 1055.5 2269.93 1055.5 2269.93 1055.5 2269.93 1055.5 2270.5 1055.5 2270.5 1055.5 2270.5 1055.5 2270.5 1055.5 2271.08 1055.5 2271.08 1055.5 2271.08 1055.5 2271.65 1055.5 2271.65 1055.5 2271.65 1055.5 2272.22 1055.5 2272.22 1055.5 2272.22 1055.5 2272.22 1055.5 2272.8 1055.5 2272.8 1055.5 2272.8 1055.5 2273.37 1055.5 2273.37 1055.5 2273.37 1055.5 2273.94 1055.5 2273.94 1055.5 2273.94 1055.5 2273.94 1055.5 2274.51 1055.5 2274.51 1055.5 2274.51 1055.5 2275.09 1055.5 2275.09 1055.5 2275.09 1055.5 2275.66 1055.5 2275.66 1055.5 2275.66 1055.5 2275.66 1055.5 2276.23 1055.5 2276.23 1055.5 2276.23 1055.5 2276.81 1055.5 2276.81 1055.5 2276.81 1055.5 2277.38 1055.5 2277.38 1055.5 2277.38 1055.5 2277.95 1055.5 2277.95 1055.5 2277.95 1055.5 2277.95 1055.5 2278.53 1055.5 2278.53 1055.5 2278.53 1055.5 2279.1 1055.5 2279.1 1055.5 2279.1 1055.5 2279.67 1055.5 2279.67 1055.5 2279.67 1055.5 2279.67 1055.5 2280.25 1055.5 2280.25 1055.5 2280.25 1055.5 2280.82 1055.5 2280.82 1055.5 2280.82 1055.5 2281.39 1055.5 2281.39 1055.5 2281.39 1055.5 2281.39 1055.5 2281.97 1055.5 2281.97 1055.5 2281.97 1055.5 2282.54 1055.5 2282.54 1055.5 2282.54 1055.5 2283.11 1055.5 2283.11 1055.5 2283.11 1055.5 2283.11 1055.5 2283.68 1055.5 2283.68 1055.5 2283.68 1055.5 2284.26 1055.5 2284.26 1055.5 2284.26 1055.5 2284.83 1055.5 2284.83 1055.5 2284.83 1055.5 2285.4 1055.5 2285.4 1055.5 2285.4 1055.5 2285.4 1055.5 2285.98 1055.5 2285.98 1055.5 2285.98 1055.5 2286.55 1055.5 2286.55 1055.5 2286.55 1055.5 2287.12 1055.5 2287.12 1055.5 2287.12 1055.5 2287.12 1055.5 2287.7 1055.5 2287.7 1055.5 2287.7 1055.5 2288.27 1055.5 2288.27 1055.5 2288.27 1055.5 2288.84 1055.5 2288.84 1055.5 2288.84 1055.5 2289.42 1055.5 2289.42 1055.5 2289.42 1055.5 2289.42 1055.5 2289.99 1055.5 2289.99 1055.5 2289.99 1055.5 2290.56 1055.5 2290.56 1055.5 2290.56 1055.5 2291.14 1055.5 2291.14 1055.5 2291.14 1055.5 2291.14 1055.5 2291.71 1055.5 2291.71 1055.5 2291.71 1055.5 2292.28 1055.5 2292.28 1055.5 2292.28 1055.5 2292.85 1055.5 2292.85 1055.5 2292.85 1055.5 2292.85 1055.5 2293.43 1055.5 2293.43 1055.5 2293.43 1055.5 2294 1055.5 2294 1055.5 2294 1055.5 2294.57 1055.5 2294.57 1055.5 2294.57 1055.5 2294.57 1055.5 2295.15 1055.5 2295.15 1055.5 2295.15 1055.5 2295.72 1055.5 2295.72 1055.5 2295.72 1055.5 2296.29 1055.5 2296.29 1055.5 2296.29 1055.5 2296.29 1055.5 2296.87 1055.5 2296.87 1055.5 2296.87 1055.5 2297.44 1055.5 2297.44 1055.5 2297.44 1055.5 2298.01 1055.5 2298.01 1055.5 2298.01 1055.5 2298.01 1055.5 2298.59 1055.5 2298.59 1055.5 2298.59 1055.5 2299.16 1055.5 2299.16 1055.5 2299.16 1055.5 2299.73 1055.5 2299.73 1055.5 2299.73 1055.5 2299.73 1055.5 2300.31 1055.5 2300.31 1055.5 2300.88 1055.5 2300.88 1055.5 2300.88 1055.5 2300.88 1055.5 2301.45 1055.5 2301.45 1055.5 2301.45 1055.5 2301.45 1055.5 2302.02 1055.5 2302.02 1055.5 2302.6 1055.5 2302.6 1055.5 2302.6 1055.5 2302.6 1055.5 2303.17 1055.5 2303.17 1055.5 2303.17 1055.5 2303.17 1055.5 2303.74 1055.5 2303.74 1055.5 2304.32 1055.5 2304.32 1055.5 2304.32 1055.5 2304.32 1055.5 2304.89 1055.5 2304.89 1055.5 2304.89 1055.5 2304.89 1055.5 2305.46 1055.5 2305.46 1055.5 2306.04 1055.5 2306.04 1055.5 2306.04 1055.5 2306.04 1055.5 2306.61 1055.5 2306.61 1055.5 2306.61 1055.5 2306.61 1055.5 2307.18 1055.5 2307.18 1055.5 2307.76 1055.5 2307.76 1055.5 2307.76 1055.5 2307.76 1055.5 2308.33 1055.5 2308.33 1055.5 2308.33 1055.5 2308.9 1055.5 2308.9 1055.5 2308.9 1055.5 2309.48 1055.5 2309.48 1055.5 2309.48 1055.5 2309.48 1055.5 2310.05 1055.5 2310.05 1055.5 2310.62 1055.5 2310.62 1055.5 2310.62 1055.5 2310.62 1055.5 2311.19 1055.5 2311.19 1055.5 2311.19 1055.5 2311.19 1055.5 2311.77 1055.5 2311.77 1055.5 2312.34 1055.5 2312.34 1055.5 2312.34 1055.5 2312.34 1055.5 2312.91 1055.5 2312.91 1055.5 2312.91 1055.5 2312.91 1055.5 2313.49 1055.5 2313.49 1055.5 2314.06 1055.5 2314.06 1055.5 2314.06 1055.5 2314.06 1055.5 2314.63 1055.5 2314.63 1055.5 2314.63 1055.5 2314.63 1055.5 2315.21 1055.5 2315.21 1055.5 2315.78 1055.5 2315.78 1055.5 2315.78 1055.5 2315.78 1055.5 2316.35 1055.5 2316.35 1055.5 2316.35 1055.5 2316.35 1055.5 2316.93 1055.5 2316.93 1055.5 2317.5 1055.5 2317.5 1055.5 2317.5 1055.5 2317.5 1055.5 2318.07 1055.5 2318.07 1055.5 2318.07 1055.5 2318.07 1055.5 2318.65 1055.5 2318.65 1055.5 2319.22 1055.5 2319.22 1055.5 2319.22 1055.5 2319.22 1055.5 2319.79 1055.5 2319.79 1055.5 2319.79 1055.5 2319.79 1055.5 2320.36 1055.5 2320.36 1055.5 2320.94 1055.5 2320.94 1055.5 2320.94 1055.5 2320.94 1055.5 2321.51 1055.5 2321.51 1055.5 2321.51 1055.5 2321.51 1055.5 2322.08 1055.5 2322.08 1055.5 2322.66 1055.5 2322.66 1055.5 2322.66 1055.5 2322.66 1055.5 2323.23 1055.5 2323.23 1055.5 2323.23 1055.5 2323.23 1055.5 2323.8 1055.5 2323.8 1055.5 2324.38 1055.5 2324.38 1055.5 2324.38 1055.5 2324.38 1055.5 2324.95 1055.5 2324.95 1055.5 2324.95 1055.5 2324.95 1055.5 2325.52 1055.5 2325.52 1055.5 2326.1 1055.5 2326.1 1055.5 2326.1 1055.5 2326.1 1055.5 2326.67 1055.5 2326.67 1055.5 2326.67 1055.5 2326.67 1055.5 2327.24 1055.5 2327.24 1055.5 2327.82 1055.5 2327.82 1055.5 2327.82 1055.5 2327.82 1055.5 2328.39 1055.5 2328.39 1055.5 2328.39 1055.5 2328.39 1055.5 2328.96 1055.5 2328.96 1055.5 2329.54 1055.5 2329.54 1055.5 2329.54 1055.5 2329.54 1055.5 2330.11 1055.5 2330.11 1055.5 2330.11 1055.5 2330.11 1055.5 2330.68 1055.5 2330.68 1055.5 2331.25 1055.5 2331.25 1055.5 2331.25 1055.5 2331.25 1055.5 2331.83 1055.5 2331.83 1055.5 2332.4 1055.5 2332.4 1055.5 2332.4 1055.5 2332.4 1055.5 2332.97 1055.5 2332.97 1055.5 2332.97 1055.5 2332.97 1055.5 2333.55 1055.5 2333.55 1055.5 2334.12 1055.5 2334.12 1055.5 2334.12 1055.5 2334.12 1055.5 2334.69 1055.5 2334.69 1055.5 2334.69 1055.5 2334.69 1055.5 2335.27 1055.5 2335.27 1055.5 2335.84 1055.5 2335.84 1055.5 2335.84 1055.5 2335.84 1055.5 2336.41 1055.5 2336.41 1055.5 2336.41 1055.5 2336.41 1055.5 2336.99 1055.5 2336.99 1055.5 2337.56 1055.5 2337.56 1055.5 2337.56 1055.5 2337.56 1055.5 2338.13 1055.5 2338.13 1055.5 2338.13 1055.5 2338.13 1055.5 2338.71 1055.5 2338.71 1055.5 2339.28 1055.5 2339.28 1055.5 2339.28 1055.5 2339.28 1055.5 2339.85 1055.5 2339.85 1055.5 2339.85 1055.5 2339.85 1055.5 2340.42 1055.5 2340.42 1055.5 2341 1055.5 2341 1055.5 2341 1055.5 2341 1055.5 2341.57 1055.5 2341.57 1055.5 2341.57 1055.5 2341.57 1055.5 2342.14 1055.5 2342.14 1055.5 2342.72 1055.5 2342.72 1055.5 2342.72 1055.5 2342.72 1055.5 2343.29 1055.5 2343.29 1055.5 2343.29 1055.5 2343.86 1055.5 2343.86 1055.5 2343.86 1055.5 2344.44 1055.5 2344.44 1055.5 2344.44 1055.5 2344.44 1055.5 2345.01 1055.5 2345.01 1055.5 2345.01 1055.5 2345.58 1055.5 2345.58 1055.5 2345.58 1055.5 2346.16 1055.5 2346.16 1055.5 2346.16 1055.5 2346.16 1055.5 2346.73 1055.5 2346.73 1055.5 2346.73 1055.5 2347.3 1055.5 2347.3 1055.5 2347.3 1055.5 2347.88 1055.5 2347.88 1055.5 2347.88 1055.5 2347.88 1055.5 2348.45 1055.5 2348.45 1055.5 2348.45 1055.5 2349.02 1055.5 2349.02 1055.5 2349.02 1055.5 2349.59 1055.5 2349.59 1055.5 2349.59 1055.5 2349.59 1055.5 2350.17 1055.5 2350.17 1055.5 2350.17 1055.5 2350.74 1055.5 2350.74 1055.5 2350.74 1055.5 2351.31 1055.5 2351.31 1055.5 2351.31 1055.5 2351.31 1055.5 2351.89 1055.5 2351.89 1055.5 2351.89 1055.5 2352.46 1055.5 2352.46 1055.5 2352.46 1055.5 2353.03 1055.5 2353.03 1055.5 2353.03 1055.5 2353.61 1055.5 2353.61 1055.5 2353.61 1055.5 2354.18 1055.5 2354.18 1055.5 2354.18 1055.5 2354.18 1055.5 2354.75 1055.5 2354.75 1055.5 2354.75 1055.5 2355.33 1055.5 2355.33 1055.5 2355.33 1055.5 2355.9 1055.5 2355.9 1055.5 2355.9 1055.5 2355.9 1055.5 2356.47 1055.5 2356.47 1055.5 2356.47 1055.5 2357.05 1055.5 2357.05 1055.5 2357.05 1055.5 2357.62 1055.5 2357.62 1055.5 2357.62 1055.5 2357.62 1055.5 2358.19 1055.5 2358.19 1055.5 2358.19 1055.5 2358.76 1055.5 2358.76 1055.5 2358.76 1055.5 2359.34 1055.5 2359.34 1055.5 2359.34 1055.5 2359.34 1055.5 2359.91 1055.5 2359.91 1055.5 2359.91 1055.5 2360.48 1055.5 2360.48 1055.5 2360.48 1055.5 2361.06 1055.5 2361.06 1055.5 2361.06 1055.5 2361.06 1055.5 2361.63 1055.5 2361.63 1055.5 2361.63 1055.5 2362.2 1055.5 2362.2 1055.5 2362.2 1055.5 2362.78 1055.5 2362.78 1055.5 2362.78 1055.5 2362.78 1055.5 2363.35 1055.5 2363.35 1055.5 2363.35 1055.5 2363.92 1055.5 2363.92 1055.5 2363.92 1055.5 2364.5 1055.5 2364.5 1055.5 2364.5 1055.5 2365.07 1055.5 2365.07 1055.5 2365.07 1055.5 2365.07 1055.5 2365.64 1055.5 2365.64 1055.5 2365.64 1055.5 2366.22 1055.5 2366.22 1055.5 2366.22 1055.5 2366.79 1055.5 2366.79 1055.5 2366.79 1055.5 2366.79 1055.5 2367.36 1055.5 2367.36 1055.5 2367.36 1055.5 2367.93 1055.5 2367.93 1055.5 2367.93 1055.5 2368.51 1055.5 2368.51 1055.5 2368.51 1055.5 2368.51 1055.5 2369.08 1055.5 2369.08 1055.5 2369.08 1055.5 2369.65 1055.5 2369.65 1055.5 2369.65 1055.5 2370.23 1055.5 2370.23 1055.5 2370.23 1055.5 2370.23 1055.5 2370.8 1055.5 2370.8 1055.5 2370.8 1055.5 2371.37 1055.5 2371.37 1055.5 2371.37 1055.5 2371.95 1055.5 2371.95 1055.5 2371.95 1055.5 2371.95 1055.5 2372.52 1055.5 2372.52 1055.5 2372.52 1055.5 2373.09 1055.5 2373.09 1055.5 2373.09 1055.5 2373.67 1055.5 2373.67 1055.5 2373.67 1055.5 2373.67 1055.5 2374.24 1055.5 2374.24 1055.5 2374.24 1055.5 2374.81 1055.5 2374.81 1055.5 2374.81 1055.5 2375.39 1055.5 2375.39 1055.5 2375.39 1055.5 2375.39 1055.5 2375.96 1055.5 2375.96 1055.5 2376.53 1055.5 2376.53 1055.5 2376.53 1055.5 2376.53 1055.5 2377.1 1055.5 2377.1 1055.5 2377.1 1055.5 2377.68 1055.5 2377.68 1055.5 2377.68 1055.5 2378.25 1055.5 2378.25 1055.5 2378.25 1055.5 2378.25 1055.5 2378.82 1055.5 2378.82 1055.5 2378.82 1055.5 2379.4 1055.5 2379.4 1055.5 2379.4 1055.5 2379.97 1055.5 2379.97 1055.5 2379.97 1055.5 2379.97 1055.5 2380.54 1055.5 2380.54 1055.5 2380.54 1055.5 2381.12 1055.5 2381.12 1055.5 2381.12 1055.5 2381.69 1055.5 2381.69 1055.5 2381.69 1055.5 2381.69 1055.5 2382.26 1055.5 2382.26 1055.5 2382.26 1055.5 2382.84 1055.5 2382.84 1055.5 2382.84 1055.5 2383.41 1055.5 2383.41 1055.5 2383.41 1055.5 2383.41 1055.5 2383.98 1055.5 2383.98 1055.5 2383.98 1055.5 2384.56 1055.5 2384.56 1055.5 2384.56 1055.5 2385.13 1055.5 2385.13 1055.5 2385.13 1055.5 2385.13 1055.5 2385.7 1055.5 2385.7 1055.5 2386.27 1055.5 2386.27 1055.5 2386.27 1055.5 2386.27 1055.5 2386.85 1055.5 2386.85 1055.5 2386.85 1055.5 2386.85 1055.5 2387.42 1055.5 2387.42 1055.5 2387.99 1055.5 2387.99 1055.5 2387.99 1055.5 2387.99 1055.5 2388.57 1055.5 2388.57 1055.5 2388.57 1055.5 2388.57 1055.5 2389.14 1055.5 2389.14 1055.5 2389.71 1055.5 2389.71 1055.5 2389.71 1055.5 2389.71 1055.5 2390.29 1055.5 2390.29 1055.5 2390.29 1055.5 2390.29 1055.5 2390.86 1055.5 2390.86 1055.5 2391.43 1055.5 2391.43 1055.5 2391.43 1055.5 2391.43 1055.5 2392.01 1055.5 2392.01 1055.5 2392.01 1055.5 2392.01 1055.5 2392.58 1055.5 2392.58 1055.5 2393.15 1055.5 2393.15 1055.5 2393.15 1055.5 2393.15 1055.5 2393.73 1055.5 2393.73 1055.5 2393.73 1055.5 2393.73 1055.5 2394.3 1055.5 2394.3 1055.5 2394.87 1055.5 2394.87 1055.5 2394.87 1055.5 2394.87 1055.5 2395.45 1055.5 2395.45 1055.5 2395.45 1055.5 2395.45 1055.5 2396.02 1055.5 2396.02 1055.5 2396.59 1055.5 2396.59 1055.5 2396.59 1055.5 2396.59 1055.5 2397.16 1055.5 2397.16 1055.5 2397.16 1055.5 2397.16 1055.5 2397.74 1055.5 2397.74 1055.5 2398.31 1055.5 2398.31 1055.5 2398.31 1055.5 2398.31 1055.5 2398.88 1055.5 2398.88 1055.5 2398.88 1055.5 2398.88 1055.5 2399.46 1055.5 2399.46 1055.5 2400.03 1055.5 2400.03 1055.5 2400.03 1055.5 2400.03 1055.5 2400.6 1055.5 2400.6 1055.5 2401.18 1055.5 2401.18 1055.5 2401.18 1055.5 2401.18 1055.5 2401.75 1055.5 2401.75 1055.5 2401.75 1055.5 2401.75 1055.5 2402.32 1055.5 2402.32 1055.5 2402.9 1055.5 2402.9 1055.5 2402.9 1055.5 2402.9 1055.5 2403.47 1055.5 2403.47 1055.5 2403.47 1055.5 2403.47 1055.5 2404.04 1055.5 2404.04 1055.5 2404.61 1055.5 2404.61 1055.5 2404.61 1055.5 2404.61 1055.5 2405.19 1055.5 2405.19 1055.5 2405.19 1055.5 2405.19 1055.5 2405.76 1055.5 2405.76 1055.5 2406.33 1055.5 2406.33 1055.5 2406.33 1055.5 2406.33 1055.5 2406.91 1055.5 2406.91 1055.5 2406.91 1055.5 2406.91 1055.5 2407.48 1055.5 2407.48 1055.5 2408.05 1055.5 2408.05 1055.5 2408.05 1055.5 2408.05 1055.5 2408.63 1055.5 2408.63 1055.5 2408.63 1055.5 2408.63 1055.5 2409.2 1055.5 2409.2 1055.5 2409.77 1055.5 2409.77 1055.5 2409.77 1055.5 2409.77 1055.5 2410.35 1055.5 2410.35 1055.5 2410.35 1055.5 2410.35 1055.5 2410.92 1055.5 2410.92 1055.5 2411.49 1055.5 2411.49 1055.5 2411.49 1055.5 2411.49 1055.5 2412.07 1055.5 2412.07 1055.5 2412.07 1055.5 2412.07 1055.5 2412.64 1055.5 2412.64 1055.5 2413.21 1055.5 2413.21 1055.5 2413.21 1055.5 2413.21 1055.5 2413.79 1055.5 2413.79 1055.5 2413.79 1055.5 2413.79 1055.5 2414.36 1055.5 2414.36 1055.5 2414.93 1055.5 2414.93 1055.5 2414.93 1055.5 2414.93 1055.5 2415.5 1055.5 2415.5 1055.5 2415.5 1055.5 2415.5 1055.5 2416.08 1055.5 2416.08 1055.5 2416.65 1055.5 2416.65 1055.5 2416.65 1055.5 2416.65 1055.5 2417.22 1055.5 2417.22 1055.5 2417.22 1055.5 2417.22 1055.5 2417.8 1055.5 2417.8 1055.5 2418.37 1055.5 2418.37 1055.5 2418.37 1055.5 2418.37 1055.5 2418.94 1055.5 2418.94 1055.5 2418.94 1055.5 2419.52 1055.5 2419.52 1055.5 2419.52 1055.5 2420.09 1055.5 2420.09 1055.5 2420.09 1055.5 2420.09 1055.5 2420.66 1055.5 2420.66 1055.5 2420.66 1055.5 2421.24 1055.5 2421.24 1055.5 2421.24 1055.5 2421.81 1055.5 2421.81 1055.5 2421.81 1055.5 2421.81 1055.5 2422.38 1055.5 2422.38 1055.5 2422.38 1055.5 2422.96 1055.5 2422.96 1055.5 2422.96 1055.5 2423.53 1055.5 2423.53 1055.5 2423.53 1055.5 2423.53 1055.5 2424.1 1055.5 2424.1 1055.5 2424.67 1055.5 2424.67 1055.5 2424.67 1055.5 2424.67 1055.5 2425.25 1055.5 2425.25 1055.5 2425.25 1055.5 2425.25 1055.5 2425.82 1055.5 2425.82 1055.5 2426.39 1055.5 2426.39 1055.5 2426.39 1055.5 2426.39 1055.5 2426.97 1055.5 2426.97 1055.5 2426.97 1055.5 2426.97 1055.5 2427.54 1055.5 2427.54 1055.5 2428.11 1055.5 2428.11 1055.5 2428.11 1055.5 2428.11 1055.5 2428.69 1055.5 2428.69 1055.5 2428.69 1055.5 2429.26 1055.5 2429.26 1055.5 2429.26 1055.5 2429.83 1055.5 2429.83 1055.5 2429.83 1055.5 2429.83 1055.5 2430.41 1055.5 2430.41 1055.5 2430.41 1055.5 2430.98 1055.5 2430.98 1055.5 2430.98 1055.5 2431.55 1055.5 2431.55 1055.5 2431.55 1055.5 2431.55 1055.5 2432.13 1055.5 2432.13 1055.5 2432.13 1055.5 2432.7 1055.5 2432.7 1055.5 2432.7 1055.5 2433.27 1055.5 2433.27 1055.5 2433.27 1055.5 2433.27 1055.5 2433.84 1055.5 2433.84 1055.5 2433.84 1055.5 2434.42 1055.5 2434.42 1055.5 2434.42 1055.5 2434.99 1055.5 2434.99 1055.5 2434.99 1055.5 2434.99 1055.5 2435.56 1055.5 2435.56 1055.5 2435.56 1055.5 2436.14 1055.5 2436.14 1055.5 2436.14 1055.5 2436.71 1055.5 2436.71 1055.5 2436.71 1055.5 2436.71 1055.5 2437.28 1055.5 2437.28 1055.5 2437.28 1055.5 2437.86 1055.5 2437.86 1354.5 2437.86 1354.5 2438.43 1354.5 2438.43 1354.5 2438.43 1354.5 2438.43 1354.5 2439 1354.5 2439 1354.5 2439 1354.5 2439.58 1354.5 2439.58 1354.5 2439.58 1354.5 2440.15 1354.5 2440.15 1354.5 2440.15 1354.5 2440.72 1354.5 2440.72 1354.5 2440.72 1354.5 2440.72 1354.5 2441.3 1354.5 2441.3 1354.5 2441.3 1354.5 2441.87 1354.5 2441.87 1354.5 2441.87 1354.5 2442.44 1354.5 2442.44 1354.5 2442.44 1354.5 2442.44 1354.5 2443.01 1354.5 2443.01 1354.5 2443.01 1354.5 2443.59 1354.5 2443.59 1354.5 2443.59 1354.5 2444.16 1354.5 2444.16 1354.5 2444.16 1354.5 2444.16 1354.5 2444.73 1354.5 2444.73 1354.5 2444.73 1354.5 2445.31 1354.5 2445.31 1354.5 2445.31 1354.5 2445.88 1354.5 2445.88 1354.5 2445.88 1354.5 2446.45 1354.5 2446.45 1354.5 2446.45 1354.5 2446.45 1354.5 2447.03 1354.5 2447.03 1354.5 2447.03 1354.5 2447.6 1354.5 2447.6 1354.5 2447.6 1354.5 2448.17 1354.5 2448.17 1354.5 2448.17 1354.5 2448.17 1354.5 2448.75 1354.5 2448.75 1354.5 2448.75 1354.5 2449.32 1354.5 2449.32 1354.5 2449.32 1354.5 2449.89 1354.5 2449.89 1354.5 2449.89 1354.5 2449.89 1354.5 2450.47 1354.5 2450.47 1354.5 2450.47 1354.5 2451.04 1354.5 2451.04 1354.5 2451.04 1354.5 2451.61 1354.5 2451.61 1354.5 2451.61 1354.5 2452.18 1354.5 2452.18 1354.5 2452.18 1354.5 2452.18 1354.5 2452.76 1354.5 2452.76 1354.5 2452.76 1354.5 2453.33 1354.5 2453.33 1354.5 2453.33 1354.5 2453.9 1354.5 2453.9 1354.5 2453.9 1354.5 2453.9 1354.5 2454.48 1354.5 2454.48 1354.5 2454.48 1354.5 2455.05 1354.5 2455.05 1354.5 2455.05 1354.5 2455.62 1354.5 2455.62 1354.5 2455.62 1354.5 2455.62 1354.5 2456.2 1354.5 2456.2 1354.5 2456.2 1354.5 2456.77 1354.5 2456.77 1354.5 2456.77 1354.5 2457.34 1354.5 2457.34 1354.5 2457.34 1354.5 2457.34 1354.5 2457.92 1354.5 2457.92 1354.5 2457.92 1354.5 2458.49 1354.5 2458.49 1354.5 2458.49 1354.5 2459.06 1354.5 2459.06 1354.5 2459.06 1354.5 2459.06 1354.5 2459.64 1354.5 2459.64 1354.5 2459.64 1354.5 2460.21 1354.5 2460.21 1354.5 2460.21 1354.5 2460.78 1354.5 2460.78 1354.5 2460.78 1354.5 2460.78 1354.5 2461.35 1354.5 2461.35 1354.5 2461.93 1354.5 2461.93 1354.5 2461.93 1354.5 2461.93 1354.5 2462.5 1354.5 2462.5 1354.5 2462.5 1354.5 2462.5 1354.5 2463.07 1354.5 2463.07 1354.5 2463.65 1354.5 2463.65 1354.5 2463.65 1354.5 2463.65 1354.5 2464.22 1354.5 2464.22 1354.5 2464.22 1354.5 2464.22 1354.5 2464.79 1354.5 2464.79 1354.5 2465.37 1354.5 2465.37 1354.5 2465.37 1354.5 2465.37 1354.5 2465.94 1354.5 2465.94 1354.5 2465.94 1354.5 2465.94 1354.5 2466.51 1354.5 2466.51 1354.5 2467.09 1354.5 2467.09 1354.5 2467.09 1354.5 2467.09 1354.5 2467.66 1354.5 2467.66 1354.5 2467.66 1354.5 2467.66 1354.5 2468.23 1354.5 2468.23 1354.5 2468.81 1354.5 2468.81 1354.5 2468.81 1354.5 2468.81 1354.5 2469.38 1354.5 2469.38 1354.5 2469.38 1354.5 2469.95 1354.5 2469.95 1354.5 2469.95 1354.5 2470.53 1354.5 2470.53 1354.5 2470.53 1354.5 2470.53 1354.5 2471.1 1354.5 2471.1 1354.5 2471.1 1354.5 2471.67 1354.5 2471.67 1354.5 2471.67 1354.5 2472.24 1354.5 2472.24 1354.5 2472.24 1354.5 2472.24 1354.5 2472.82 1354.5 2472.82 1354.5 2473.39 1354.5 2473.39 1354.5 2473.39 1354.5 2473.39 1354.5 2473.96 1354.5 2473.96 1354.5 2473.96 1354.5 2473.96 1354.5 2474.54 1354.5 2474.54 1354.5 2475.11 1354.5 2475.11 1354.5 2475.11 1354.5 2475.11 1354.5 2475.68 1354.5 2475.68 1354.5 2475.68 1354.5 2475.68 1354.5 2476.26 1354.5 2476.26 1354.5 2476.83 1354.5 2476.83 1354.5 2476.83 1354.5 2476.83 1354.5 2477.4 1354.5 2477.4 1354.5 2477.4 1354.5 2477.4 1354.5 2477.98 1354.5 2477.98 1354.5 2478.55 1354.5 2478.55 1354.5 2478.55 1354.5 2478.55 1354.5 2479.12 1354.5 2479.12 1354.5 2479.12 1354.5 2479.12 1354.5 2479.7 1354.5 2479.7 1354.5 2480.27 1354.5 2480.27 1354.5 2480.27 1354.5 2480.27 1354.5 2480.84 1354.5 2480.84 1354.5 2480.84 1354.5 2480.84 1354.5 2481.41 1354.5 2481.41 1354.5 2481.99 1354.5 2481.99 1354.5 2481.99 1354.5 2481.99 1354.5 2482.56 1354.5 2482.56 1354.5 2482.56 1354.5 2482.56 1354.5 2483.13 1354.5 2483.13 1354.5 2483.71 1354.5 2483.71 1354.5 2483.71 1354.5 2483.71 1354.5 2484.28 1354.5 2484.28 1354.5 2484.28 1354.5 2484.28 1354.5 2484.85 1354.5 2484.85 1354.5 2485.43 1354.5 2485.43 1354.5 2485.43 1354.5 2485.43 1354.5 2486 1354.5 2486 1354.5 2486 1354.5 2486 1354.5 2486.57 1354.5 2486.57 1354.5 2487.15 1354.5 2487.15 1354.5 2487.15 1354.5 2487.15 1354.5 2487.72 1354.5 2487.72 1354.5 2487.72 1354.5 2487.72 1354.5 2488.29 1354.5 2488.29 1354.5 2488.87 1354.5 2488.87 1354.5 2488.87 1354.5 2488.87 1354.5 2489.44 1354.5 2489.44 1354.5 2489.44 1354.5 2489.44 1354.5 2490.01 1354.5 2490.01 1354.5 2490.58 1354.5 2490.58 1354.5 2490.58 1354.5 2490.58 1354.5 2491.16 1354.5 2491.16 1354.5 2491.16 1354.5 2491.16 1354.5 2491.73 1354.5 2491.73 1354.5 2492.3 1354.5 2492.3 1354.5 2492.3 1354.5 2492.3 1354.5 2492.88 1354.5 2492.88 1354.5 2493.45 1354.5 2493.45 1354.5 2493.45 1354.5 2493.45 1354.5 2494.02 1354.5 2494.02 1354.5 2494.02 1354.5 2494.02 1354.5 2494.6 1354.5 2494.6 1354.5 2495.17 1354.5 2495.17 1354.5 2495.17 1354.5 2495.17 1354.5 2495.74 1354.5 2495.74 1354.5 2495.74 1354.5 2495.74 1354.5 2496.32 1354.5 2496.32 1354.5 2496.89 1354.5 2496.89 1354.5 2496.89 1354.5 2496.89 1354.5 2497.46 1354.5 2497.46 1354.5 2497.46 1354.5 2497.46 1354.5 2498.04 1354.5 2498.04 1354.5 2498.61 1354.5 2498.61 1354.5 2498.61 1354.5 2498.61 1354.5 2499.18 1354.5 2499.18 1354.5 2499.18 1354.5 2499.18 1354.5 2499.75 1354.5 2499.75 1354.5 2500.33 1354.5 2500.33 1354.5 2500.33 1354.5 2500.33 1354.5 2500.9 1354.5 2500.9 1354.5 2500.9 1354.5 2500.9 1354.5 2501.47 1354.5 2501.47 1354.5 2502.05 1354.5 2502.05 1354.5 2502.05 1354.5 2502.05 1354.5 2502.62 1354.5 2502.62 1354.5 2502.62 1354.5 2502.62 1354.5 2503.19 1354.5 2503.19 1354.5 2503.77 1354.5 2503.77 1354.5 2503.77 1354.5 2503.77 1354.5 2504.34 1354.5 2504.34 1354.5 2504.34 1354.5 2504.91 1354.5 2504.91 1354.5 2504.91 1354.5 2505.49 1354.5 2505.49 1354.5 2505.49 1354.5 2505.49 1354.5 2506.06 1354.5 2506.06 1354.5 2506.06 1354.5 2506.63 1354.5 2506.63 1354.5 2506.63 1354.5 2507.21 1354.5 2507.21 1354.5 2507.21 1354.5 2507.21 1354.5 2507.78 1354.5 2507.78 1354.5 2507.78 1354.5 2508.35 1354.5 2508.35 1354.5 2508.35 1354.5 2508.92 1354.5 2508.92 1354.5 2508.92 1354.5 2508.92 1354.5 2509.5 1354.5 2509.5 1354.5 2509.5 1354.5 2510.07 1354.5 2510.07 1354.5 2510.07 1354.5 2510.64 1354.5 2510.64 1354.5 2510.64 1354.5 2510.64 1354.5 2511.22 1354.5 2511.22 1354.5 2511.22 1354.5 2511.79 1354.5 2511.79 1354.5 2511.79 1354.5 2512.36 1354.5 2512.36 1354.5 2512.36 1354.5 2512.36 1354.5 2512.94 1354.5 2512.94 1354.5 2512.94 1354.5 2513.51 1354.5 2513.51 1354.5 2513.51 1354.5 2514.08 1354.5 2514.08 1354.5 2514.08 1354.5 2514.08 1354.5 2514.66 1354.5 2514.66 1354.5 2514.66 1354.5 2515.23 1354.5 2515.23 1354.5 2515.23 1354.5 2515.8 1354.5 2515.8 1354.5 2515.8 1354.5 2516.38 1354.5 2516.38 1354.5 2516.38 1354.5 2516.95 1354.5 2516.95 1354.5 2516.95 1354.5 2516.95 1354.5 2517.52 1354.5 2517.52 1354.5 2517.52 1354.5 2518.09 1354.5 2518.09 1354.5 2518.09 1354.5 2518.67 1354.5 2518.67 1354.5 2518.67 1354.5 2518.67 1354.5 2519.24 1354.5 2519.24 1354.5 2519.24 1354.5 2519.81 1354.5 2519.81 1354.5 2519.81 1354.5 2520.39 1354.5 2520.39 1354.5 2520.39 1354.5 2520.39 1354.5 2520.96 1354.5 2520.96 1354.5 2520.96 1354.5 2521.53 1354.5 2521.53 1354.5 2521.53 1354.5 2522.11 1354.5 2522.11 1354.5 2522.11 1354.5 2522.11 1354.5 2522.68 1354.5 2522.68 1354.5 2522.68 1354.5 2523.25 1354.5 2523.25 1354.5 2523.25 1354.5 2523.83 1354.5 2523.83 1354.5 2523.83 1354.5 2523.83 1354.5 2524.4 1354.5 2524.4 1354.5 2524.4 1354.5 2524.97 1354.5 2524.97 1354.5 2524.97 1354.5 2525.55 1354.5 2525.55 1354.5 2525.55 1354.5 2525.55 1354.5 2526.12 1354.5 2526.12 1354.5 2526.12 1354.5 2526.69 1354.5 2526.69 1354.5 2526.69 1354.5 2527.27 1354.5 2527.27 1354.5 2527.27 1354.5 2527.84 1354.5 2527.84 1354.5 2527.84 1354.5 2527.84 1354.5 2528.41 1354.5 2528.41 1354.5 2528.41 1354.5 2528.98 1354.5 2528.98 1354.5 2528.98 1354.5 2529.56 1354.5 2529.56 1354.5 2529.56 1354.5 2529.56 1354.5 2530.13 1354.5 2530.13 1354.5 2530.13 1354.5 2530.7 1354.5 2530.7 1354.5 2530.7 1354.5 2531.28 1354.5 2531.28 1354.5 2531.28 1354.5 2531.28 1354.5 2531.85 1354.5 2531.85 1354.5 2531.85 1354.5 2532.42 1354.5 2532.42 1354.5 2532.42 1354.5 2533 1354.5 2533 1354.5 2533 1354.5 2533 1354.5 2533.57 1354.5 2533.57 1354.5 2533.57 1354.5 2534.14 1354.5 2534.14 1354.5 2534.14 1354.5 2534.72 1354.5 2534.72 1354.5 2534.72 1354.5 2534.72 1354.5 2535.29 1354.5 2535.29 1354.5 2535.29 1354.5 2535.86 1354.5 2535.86 1354.5 2535.86 1354.5 2536.44 1354.5 2536.44 1354.5 2536.44 1354.5 2536.44 1354.5 2537.01 1354.5 2537.01 1354.5 2537.58 1354.5 2537.58 1354.5 2537.58 1354.5 2537.58 1354.5 2538.15 1354.5 2538.15 1354.5 2538.15 1354.5 2538.73 1354.5 2538.73 1354.5 2538.73 1354.5 2539.3 1354.5 2539.3 1354.5 2539.3 1354.5 2539.3 1354.5 2539.87 1354.5 2539.87 1354.5 2539.87 1354.5 2540.45 1354.5 2540.45 1354.5 2540.45 1354.5 2541.02 1354.5 2541.02 1354.5 2541.02 1354.5 2541.02 1354.5 2541.59 1354.5 2541.59 1354.5 2541.59 1354.5 2542.17 1354.5 2542.17 1354.5 2542.17 1354.5 2542.74 1354.5 2542.74 1354.5 2542.74 1354.5 2542.74 1354.5 2543.31 1354.5 2543.31 1354.5 2543.31 1354.5 2543.89 1354.5 2543.89 1354.5 2543.89 1354.5 2544.46 1354.5 2544.46 1354.5 2544.46 1354.5 2544.46 1354.5 2545.03 1354.5 2545.03 1354.5 2545.03 1354.5 2545.6 1354.5 2545.6 1354.5 2545.6 1354.5 2546.18 1354.5 2546.18 1354.5 2546.18 1354.5 2546.18 1354.5 2546.75 1354.5 2546.75 1354.5 2546.75 1354.5 2547.32 1354.5 2547.32 1354.5 2547.32 1354.5 2547.9 1354.5 2547.9 1354.5 2547.9 1354.5 2547.9 1354.5 2548.47 1354.5 2548.47 1354.5 2549.04 1354.5 2549.04 1354.5 2549.04 1354.5 2549.04 1354.5 2549.62 1354.5 2549.62 1354.5 2549.62 1354.5 2549.62 1354.5 2550.19 1354.5 2550.19 1354.5 2550.76 1354.5 2550.76 1354.5 2550.76 1354.5 2550.76 1354.5 2551.34 1354.5 2551.34 1354.5 2551.34 1354.5 2551.34 1354.5 2551.91 1354.5 2551.91 1354.5 2552.48 1354.5 2552.48 1354.5 2552.48 1354.5 2552.48 1354.5 2553.06 1354.5 2553.06 1354.5 2553.06 1354.5 2553.06 1354.5 2553.63 1354.5 2553.63 1354.5 2554.2 1354.5 2554.2 1354.5 2554.2 1354.5 2554.2 1354.5 2554.78 1354.5 2554.78 1354.5 2554.78 1354.5 2554.78 1354.5 2555.35 1354.5 2555.35 1354.5 2555.92 1354.5 2555.92 1354.5 2555.92 1354.5 2555.92 1354.5 2556.49 1354.5 2556.49 1354.5 2556.49 1354.5 2556.49 1354.5 2557.07 1354.5 2557.07 1354.5 2557.64 1354.5 2557.64 1354.5 2557.64 1354.5 2557.64 1354.5 2558.21 1354.5 2558.21 1354.5 2558.21 1354.5 2558.21 1354.5 2558.79 1354.5 2558.79 1354.5 2559.36 1354.5 2559.36 1354.5 2559.36 1354.5 2559.36 1354.5 2559.93 1354.5 2559.93 1354.5 2559.93 1354.5 2559.93 1354.5 2560.51 1354.5 2560.51 1354.5 2561.08 1354.5 2561.08 1354.5 2561.08 1354.5 2561.08 1354.5 2561.65 1354.5 2561.65 1354.5 2562.23 1354.5 2562.23 1354.5 2562.23 1354.5 2562.23 1354.5 2562.8 1354.5 2562.8 1354.5 2562.8 1354.5 2562.8 1354.5 2563.37 1354.5 2563.37 1354.5 2563.95 1354.5 2563.95 1354.5 2563.95 1354.5 2563.95 1354.5 2564.52 1354.5 2564.52 1354.5 2564.52 1354.5 2564.52 1354.5 2565.09 1354.5 2565.09 1354.5 2565.66 1354.5 2565.66 1354.5 2565.66 1354.5 2565.66 1354.5 2566.24 1354.5 2566.24 1354.5 2566.24 1354.5 2566.24 1354.5 2566.81 1354.5 2566.81 1354.5 2567.38 1354.5 2567.38 1354.5 2567.38 1354.5 2567.38 1354.5 2567.96 1354.5 2567.96 1354.5 2567.96 1354.5 2567.96 1354.5 2568.53 1354.5 2568.53 1354.5 2569.1 1354.5 2569.1 1354.5 2569.1 1354.5 2569.1 1354.5 2569.68 1354.5 2569.68 1354.5 2569.68 1354.5 2569.68 1354.5 2570.25 1354.5 2570.25 1354.5 2570.82 1354.5 2570.82 1354.5 2570.82 1354.5 2570.82 1354.5 2571.4 1354.5 2571.4 1354.5 2571.4 1354.5 2571.4 1354.5 2571.97 1354.5 2571.97 1354.5 2572.54 1354.5 2572.54 1354.5 2572.54 1354.5 2572.54 1354.5 2573.12 1354.5 2573.12 1354.5 2573.12 1354.5 2573.12 1354.5 2573.69 1354.5 2573.69 1354.5 2574.26 1354.5 2574.26 1354.5 2574.26 1354.5 2574.26 1354.5 2574.83 1354.5 2574.83 1354.5 2574.83 1354.5 2574.83 1354.5 2575.41 1354.5 2575.41 1354.5 2575.98 1354.5 2575.98 1354.5 2575.98 1354.5 2575.98 1354.5 2576.55 1354.5 2576.55 1354.5 2576.55 1354.5 2576.55 1354.5 2577.13 1354.5 2577.13 1354.5 2577.7 1354.5 2577.7 1354.5 2577.7 1354.5 2577.7 1354.5 2578.27 1354.5 2578.27 1354.5 2578.27 1354.5 2578.27 1354.5 2578.85 1354.5 2578.85 1354.5 2579.42 1354.5 2579.42 1354.5 2579.42 1354.5 2579.42 1354.5 2579.99 1354.5 2579.99 1354.5 2579.99 1354.5 2580.57 1354.5 2580.57 1354.5 2580.57 1354.5 2581.14 1354.5 2581.14 1354.5 2581.14 1354.5 2581.14 1354.5 2581.71 1354.5 2581.71 1354.5 2581.71 1354.5 2582.29 1354.5 2582.29 1354.5 2582.29 1354.5 2582.86 1354.5 2582.86 1354.5 2582.86 1354.5 2582.86 1354.5 2583.43 1354.5 2583.43 1354.5 2583.43 1354.5 2584 1354.5 2584 1354.5 2584 1354.5 2584.58 1354.5 2584.58 1354.5 2584.58 1354.5 2584.58 1354.5 2585.15 1354.5 2585.15 1354.5 2585.72 1354.5 2585.72 1354.5 2585.72 1354.5 2585.72 1354.5 2586.3 1354.5 2586.3 1354.5 2586.3 1354.5 2586.3 1354.5 2586.87 1354.5 2586.87 1354.5 2587.44 1354.5 2587.44 1354.5 2587.44 1354.5 2587.44 1354.5 2588.02 1354.5 2588.02 1354.5 2588.02 1354.5 2588.02 1354.5 2588.59 1354.5 2588.59 1354.5 2589.16 1354.5 2589.16 1354.5 2589.16 1354.5 2589.16 1354.5 2589.74 1354.5 2589.74 1354.5 2589.74 1354.5 2589.74 1354.5 2590.31 1354.5 2590.31 1354.5 2590.88 1354.5 2590.88 1354.5 2590.88 1354.5 2590.88 1354.5 2591.46 1354.5 2591.46 1354.5 2591.46 1354.5 2592.03 1354.5 2592.03 1354.5 2592.03 1354.5 2592.6 1354.5 2592.6 1354.5 2592.6 1354.5 2592.6 1354.5 2593.18 1354.5 2593.18 1354.5 2593.18 1354.5 2593.75 1354.5 2593.75 1354.5 2593.75 1354.5 2594.32 1354.5 2594.32 1354.5 2594.32 1354.5 2594.32 1354.5 2594.89 1354.5 2594.89 1354.5 2594.89 1354.5 2595.47 1354.5 2595.47 1354.5 2595.47 1354.5 2596.04 1354.5 2596.04 1354.5 2596.04 1354.5 2596.04 1354.5 2596.61 1354.5 2596.61 1354.5 2596.61 1354.5 2597.19 1354.5 2597.19 1354.5 2597.19 1354.5 2597.76 1354.5 2597.76 1354.5 2597.76 1354.5 2597.76 1354.5 2598.33 1354.5 2598.33 1354.5 2598.33 1354.5 2598.91 1354.5 2598.91 1354.5 2598.91 1354.5 2599.48 1354.5 2599.48 1354.5 2599.48 1354.5 2599.48 1354.5 2600.05 1354.5 2600.05 1354.5 2600.05 1354.5 2600.63 1354.5 2600.63 1354.5 2600.63 1354.5 2601.2 1354.5 2601.2 1354.5 2601.2 1354.5 2601.2 1354.5 2601.77 1354.5 2601.77 1354.5 2601.77 1354.5 2602.35 1354.5 2602.35 1354.5 2602.35 1354.5 2602.92 1354.5 2602.92 1354.5 2602.92 1354.5 2603.49 1354.5 2603.49 1354.5 2603.49 1354.5 2603.49 1354.5 2604.06 1354.5 2604.06 1354.5 2604.06 1354.5 2604.64 1354.5 2604.64 1354.5 2604.64 1354.5 2605.21 1354.5 2605.21 1354.5 2605.21 1354.5 2605.21 1354.5 2605.78 1354.5 2605.78 1354.5 2605.78 1354.5 2606.36 1354.5 2606.36 1354.5 2606.36 1354.5 2606.93 1354.5 2606.93 1354.5 2606.93 1354.5 2606.93 1354.5 2607.5 1354.5 2607.5 1354.5 2607.5 1354.5 2608.08 1354.5 2608.08 1354.5 2608.08 1354.5 2608.65 1354.5 2608.65 1354.5 2608.65 1354.5 2609.22 1354.5 2609.22 1354.5 2609.22 1354.5 2609.22 1354.5 2609.8 1354.5 2609.8 1354.5 2609.8 1354.5 2610.37 1354.5 2610.37 1354.5 2610.37 1354.5 2610.94 1354.5 2610.94 1354.5 2610.94 1354.5 2610.94 1354.5 2611.52 1354.5 2611.52 1354.5 2611.52 1354.5 2612.09 1354.5 2612.09 1354.5 2612.09 1354.5 2612.66 1354.5 2612.66 1354.5 2612.66 1354.5 2613.23 1354.5 2613.23 1354.5 2613.23 1354.5 2613.23 1354.5 2613.81 1354.5 2613.81 1354.5 2613.81 1354.5 2614.38 1354.5 2614.38 1354.5 2614.38 1354.5 2614.95 1354.5 2614.95 1354.5 2614.95 1354.5 2614.95 1354.5 2615.53 1354.5 2615.53 1354.5 2615.53 1354.5 2616.1 1354.5 2616.1 1354.5 2616.1 1354.5 2616.67 1354.5 2616.67 1354.5 2616.67 1354.5 2616.67 1354.5 2617.25 1354.5 2617.25 1354.5 2617.25 1354.5 2617.82 1354.5 2617.82 1354.5 2617.82 1354.5 2618.39 1354.5 2618.39 1354.5 2618.39 1354.5 2618.39 1354.5 2618.97 1354.5 2618.97 1354.5 2618.97 1354.5 2619.54 1354.5 2619.54 1354.5 2619.54 1354.5 2620.11 1354.5 2620.11 1354.5 2620.11 1354.5 2620.11 1354.5 2620.69 1354.5 2620.69 1354.5 2620.69 1354.5 2621.26 1354.5 2621.26 1354.5 2621.26 1354.5 2621.83 1354.5 2621.83 1354.5 2621.83 1354.5 2621.83 1354.5 2622.4 1354.5 2622.4 1354.5 2622.4 1354.5 2622.98 1354.5 2622.98 1354.5 2622.98 1354.5 2623.55 1354.5 2623.55 1354.5 2623.55 1354.5 2623.55 1354.5 2624.12 1354.5 2624.12 1354.5 2624.7 1354.5 2624.7 1354.5 2624.7 1354.5 2624.7 1354.5 2625.27 1354.5 2625.27 1354.5 2625.27 1354.5 2625.27 1354.5 2625.84 1354.5 2625.84 1354.5 2626.42 1354.5 2626.42 1354.5 2626.42 1354.5 2626.42 1354.5 2626.99 1354.5 2626.99 1354.5 2626.99 1354.5 2626.99 1354.5 2627.56 1354.5 2627.56 1354.5 2628.14 1354.5 2628.14 1354.5 2628.14 1354.5 2628.14 1354.5 2628.71 1354.5 2628.71 1354.5 2628.71 1354.5 2628.71 1354.5 2629.28 1354.5 2629.28 1354.5 2629.86 1354.5 2629.86 1354.5 2629.86 1354.5 2629.86 1354.5 2630.43 1354.5 2630.43 1354.5 2630.43 1354.5 2631 1354.5 2631 1354.5 2631 1354.5 2631.57 1354.5 2631.57 1354.5 2631.57 1354.5 2631.57 1354.5 2632.15 1354.5 2632.15 1354.5 2632.15 1354.5 2632.72 1354.5 2632.72 1354.5 2632.72 1354.5 2633.29 1354.5 2633.29 1354.5 2633.29 1354.5 2633.29 1354.5 2633.87 1354.5 2633.87 1354.5 2633.87 1354.5 2634.44 1354.5 2634.44 1354.5 2634.44 1354.5 2635.01 1354.5 2635.01 1354.5 2635.01 1354.5 2635.01 1354.5 2635.59 1354.5 2635.59 1354.5 2636.16 1354.5 2636.16 1354.5 2636.16 1354.5 2636.16 1354.5 2636.73 1354.5 2636.73 1354.5 2636.73 1354.5 2636.73 1354.5 2637.31 1354.5 2637.31 1354.5 2637.88 1354.5 2637.88 1354.5 2637.88 1354.5 2637.88 1354.5 2638.45 1354.5 2638.45 1354.5 2638.45 1354.5 2638.45 1354.5 2639.03 1354.5 2639.03 1354.5 2639.6 1354.5 2639.6 1354.5 2639.6 1354.5 2639.6 1354.5 2640.17 1354.5 2640.17 1354.5 2640.17 1354.5 2640.17 1354.5 2640.74 1354.5 2640.74 1354.5 2641.32 1354.5 2641.32 1354.5 2641.32 1354.5 2641.32 1354.5 2641.89 1354.5 2641.89 1354.5 2641.89 1354.5 2641.89 1354.5 2642.46 1354.5 2642.46 1354.5 2643.04 1354.5 2643.04 1354.5 2643.04 1354.5 2643.04 1354.5 2643.61 1354.5 2643.61 1354.5 2643.61 1354.5 2643.61 1354.5 2644.18 1354.5 2644.18 1354.5 2644.76 1354.5 2644.76 1354.5 2644.76 1354.5 2644.76 1354.5 2645.33 1354.5 2645.33 1354.5 2645.33 1354.5 2645.33 1354.5 2645.9 1354.5 2645.9 1354.5 2646.48 1354.5 2646.48 1354.5 2646.48 1354.5 2646.48 1354.5 2647.05 1354.5 2647.05 1354.5 2647.05 1354.5 2647.05 1354.5 2647.62 1354.5 2647.62 1354.5 2648.2 1354.5 2648.2 1354.5 2648.2 1354.5 2648.2 1354.5 2648.77 1354.5 2648.77 1354.5 2648.77 1354.5 2648.77 1354.5 2649.34 1354.5 2649.34 1354.5 2649.91 1354.5 2649.91 1354.5 2649.91 1354.5 2649.91 1354.5 2650.49 1354.5 2650.49 1354.5 2650.49 1354.5 2650.49 1354.5 2651.06 1354.5 2651.06 1354.5 2651.63 1354.5 2651.63 1354.5 2651.63 1354.5 2651.63 1354.5 2652.21 1354.5 2652.21 1354.5 2652.21 1354.5 2652.21 1354.5 2652.78 1354.5 2652.78 1354.5 2653.35 1354.5 2653.35 1354.5 2653.35 1354.5 2653.35 1354.5 2653.93 1354.5 2653.93 1354.5 2654.5 1354.5 2654.5 1354.5 2654.5 1354.5" stroke="#0072BD" stroke-width="9.16667" stroke-linejoin="round" stroke-miterlimit="10" fill="none" fill-rule="evenodd"/></g></svg>