<svg width="1421" height="696" xmlns="http://www.w3.org/2000/svg" xmlns:xlink="http://www.w3.org/1999/xlink" overflow="hidden"><defs><clipPath id="clip0"><rect x="1475" y="913" width="1421" height="696"/></clipPath></defs><g clip-path="url(#clip0)" transform="translate(-1475 -913)"><path d="M1499 944 1489 916 1479 944 1489 944 1499 944Z" fill-rule="evenodd"/><path d="M1489 916 1489 944 1479 944 1489 916 1499 944 1489 944 1489 916 1489 916" stroke="#000000" stroke-width="2.29167" stroke-miterlimit="8" fill="none" fill-rule="evenodd"/><path d="M2849 1505 2849 1514 2849 1523 2886 1514 2849 1505Z" fill-rule="evenodd"/><path d="M2886 1514 2849 1514 2849 1505 2886 1514 2849 1523 2849 1514 2886 1514 2886 1514" stroke="#000000" stroke-width="2.29167" stroke-miterlimit="8" fill="none" fill-rule="evenodd"/><text font-family="Arial,Arial_MSFontService,sans-serif" font-weight="400" font-size="46" transform="matrix(1 0 0 1 1502.76 1571)">0</text><path d="M2823.56 1571.5C2821.66 1571.5 2820.61 1570.86 2819.77 1569.57 2818.92 1568.29 2818.5 1566.79 2818.5 1564.86 2818.5 1563.57 2818.71 1562.5 2818.92 1561.21 2819.13 1560.14 2819.55 1558.86 2819.98 1557.79 2820.4 1556.5 2820.82 1555.43 2821.45 1554.36 2822.09 1553.29 2822.72 1552.21 2823.35 1551.36 2823.35 1551.14 2823.56 1550.93 2823.77 1550.93 2823.98 1550.93 2824.2 1551.14 2824.41 1551.14 2824.41 1551.36 2824.41 1551.36 2824.41 1551.57 2824.41 1551.79 2824.41 1552 2824.41 1552 2821.66 1555.86 2820.19 1559.5 2820.19 1562.71 2820.19 1564.21 2820.61 1565.5 2821.24 1566.36 2821.88 1567.43 2822.72 1567.86 2824.2 1567.86 2825.25 1567.86 2826.3 1567.64 2827.36 1567 2828.2 1566.36 2829.05 1565.5 2829.89 1564.43 2829.89 1563.79 2829.89 1562.93 2830.1 1561.86 2830.31 1560.57 2830.52 1559.71 2830.95 1558.64 2831.37 1557.79 2831.79 1557.36 2832.42 1557.36 2833.05 1557.36 2833.48 1557.79 2833.48 1558.64 2833.48 1559.07 2833.27 1559.71 2833.05 1560.36 2832.84 1561.21 2832.63 1561.86 2832.42 1562.5 2832.21 1563.14 2832 1563.79 2831.58 1564.64 2832 1566.79 2833.05 1567.86 2834.74 1567.86 2835.8 1567.86 2836.85 1567.64 2837.91 1567 2838.96 1566.36 2840.02 1565.5 2840.86 1564.64 2841.7 1563.57 2842.34 1562.5 2842.76 1561.43 2843.18 1560.14 2843.39 1559.07 2843.39 1558 2843.39 1557.14 2843.18 1556.5 2842.97 1555.86 2842.76 1555.43 2842.34 1554.79 2841.91 1554.14 2841.28 1553.71 2841.07 1553.29 2841.07 1552.86 2841.07 1552.21 2841.28 1551.79 2841.91 1551.14 2842.34 1550.71 2842.97 1550.5 2843.39 1550.5 2844.23 1550.5 2844.66 1550.71 2845.08 1551.57 2845.29 1552.21 2845.5 1552.86 2845.5 1553.93 2845.5 1555.21 2845.29 1556.93 2844.66 1559.07 2844.23 1561.43 2843.6 1563.14 2842.76 1564.64 2841.91 1566.57 2840.65 1568.07 2839.17 1569.57 2837.7 1570.86 2836.01 1571.5 2834.11 1571.5 2833.05 1571.5 2832 1571.07 2831.37 1570.43 2830.52 1569.57 2830.1 1568.71 2829.89 1567.43 2829.05 1568.71 2828.2 1569.57 2826.94 1570.43 2825.88 1571.07 2824.83 1571.5 2823.56 1571.5" stroke="#000000" stroke-width="0" stroke-linejoin="round" stroke-miterlimit="10" fill-rule="evenodd"/><text font-family="Arial,Arial_MSFontService,sans-serif" font-weight="400" font-size="46" transform="matrix(1 0 0 1 1509.64 974)">|H(</text><path d="M1577.75 971.5C1575.78 971.5 1574.69 970.857 1573.81 969.571 1572.94 968.286 1572.5 966.786 1572.5 964.857 1572.5 963.571 1572.72 962.5 1572.94 961.214 1573.16 960.143 1573.59 958.857 1574.03 957.786 1574.47 956.5 1574.91 955.429 1575.56 954.357 1576.22 953.286 1576.88 952.214 1577.53 951.357 1577.53 951.143 1577.75 950.929 1577.97 950.929 1578.19 950.929 1578.41 951.143 1578.63 951.143 1578.63 951.357 1578.63 951.357 1578.63 951.571 1578.63 951.786 1578.63 952 1578.63 952 1575.78 955.857 1574.25 959.5 1574.25 962.714 1574.25 964.214 1574.69 965.5 1575.34 966.357 1576 967.428 1576.88 967.857 1578.41 967.857 1579.5 967.857 1580.59 967.643 1581.69 967 1582.56 966.357 1583.44 965.5 1584.31 964.428 1584.31 963.786 1584.31 962.928 1584.53 961.857 1584.75 960.571 1584.97 959.714 1585.41 958.643 1585.84 957.786 1586.28 957.357 1586.94 957.357 1587.59 957.357 1588.03 957.786 1588.03 958.643 1588.03 959.071 1587.81 959.714 1587.59 960.357 1587.38 961.214 1587.16 961.857 1586.94 962.5 1586.72 963.143 1586.5 963.786 1586.06 964.643 1586.5 966.786 1587.59 967.857 1589.34 967.857 1590.44 967.857 1591.53 967.643 1592.62 967 1593.72 966.357 1594.81 965.5 1595.69 964.643 1596.56 963.571 1597.22 962.5 1597.66 961.428 1598.09 960.143 1598.31 959.071 1598.31 958 1598.31 957.143 1598.09 956.5 1597.88 955.857 1597.66 955.429 1597.22 954.786 1596.78 954.143 1596.12 953.714 1595.91 953.286 1595.91 952.857 1595.91 952.214 1596.12 951.786 1596.78 951.143 1597.22 950.714 1597.88 950.5 1598.31 950.5 1599.19 950.5 1599.62 950.714 1600.06 951.571 1600.28 952.214 1600.5 952.857 1600.5 953.929 1600.5 955.214 1600.28 956.929 1599.62 959.071 1599.19 961.428 1598.53 963.143 1597.66 964.643 1596.78 966.571 1595.47 968.071 1593.94 969.571 1592.41 970.857 1590.66 971.5 1588.69 971.5 1587.59 971.5 1586.5 971.071 1585.84 970.428 1584.97 969.571 1584.53 968.714 1584.31 967.428 1583.44 968.714 1582.56 969.571 1581.25 970.428 1580.16 971.071 1579.06 971.5 1577.75 971.5" stroke="#000000" stroke-width="0" stroke-linejoin="round" stroke-miterlimit="10" fill-rule="evenodd"/><text font-family="Arial,Arial_MSFontService,sans-serif" font-weight="400" font-size="46" transform="matrix(1 0 0 1 1602.45 974)">)|<tspan font-size="46" x="1219.16" y="238">A</tspan><tspan font-size="37" x="1250.1" y="257">1</tspan></text><path d="M2718 1169 2718 1162.5 2718 1156 2687 1162.5 2718 1169Z" fill-rule="evenodd"/><path d="M2823 1162.5 2718.56 1162.5 2718.56 1169 2687 1162.5 2718.56 1156 2718.56 1162.5 2823 1162.5 2823 1162.5" stroke="#000000" stroke-width="2.29167" stroke-miterlimit="8" fill="none" fill-rule="evenodd"/><path d="M1490 1514 2849 1514" stroke="#262626" stroke-width="2.29167" stroke-linejoin="round" stroke-miterlimit="10" fill="none" fill-rule="evenodd"/><path d="M0 0 0.000360892 14.9998" stroke="#262626" stroke-width="2.29167" stroke-linejoin="round" stroke-miterlimit="10" fill="none" fill-rule="evenodd" transform="matrix(1 0 0 -1 1489 1514)"/><path d="M0 0 0.000360892 598" stroke="#262626" stroke-width="2.29167" stroke-linejoin="round" stroke-miterlimit="10" fill="none" fill-rule="evenodd" transform="matrix(1 0 0 -1 1489 1514)"/><path d="M0 0 1147.92 4.48337" stroke="#000000" stroke-width="2.29167" stroke-miterlimit="8" fill="none" fill-rule="evenodd" transform="matrix(-1 0 0 1 2635.92 1163)"/></g></svg>