<svg width="1514" height="769" xmlns="http://www.w3.org/2000/svg" xmlns:xlink="http://www.w3.org/1999/xlink" overflow="hidden"><defs><clipPath id="clip0"><rect x="1475" y="913" width="1514" height="769"/></clipPath></defs><g clip-path="url(#clip0)" transform="translate(-1475 -913)"><path d="M1499 944 1489 916 1479 944 1489 944 1499 944Z" fill-rule="evenodd"/><path d="M1489 916 1489 944 1479 944 1489 916 1499 944 1489 944 1489 916 1489 916" stroke="#000000" stroke-width="2.29167" stroke-miterlimit="8" fill="none" fill-rule="evenodd"/><path d="M2947 1505 2947 1514 2947 1523 2984 1514 2947 1505Z" fill-rule="evenodd"/><path d="M2984 1514 2947 1514 2947 1505 2984 1514 2947 1523 2947 1514 2984 1514 2984 1514" stroke="#000000" stroke-width="2.29167" stroke-miterlimit="8" fill="none" fill-rule="evenodd"/><text font-family="Arial,Arial_MSFontService,sans-serif" font-weight="400" font-size="46" transform="matrix(1 0 0 1 1502.76 1570)">0</text><path d="M2920.75 1570.5C2918.78 1570.5 2917.69 1569.89 2916.81 1568.66 2915.94 1567.44 2915.5 1566.01 2915.5 1564.17 2915.5 1562.95 2915.72 1561.93 2915.94 1560.7 2916.16 1559.68 2916.59 1558.46 2917.03 1557.44 2917.47 1556.21 2917.91 1555.19 2918.56 1554.17 2919.22 1553.15 2919.87 1552.13 2920.53 1551.32 2920.53 1551.11 2920.75 1550.91 2920.97 1550.91 2921.19 1550.91 2921.41 1551.11 2921.62 1551.11 2921.62 1551.32 2921.62 1551.32 2921.62 1551.52 2921.62 1551.72 2921.62 1551.93 2921.62 1551.93 2918.78 1555.6 2917.25 1559.07 2917.25 1562.13 2917.25 1563.56 2917.69 1564.79 2918.34 1565.6 2919 1566.62 2919.87 1567.03 2921.41 1567.03 2922.5 1567.03 2923.59 1566.83 2924.69 1566.21 2925.56 1565.6 2926.44 1564.79 2927.31 1563.77 2927.31 1563.15 2927.31 1562.34 2927.53 1561.32 2927.75 1560.09 2927.97 1559.28 2928.41 1558.26 2928.84 1557.44 2929.28 1557.03 2929.94 1557.03 2930.59 1557.03 2931.03 1557.44 2931.03 1558.26 2931.03 1558.66 2930.81 1559.28 2930.59 1559.89 2930.37 1560.7 2930.16 1561.32 2929.94 1561.93 2929.72 1562.54 2929.5 1563.15 2929.06 1563.97 2929.5 1566.01 2930.59 1567.03 2932.34 1567.03 2933.44 1567.03 2934.53 1566.83 2935.62 1566.21 2936.72 1565.6 2937.81 1564.79 2938.69 1563.97 2939.56 1562.95 2940.22 1561.93 2940.66 1560.91 2941.09 1559.68 2941.31 1558.66 2941.31 1557.64 2941.31 1556.83 2941.09 1556.21 2940.88 1555.6 2940.66 1555.19 2940.22 1554.58 2939.78 1553.97 2939.12 1553.56 2938.91 1553.15 2938.91 1552.74 2938.91 1552.13 2939.12 1551.72 2939.78 1551.11 2940.22 1550.7 2940.88 1550.5 2941.31 1550.5 2942.19 1550.5 2942.62 1550.7 2943.06 1551.52 2943.28 1552.13 2943.5 1552.74 2943.5 1553.77 2943.5 1554.99 2943.28 1556.62 2942.62 1558.66 2942.19 1560.91 2941.53 1562.54 2940.66 1563.97 2939.78 1565.81 2938.47 1567.23 2936.94 1568.66 2935.41 1569.89 2933.66 1570.5 2931.69 1570.5 2930.59 1570.5 2929.5 1570.09 2928.84 1569.48 2927.97 1568.66 2927.53 1567.85 2927.31 1566.62 2926.44 1567.85 2925.56 1568.66 2924.25 1569.48 2923.16 1570.09 2922.06 1570.5 2920.75 1570.5" stroke="#000000" stroke-width="0" stroke-linejoin="round" stroke-miterlimit="10" fill-rule="evenodd"/><text font-family="Arial,Arial_MSFontService,sans-serif" font-weight="400" font-size="46" transform="matrix(1 0 0 1 1509.64 974)">|H(</text><path d="M1577.75 971.5C1575.78 971.5 1574.69 970.857 1573.81 969.571 1572.94 968.286 1572.5 966.786 1572.5 964.857 1572.5 963.571 1572.72 962.5 1572.94 961.214 1573.16 960.143 1573.59 958.857 1574.03 957.786 1574.47 956.5 1574.91 955.429 1575.56 954.357 1576.22 953.286 1576.88 952.214 1577.53 951.357 1577.53 951.143 1577.75 950.929 1577.97 950.929 1578.19 950.929 1578.41 951.143 1578.63 951.143 1578.63 951.357 1578.63 951.357 1578.63 951.571 1578.63 951.786 1578.63 952 1578.63 952 1575.78 955.857 1574.25 959.5 1574.25 962.714 1574.25 964.214 1574.69 965.5 1575.34 966.357 1576 967.428 1576.88 967.857 1578.41 967.857 1579.5 967.857 1580.59 967.643 1581.69 967 1582.56 966.357 1583.44 965.5 1584.31 964.428 1584.31 963.786 1584.31 962.928 1584.53 961.857 1584.75 960.571 1584.97 959.714 1585.41 958.643 1585.84 957.786 1586.28 957.357 1586.94 957.357 1587.59 957.357 1588.03 957.786 1588.03 958.643 1588.03 959.071 1587.81 959.714 1587.59 960.357 1587.38 961.214 1587.16 961.857 1586.94 962.5 1586.72 963.143 1586.5 963.786 1586.06 964.643 1586.5 966.786 1587.59 967.857 1589.34 967.857 1590.44 967.857 1591.53 967.643 1592.62 967 1593.72 966.357 1594.81 965.5 1595.69 964.643 1596.56 963.571 1597.22 962.5 1597.66 961.428 1598.09 960.143 1598.31 959.071 1598.31 958 1598.31 957.143 1598.09 956.5 1597.88 955.857 1597.66 955.429 1597.22 954.786 1596.78 954.143 1596.12 953.714 1595.91 953.286 1595.91 952.857 1595.91 952.214 1596.12 951.786 1596.78 951.143 1597.22 950.714 1597.88 950.5 1598.31 950.5 1599.19 950.5 1599.62 950.714 1600.06 951.571 1600.28 952.214 1600.5 952.857 1600.5 953.929 1600.5 955.214 1600.28 956.929 1599.62 959.071 1599.19 961.428 1598.53 963.143 1597.66 964.643 1596.78 966.571 1595.47 968.071 1593.94 969.571 1592.41 970.857 1590.66 971.5 1588.69 971.5 1587.59 971.5 1586.5 971.071 1585.84 970.428 1584.97 969.571 1584.53 968.714 1584.31 967.428 1583.44 968.714 1582.56 969.571 1581.25 970.428 1580.16 971.071 1579.06 971.5 1577.75 971.5" stroke="#000000" stroke-width="0" stroke-linejoin="round" stroke-miterlimit="10" fill-rule="evenodd"/><text font-family="Arial,Arial_MSFontService,sans-serif" font-weight="400" font-size="46" transform="matrix(1 0 0 1 1602.45 974)">)|</text><path d="M2779.42 1162 1557.16 1162 1489 1514 2847 1514 2779.42 1162Z" fill="#FFFFFF" fill-rule="evenodd"/><path d="M1489 1514 1557.16 1162 2779.42 1162 2847 1514 1489 1514" stroke="#000000" stroke-width="2.29167" stroke-miterlimit="8" fill="none" fill-rule="evenodd"/><text font-family="Arial,Arial_MSFontService,sans-serif" font-weight="400" font-size="46" transform="matrix(1 0 0 1 1557.76 1536)">|<tspan font-size="46" x="0" y="97">f</tspan><tspan font-size="37" x="13.75" y="115">1</tspan><tspan font-size="46" x="1222.6" y="0">|</tspan><tspan font-size="46" x="1222.6" y="97">f</tspan><tspan font-size="37" x="1236.35" y="115">2</tspan><tspan font-size="46" x="0" y="-448">A</tspan><tspan font-size="37" x="30.9375" y="-430">1</tspan></text><path d="M1557 1162 1564 1138 1557 1138 1550 1138 1557 1162Z" fill-rule="evenodd"/><path d="M1557 1092 1557 1137.53 1550 1137.53 1557 1162 1564 1137.53 1557 1137.53 1557 1092 1557 1092" stroke="#000000" stroke-width="2.29167" stroke-miterlimit="8" fill="none" fill-rule="evenodd"/><text font-family="Arial,Arial_MSFontService,sans-serif" font-weight="400" font-size="46" transform="matrix(1 0 0 1 2914.43 1212)">A<tspan font-size="37" x="30.9375" y="19">2</tspan></text><path d="M2811 1169 2811 1162.5 2811 1156 2780 1162.5 2811 1169Z" fill-rule="evenodd"/><path d="M2916 1162.5 2811.56 1162.5 2811.56 1169 2780 1162.5 2811.56 1156 2811.56 1162.5 2916 1162.5 2916 1162.5" stroke="#000000" stroke-width="2.29167" stroke-miterlimit="8" fill="none" fill-rule="evenodd"/><path d="M1489 1514 2984 1514" stroke="#262626" stroke-width="2.29167" stroke-linejoin="round" stroke-miterlimit="10" fill="none" fill-rule="evenodd"/><path d="M0 0 0.000360892 14.9998" stroke="#262626" stroke-width="2.29167" stroke-linejoin="round" stroke-miterlimit="10" fill="none" fill-rule="evenodd" transform="matrix(1 0 0 -1 1489 1514)"/><path d="M0 0 0.000360892 14.9998" stroke="#262626" stroke-width="2.29167" stroke-linejoin="round" stroke-miterlimit="10" fill="none" fill-rule="evenodd" transform="matrix(1 0 0 -1 2847 1514)"/><text fill="#262626" font-family="Arial,Arial_MSFontService,sans-serif" font-weight="400" font-size="46" transform="matrix(1 0 0 1 2835.36 1584)">1</text><path d="M0 0 0.000360892 598" stroke="#262626" stroke-width="2.29167" stroke-linejoin="round" stroke-miterlimit="10" fill="none" fill-rule="evenodd" transform="matrix(1 0 0 -1 1489 1514)"/></g></svg>