<svg width="4465" height="1098" xmlns="http://www.w3.org/2000/svg" xmlns:xlink="http://www.w3.org/1999/xlink" xml:space="preserve" overflow="hidden"><defs><clipPath id="clip0"><rect x="0" y="813" width="4465" height="1098"/></clipPath><clipPath id="clip1"><rect x="0" y="812" width="4400" height="851"/></clipPath><clipPath id="clip2"><rect x="0" y="812" width="4400" height="851"/></clipPath><clipPath id="clip3"><rect x="0" y="812" width="4400" height="851"/></clipPath><clipPath id="clip4"><rect x="0" y="812" width="4400" height="851"/></clipPath></defs><g clip-path="url(#clip0)" transform="matrix(1 0 0 1 0 -813)"><g clip-path="url(#clip1)"><g clip-path="url(#clip2)"><g clip-path="url(#clip3)"><g clip-path="url(#clip4)"><path d="M1507.65 2931.11 1516.33 2894.47 1525.02 2923.39 1533.71 2883.85 1541.43 2828.91 1550.11 2799.97 1558.79 2863.61 1567.48 2836.62 1576.17 2810.58 1584.85 2794.19 1593.54 2832.76 1602.22 2851.07 1610.91 2789.37 1619.59 2928.21 1628.28 2787.43 1636.96 2797.08 1644.68 2756.59 1653.37 2939.78 1662.05 2809.62 1670.74 2764.3 1679.42 2745.02 1688.11 2772 1696.79 2966.78 1705.48 2732.48 1714.15 2774.9 1722.85 2709.34 1731.54 2930.15 1740.21 2659.19 1747.95 2813.47 1756.62 2676.56 1765.31 2650.51 1773.99 2613.88 1782.68 2657.27 1791.36 2553.13 1800.05 2585.91 1808.74 2381.5 1817.42 2329.43 1826.11 2206.96 1834.78 2322.67 1843.48 2455.75 1851.19 2448.99 1859.88 2691.97 1868.56 2694.87 1877.25 2693.91 1885.94 2641.84 1894.62 2647.62 1903.31 2736.34 1911.99 2662.09 1920.68 2649.55 1929.35 2769.12 1938.04 2875.18 1946.74 2639.92 1954.45 2813.47 1963.14 2723.79 1971.82 2810.58 1980.51 2753.69 1989.19 2681.37 1997.88 2734.4 2006.55 2729.59 2015.25 2681.37 2023.94 2664.98 2032.61 2757.55 2041.31 2718.97 2049.98 2693.91 2057.71 2777.8 2066.39 2879.04 2075.08 2696.8 2083.76 2821.19 2092.45 2711.26 2101.14 2670.76 2109.82 2746.94 2118.51 2578.2 2127.18 2482.74 2135.88 2457.67 2144.55 2300.5 2153.24 2341.96 2160.96 2421.99 2169.65 2502.02 2178.34 2708.38 2187.02 2621.59 2195.71 2800.94 2204.38 2652.45 2213.08 2725.73 2221.75 2701.62 2230.44 2780.69 2239.14 2639.92 2247.81 2742.12 2256.5 2762.37 2264.22 2679.44 2272.91 2722.83 2281.59 2682.33 2290.28 2765.26 2298.95 2655.33 2307.65 2718.97 2316.34 2863.61 2325.01 2630.27 2333.71 2711.26 2342.38 2694.87 2351.07 2584.95 2359.77 2540.6 2367.48 2533.84 2376.16 2543.48 2384.85 2570.48 2393.54 2599.41 2402.22 2562.77 2410.91 2517.45 2419.58 2583.99 2428.27 2507.82 2436.95 2473.1 2445.64 2369.92 2454.33 2323.65 2463.01 2205.04 2470.74 2309.18 2479.42 2341 2488.11 2620.63 2496.78 2525.17 2505.48 2509.74 2514.15 2587.85 2522.84 2516.49 2531.54 2636.06 2540.21 2596.53 2548.9 2627.37 2557.58 2696.8 2566.27 2669.8 2573.99 2663.05 2582.68 2787.43 2591.35 2657.27 2600.05 2697.77 2608.74 2816.37 2617.41 2718.97 2626.11 2705.48 2634.78 2656.31 2643.47 2746.94 2652.17 2819.25 2660.84 2768.14 2669.53 2817.33 2677.25 2692.95 2685.94 2748.87 2694.61 2648.59 2703.31 2671.72 2711.98 2664.98 2720.67 2674.62 2729.35 2622.55 2738.04 2658.23 2746.73 2559.89 2755.41 2597.49 2764.1 2426.81 2772.78 2369.92 2780.51 2251.33 2789.18 2338.1 2797.88 2395.97 2806.55 2491.41 2815.24 2599.41 2823.94 2551.19 2832.61 2773.94 2841.3 2633.16 2849.98 2903.14 2858.67 2853.01 2867.36 2781.65 2876.04 2648.59 2883.75 2815.4 2892.45 2731.51 2901.14 2766.22 2909.81 2652.45 2918.51 2718.97 2927.18 2907 2935.87 2869.4 2944.55 2732.48 2953.24 2785.51 2961.93 2803.82 2970.61 2651.47 2979.3 2824.07 2987.01 2768.14 2995.71 2756.59 3004.38 2683.3 3013.07 2826.01 3021.75 2854.93 3030.44 2747.9 3039.13 2671.72 3047.81 2770.08 3056.5 2747.9 3065.18 2662.09 3073.87 2710.3 3082.56 2497.21 3090.28 2493.35 3098.95 2337.14 3107.64 2352.57 3116.34 2526.13 3125.01 2500.1 3133.7 2483.71 3142.38 2790.33 3151.07 2782.61 3159.76 2620.63 3168.44 2753.69 3177.13 2821.19 3185.81 2856.87 3193.54 2632.2 3202.21 2874.22 3210.9 2753.69 3219.58 2836.62 3228.27 2650.51 3236.95 2831.79 3245.64 2739.22 3254.33 2782.61 3263.01 2734.4 3271.7 2791.29 3280.37 2850.11 3289.07 2708.38 3296.78 2844.34 3305.47 2895.43 3314.15 2865.54 3322.84 2705.48 3331.53 2894.47 3340.21 2752.73 3348.9 2853.01 3357.58 2731.51 3366.27 2799 3374.96 2806.72 3383.64 2767.18 3392.33 2841.44 3400.04 2875.18 3408.74 2850.11 3417.41 2744.04 3426.1 2853.97 3434.78 2868.44 3443.47 2857.83 3452.15 2747.9 3460.84 2943.64 3468.55 2762.37 3477.24 2877.12 3486.9 2770.08 3495.57 2793.23 3503.3 2875.18 3511.98 2767.18 3520.67 2932.07 3529.35 2923.39 3538.04 2873.26 3546.73 2758.51 3555.41 2883.85 3564.1 2820.21 3571.81 2858.79 3580.51 2804.8 3589.18 2887.71 3598.83 2798.04 3606.55 2839.5 3615.24 2804.8 3623.93 2822.15 3632.61 2866.5 3641.3 2783.57 3649.98 2861.69 3658.67 2864.58 3667.34 2880.97 3675.08 2774.9 3683.75 2886.75 3692.44 2804.8 3701.13 2879.04 3709.81 2813.47 3718.5 2822.15 3727.18 2849.15 3735.87 2813.47 3744.54 2888.69 3753.24 2890.61 3761.93 2872.28 3770.6 2794.19 3778.34 2863.61 3787.01 2860.73 3795.7 2881.93 3804.38 2819.25 3813.07 2977.4 3821.75 2805.76 3830.44 2906.04 3839.13 2803.82 3847.81 2813.47 3856.5 2904.1 3865.17 2811.54 3873.87 2912.79 3881.58 2887.71 3890.27 2897.36 3898.95 2789.37 3907.64 2880.97 3916.33 2853.97 3925.01 2886.75 3933.7 2905.08 3942.38 2915.68 3951.07 2834.68 3959.76 2873.26 3968.44 2840.48 3977.13 2837.58 3984.84 2889.65 3993.53 2826.97 4002.21 2874.22 4010.9 2848.18 4019.58 2905.08 4028.27 2806.72 4036.94 2881.93 4045.64 2851.07 4054.33 2910.86 4063 2845.3 4071.7 2848.18 4080.37 2885.79 4088.1 2849.15 4096.78 2904.1 4105.47 2907 4114.15 2901.22 4122.84 2822.15 4131.53 2882.89 4140.21 2856.87 4148.9 2917.61 4157.57 2864.58 4166.27 2944.62 4174.96 2847.22 4183.63 2955.21 4191.35 2832.76 4200.04 2832.76 4208.73 2913.75 4217.41 2855.89 4226.1 2911.82 4234.78 2875.18 4243.47 2914.72 4252.14 2814.44 4260.83 2876.14 4269.53 2885.79 4278.2 2914.72 4286.89 2950.39 4294.61 2964.86 4303.3 2865.54 4311.98 2910.86 4320.67 2870.36 4329.34 2855.89 4338.04 2908.94 4346.73 2863.61 4355.4 2891.57 4364.1 2843.36 4372.77 2936.9 4381.46 2832.76 4390.16 2874.22 4397.87 2905.08 4406.55 2946.54 4415.24 2870.36 4423.93 2868.44 4432.61 2902.18 4441.3 2898.32 4449.97 2918.57 4458.67 2890.61 4467.36 2915.68 4476.03 2845.3 4484.73 2881.93 4493.4 2853.01 4501.13 2933.04 4509.81 2903.14 4518.5 2918.57 4527.17 2884.83 4535.87 2980.28 4544.54 2870.36 4553.23 2850.11 4561.93 2917.61 4570.6 2898.32 4579.29 2915.68 4587.97 2860.73 4596.66 2930.15 4604.38 2839.5 4613.07 2871.32 4621.74 2909.9 4630.44 2932.07 4639.13 3050.67 4647.8 2969.68 4656.5 2891.57 4665.17 2973.54 4673.86 2904.1 4682.56 2873.26 4691.23 2911.82 4699.92 2908.94 4707.64 2909.9 4716.33 2837.58 4725.01 2928.21 4733.7 2858.79 4742.37 2861.69 4751.06 2964.86 4759.74 2940.76 4768.43 2915.68 4777.12 2889.65 4785.8 2917.61 4794.49 2954.25 4803.17 2947.5 4810.9 2897.36 4819.57 2907 4828.27 2874.22 4836.94 2891.57 4845.63 2859.75 4854.33 2926.29 4863 2927.25 4871.69 2893.51 4880.37 2915.68 4889.06 3001.5 4897.75 2913.75 4906.43 2867.46 4914.14 2911.82 4922.84 2958.11 4931.53 2929.19 4940.2 2854.93 4948.9 2913.75 4957.57 2868.44 4966.26 2856.87 4974.96 2928.21 4983.63 2915.68 4992.32 3001.5 5001 2988.97 5009.69 2913.75 5017.41 3042.96 5026.1 2951.35 5034.77 2893.51 5043.46 2899.28 5052.14 2973.54 5060.83 2931.11 5069.52 2839.5 5078.2 2923.39 5086.89 2879.04 5095.57 2853.97 5104.26 3018.85 5112.95 2918.57 5120.67 2933.04 5129.34 2907.96 5138.03 2909.9 5146.73 2971.6 5155.4 2959.07 5164.09 2893.51 5172.77 2914.72 5181.46 2913.75 5190.15 2894.47 5198.83 2863.61 5207.52 2912.79 5216.2 2924.35 5223.93 2884.83 5232.6 2915.68 5241.29 2941.72 5249.97 2931.11 5258.66 2880.97 5267.34 2905.08 5276.03 2997.64 5284.72 2952.31 5293.4 2858.79 5302.09 2904.1 5310.76 2887.71 5319.46 2850.11 5327.17 2929.19 5335.86 2906.04 5344.54 2938.82 5353.23 3005.36 5361.92 2924.35 5370.6 2975.46 5379.29 2961.97 5387.97 2910.86 5396.66 2899.28 5405.35 3035.24 5414.03 2960.03 5422.72 2850.11 5430.43 2904.1 5439.13 2894.47 5447.8 2850.11 5456.49 2938.82 5465.17 2914.72 5473.86 2916.65 5482.55 2934.96 5491.23 2921.47 5499.92 2934.96 5508.6 2946.54 5517.29 2895.43 5525.96 2907.96 5533.69 2927.25 5542.37 2890.61 5551.06 2880.97 5559.74 2903.14 5568.43 2911.82 5577.12 2886.75 5585.8 2926.29 5594.49 2923.39 5603.16 2921.47 5611.86 2898.32 5620.55 2905.08 5629.22 2958.11 5636.94 2944.62 5645.63 2869.4 5654.32 2901.22 5663 2908.94 5671.69 2850.11 5680.37 2924.35 5689.06 2905.08 5697.75 2901.22 5705.47 2968.72 5714.14 2947.5 5723.79 2931.11 5732.49 2902.18 5740.2 2926.29 5748.89 2913.75 5757.57 2993.79 5766.26 2997.64 5774.95 2868.44 5783.63 2894.47 5792.32 2915.68 5801 2846.26 5808.73 2915.68 5817.4 2910.86 5826.09 2881.93 5834.77 2943.64 5843.46 2939.78 5852.14 2919.53 5860.83 2922.43 5869.52 2908.94 5878.2 2910.86 5886.89 2946.54 5895.56 2883.85 5904.26 2904.1" stroke="#0072BD" stroke-width="3.86037" stroke-linejoin="round" stroke-miterlimit="10" fill="none" fill-rule="evenodd" transform="matrix(1.00001 0 0 1 -1505.97 -1390.36)"/></g></g></g></g><path d="M13.0001 1705.12 4332.24 1705.13 4332.24 1718.88 13.0001 1718.87ZM4325.36 1677.63 4394.11 1712 4325.36 1746.38Z"/><text font-family="Cambria,Cambria_MSFontService,sans-serif" font-weight="400" font-size="110" transform="matrix(1 0 0 1 2054.33 1820)">Frequency</text></g></svg>