<svg width="965" height="516" xmlns="http://www.w3.org/2000/svg" xmlns:xlink="http://www.w3.org/1999/xlink" xml:space="preserve" overflow="hidden"><defs><clipPath id="clip0"><rect x="1694" y="994" width="965" height="516"/></clipPath></defs><g clip-path="url(#clip0)" transform="translate(-1694 -994)"><path d="M1788 1414 2654 1414" stroke="#262626" stroke-width="2.29167" stroke-linejoin="round" stroke-miterlimit="10" fill="none" fill-rule="evenodd"/><path d="M1788 995 2654 995.001" stroke="#262626" stroke-width="2.29167" stroke-linejoin="round" stroke-miterlimit="10" fill="none" fill-rule="evenodd"/><path d="M0 0 0.000360892 8.99993" stroke="#262626" stroke-width="2.29167" stroke-linejoin="round" stroke-miterlimit="10" fill="none" fill-rule="evenodd" transform="matrix(1 0 0 -1 1932 1414)"/><path d="M0 0 0.000360892 8.99993" stroke="#262626" stroke-width="2.29167" stroke-linejoin="round" stroke-miterlimit="10" fill="none" fill-rule="evenodd" transform="matrix(1 0 0 -1 2221 1414)"/><path d="M0 0 0.000360892 8.99993" stroke="#262626" stroke-width="2.29167" stroke-linejoin="round" stroke-miterlimit="10" fill="none" fill-rule="evenodd" transform="matrix(1 0 0 -1 2509 1414)"/><path d="M1932 995 1932 1004" stroke="#262626" stroke-width="2.29167" stroke-linejoin="round" stroke-miterlimit="10" fill="none" fill-rule="evenodd"/><path d="M2221 995 2221 1004" stroke="#262626" stroke-width="2.29167" stroke-linejoin="round" stroke-miterlimit="10" fill="none" fill-rule="evenodd"/><path d="M2509 995 2509 1004" stroke="#262626" stroke-width="2.29167" stroke-linejoin="round" stroke-miterlimit="10" fill="none" fill-rule="evenodd"/><path d="M1909.37 1448.5C1909.15 1448.5 1908.94 1448.5 1908.72 1448.36 1908.72 1448.21 1908.5 1448.21 1908.5 1448.07 1908.5 1447.93 1908.72 1447.79 1908.72 1447.64 1908.94 1447.64 1909.15 1447.5 1909.37 1447.5L1931.85 1447.5C1932.06 1447.5 1932.28 1447.64 1932.28 1447.64 1932.5 1447.79 1932.5 1447.93 1932.5 1448.07 1932.5 1448.21 1932.5 1448.21 1932.28 1448.36 1932.28 1448.5 1932.06 1448.5 1931.85 1448.5L1909.37 1448.5Z" stroke="#000000" stroke-width="0" stroke-linejoin="round" stroke-miterlimit="10" fill="#262626" fill-rule="evenodd"/><path d="M1943.47 1458.5C1942.36 1458.5 1941.26 1458.28 1940.37 1457.6 1939.49 1456.93 1938.61 1456.25 1938.16 1455.35 1937.72 1454.22 1937.5 1453.33 1937.5 1451.98 1937.5 1450.85 1937.72 1449.5 1938.38 1448.15 1938.83 1446.8 1939.71 1445.45 1940.59 1444.33 1941.48 1443.2 1942.58 1442.3 1943.91 1441.63 1945.02 1440.95 1946.34 1440.5 1947.67 1440.5L1957.62 1440.5C1957.84 1440.5 1958.06 1440.73 1958.28 1440.73 1958.5 1440.95 1958.5 1441.18 1958.5 1441.63 1958.5 1441.85 1958.5 1442.3 1958.28 1442.53 1957.84 1442.98 1957.62 1442.98 1957.17 1442.98L1952.31 1442.98C1953.19 1444.1 1953.42 1445.68 1953.42 1447.25 1953.42 1448.6 1953.19 1449.95 1952.75 1451.3 1952.09 1452.65 1951.43 1453.78 1950.54 1454.9 1949.66 1456.03 1948.55 1456.93 1947.23 1457.38 1946.12 1458.05 1944.79 1458.5 1943.47 1458.5ZM1943.47 1457.38C1945.02 1457.38 1946.12 1456.7 1947.45 1455.57 1948.55 1454.45 1949.22 1453.1 1949.88 1451.3 1950.54 1449.73 1950.76 1448.15 1950.76 1446.8 1950.76 1445.68 1950.54 1444.78 1949.88 1444.1 1949.22 1443.43 1948.33 1442.98 1947.23 1442.98 1945.68 1442.98 1944.35 1443.65 1943.25 1444.55 1942.14 1445.68 1941.48 1447.03 1940.82 1448.6 1940.37 1450.18 1940.15 1451.75 1940.15 1453.33 1940.15 1454.45 1940.37 1455.35 1941.04 1456.25 1941.7 1456.93 1942.36 1457.38 1943.47 1457.38Z" stroke="#000000" stroke-width="0" stroke-linejoin="round" stroke-miterlimit="10" fill="#262626" fill-rule="evenodd"/><path d="M2221.5 1458.5C2218.34 1458.5 2216.24 1457.19 2215.18 1454.36 2214.13 1451.75 2213.5 1448.7 2213.5 1445 2213.5 1442.82 2213.71 1440.65 2214.13 1438.69 2214.55 1436.73 2215.39 1434.98 2216.45 1433.46 2217.71 1432.15 2219.39 1431.5 2221.5 1431.5 2223.18 1431.5 2224.45 1431.94 2225.71 1432.81 2226.76 1433.46 2227.39 1434.55 2228.03 1436.07 2228.66 1437.38 2229.08 1438.69 2229.29 1440.21 2229.5 1441.73 2229.5 1443.48 2229.5 1445 2229.5 1447.4 2229.29 1449.35 2228.87 1451.31 2228.45 1453.27 2227.61 1455.02 2226.55 1456.32 2225.29 1457.85 2223.61 1458.5 2221.5 1458.5ZM2221.5 1457.41C2222.97 1457.41 2224.03 1456.76 2224.66 1455.23 2225.29 1453.71 2225.71 1451.97 2225.92 1450.23 2226.13 1448.48 2226.13 1446.52 2226.13 1444.35 2226.13 1442.39 2226.13 1440.65 2225.92 1438.9 2225.71 1437.38 2225.29 1435.85 2224.66 1434.55 2224.03 1433.24 2222.97 1432.37 2221.5 1432.37 2220.03 1432.37 2218.97 1433.24 2218.34 1434.55 2217.71 1435.85 2217.29 1437.38 2217.08 1439.12 2216.87 1440.65 2216.87 1442.39 2216.87 1444.35 2216.87 1445.87 2216.87 1447.18 2216.87 1448.48 2217.08 1449.79 2217.08 1451.1 2217.5 1452.62 2217.71 1453.93 2218.34 1455.02 2218.97 1456.1 2219.61 1456.98 2220.45 1457.41 2221.5 1457.41Z" stroke="#000000" stroke-width="0" stroke-linejoin="round" stroke-miterlimit="10" fill="#262626" fill-rule="evenodd"/><path d="M2505.47 1458.5C2504.14 1458.5 2503.26 1458.28 2502.37 1457.6 2501.27 1456.93 2500.61 1456.25 2500.16 1455.35 2499.72 1454.22 2499.5 1453.33 2499.5 1451.98 2499.5 1450.85 2499.72 1449.5 2500.16 1448.15 2500.83 1446.8 2501.49 1445.45 2502.59 1444.33 2503.48 1443.2 2504.58 1442.3 2505.91 1441.63 2507.02 1440.95 2508.34 1440.5 2509.45 1440.5L2519.62 1440.5C2519.84 1440.5 2520.06 1440.73 2520.28 1440.73 2520.5 1440.95 2520.5 1441.18 2520.5 1441.63 2520.5 1441.85 2520.5 1442.3 2520.06 1442.53 2519.84 1442.98 2519.62 1442.98 2519.17 1442.98L2514.31 1442.98C2514.97 1444.1 2515.42 1445.68 2515.42 1447.25 2515.42 1448.6 2515.19 1449.95 2514.75 1451.3 2514.09 1452.65 2513.43 1453.78 2512.54 1454.9 2511.66 1456.03 2510.55 1456.93 2509.23 1457.38 2508.12 1458.05 2506.79 1458.5 2505.47 1458.5ZM2505.47 1457.38C2506.79 1457.38 2508.12 1456.7 2509.23 1455.57 2510.33 1454.45 2511.22 1453.1 2511.88 1451.3 2512.54 1449.73 2512.76 1448.15 2512.76 1446.8 2512.76 1445.68 2512.54 1444.78 2511.88 1444.1 2511.22 1443.43 2510.33 1442.98 2509.23 1442.98 2507.68 1442.98 2506.35 1443.65 2505.25 1444.55 2504.14 1445.68 2503.48 1447.03 2502.82 1448.6 2502.37 1450.18 2501.93 1451.75 2501.93 1453.33 2501.93 1454.45 2502.37 1455.35 2503.04 1456.25 2503.48 1456.93 2504.36 1457.38 2505.47 1457.38Z" stroke="#000000" stroke-width="0" stroke-linejoin="round" stroke-miterlimit="10" fill="#262626" fill-rule="evenodd"/><path d="M2180.23 1508.5 2180.23 1507.04C2181.71 1507.04 2182.98 1506.83 2184.47 1506.83 2185.74 1506.62 2186.38 1506.2 2186.38 1505.58L2186.38 1482.21C2186.38 1481.59 2186.38 1481.17 2185.95 1481.17 2185.53 1480.96 2185.11 1480.96 2184.26 1480.96L2182.35 1480.96C2180.02 1480.96 2178.32 1481.38 2177.26 1482.42 2176.83 1483.05 2176.41 1483.67 2176.2 1484.92 2175.98 1485.97 2175.77 1487.43 2175.77 1489.1L2174.5 1489.1 2175.35 1479.5 2201.65 1479.5 2202.5 1489.1 2201.23 1489.1C2201.01 1487.43 2200.8 1485.97 2200.59 1484.72 2200.59 1483.67 2200.17 1482.84 2199.53 1482.42 2198.47 1481.38 2196.77 1480.96 2194.44 1480.96L2192.74 1480.96C2192.11 1480.96 2191.68 1480.96 2191.47 1480.96 2191.26 1480.96 2191.05 1481.17 2190.83 1481.38 2190.62 1481.59 2190.41 1481.79 2190.41 1482.21L2190.41 1505.58C2190.41 1506.2 2191.26 1506.62 2192.53 1506.83 2193.8 1506.83 2195.29 1507.04 2196.77 1507.04L2196.77 1508.5 2180.23 1508.5Z" stroke="#000000" stroke-width="0" stroke-linejoin="round" stroke-miterlimit="10" fill="#262626" fill-rule="evenodd"/><path d="M2205.5 1508.5 2205.5 1507.02C2206.32 1507.02 2207.14 1506.81 2207.75 1506.81 2208.36 1506.59 2208.57 1506.17 2208.57 1505.54L2208.57 1493.89C2208.57 1492.62 2208.36 1491.99 2207.95 1491.78 2207.55 1491.57 2206.73 1491.35 2205.5 1491.35L2205.5 1489.87 2211.64 1489.45 2211.64 1505.54C2211.64 1506.17 2211.84 1506.59 2212.45 1506.81 2212.86 1506.81 2213.68 1507.02 2214.5 1507.02L2214.5 1508.5 2205.5 1508.5ZM2207.14 1482.04C2207.14 1481.41 2207.34 1480.77 2207.95 1480.35 2208.36 1479.92 2208.98 1479.5 2209.39 1479.5 2209.8 1479.5 2210.2 1479.71 2210.61 1479.92 2211.02 1480.14 2211.23 1480.35 2211.43 1480.77 2211.64 1481.19 2211.84 1481.62 2211.84 1482.04 2211.84 1482.68 2211.64 1483.1 2211.02 1483.73 2210.61 1484.16 2210 1484.37 2209.39 1484.37 2208.98 1484.37 2208.36 1484.16 2207.95 1483.73 2207.34 1483.1 2207.14 1482.68 2207.14 1482.04Z" stroke="#000000" stroke-width="0" stroke-linejoin="round" stroke-miterlimit="10" fill="#262626" fill-rule="evenodd"/><path d="M2216.5 1508.5 2216.5 1507.02C2217.56 1507.02 2218.2 1506.81 2218.84 1506.81 2219.48 1506.6 2219.9 1506.18 2219.9 1505.54L2219.9 1493.93C2219.9 1493.09 2219.69 1492.46 2219.48 1492.24 2219.26 1491.82 2218.84 1491.61 2218.41 1491.61 2217.99 1491.4 2217.35 1491.4 2216.5 1491.4L2216.5 1489.92 2222.66 1489.5 2222.66 1493.72C2223.3 1492.46 2224.15 1491.4 2225.43 1490.56 2226.49 1489.92 2227.76 1489.5 2229.04 1489.5 2232.44 1489.5 2234.35 1490.77 2234.99 1493.51 2235.41 1492.24 2236.26 1491.4 2237.54 1490.56 2238.6 1489.71 2239.88 1489.5 2241.15 1489.5 2242.43 1489.5 2243.49 1489.71 2244.34 1490.13 2245.4 1490.56 2246.04 1491.19 2246.46 1492.03 2246.89 1492.88 2247.1 1493.93 2247.1 1495.2L2247.1 1505.54C2247.1 1506.18 2247.53 1506.6 2248.16 1506.81 2248.8 1506.81 2249.44 1507.02 2250.5 1507.02L2250.5 1508.5 2240.51 1508.5 2240.51 1507.02C2241.57 1507.02 2242.43 1506.81 2243.06 1506.81 2243.7 1506.6 2243.91 1506.18 2243.91 1505.54L2243.91 1495.41C2243.91 1493.93 2243.7 1492.67 2243.28 1491.82 2242.85 1490.98 2242.21 1490.56 2240.94 1490.56 2239.24 1490.56 2237.75 1491.19 2236.69 1492.46 2235.62 1493.93 2234.99 1495.41 2234.99 1497.1L2234.99 1505.54C2234.99 1506.18 2235.41 1506.6 2236.05 1506.81 2236.69 1506.81 2237.54 1507.02 2238.39 1507.02L2238.39 1508.5 2228.61 1508.5 2228.61 1507.02C2229.46 1507.02 2230.31 1506.81 2230.95 1506.81 2231.59 1506.6 2232.01 1506.18 2232.01 1505.54L2232.01 1495.41C2232.01 1493.93 2231.8 1492.88 2231.38 1491.82 2230.95 1490.98 2230.1 1490.56 2228.82 1490.56 2227.12 1490.56 2225.64 1491.19 2224.57 1492.46 2223.51 1493.93 2223.09 1495.41 2223.09 1497.1L2223.09 1505.54C2223.09 1506.18 2223.3 1506.6 2223.94 1506.81 2224.57 1506.81 2225.43 1507.02 2226.49 1507.02L2226.49 1508.5 2216.5 1508.5Z" stroke="#000000" stroke-width="0" stroke-linejoin="round" stroke-miterlimit="10" fill="#262626" fill-rule="evenodd"/><path d="M2262.18 1509.5C2260.46 1509.5 2258.74 1509.05 2257.23 1508.16 2255.73 1507.04 2254.65 1505.93 2253.79 1504.14 2252.93 1502.57 2252.5 1500.79 2252.5 1499 2252.5 1497.21 2252.72 1495.65 2253.58 1493.86 2254.44 1492.3 2255.51 1490.96 2256.8 1490.06 2258.31 1489.17 2259.82 1488.5 2261.54 1488.5 2262.83 1488.5 2263.91 1488.72 2264.98 1489.39 2266.06 1489.84 2266.92 1490.51 2267.56 1491.18 2268.21 1492.07 2268.64 1492.97 2268.85 1494.08 2269.28 1495.2 2269.5 1496.54 2269.5 1497.88 2269.5 1498.33 2269.28 1498.55 2268.85 1498.55L2256.16 1498.55 2256.16 1499C2256.16 1501.46 2256.8 1503.69 2257.66 1505.48 2258.74 1507.27 2260.25 1508.16 2262.61 1508.16 2263.47 1508.16 2264.34 1507.94 2264.98 1507.49 2265.84 1507.27 2266.49 1506.6 2266.92 1505.93 2267.56 1505.03 2267.99 1504.36 2268.21 1503.47 2268.21 1503.24 2268.21 1503.24 2268.21 1503.24 2268.42 1503.02 2268.42 1503.02 2268.64 1503.02L2268.85 1503.02C2269.28 1503.02 2269.5 1503.24 2269.5 1503.69 2269.07 1505.26 2268.21 1506.82 2266.7 1507.94 2265.41 1509.05 2263.91 1509.5 2262.18 1509.5ZM2256.37 1497.44 2266.27 1497.44C2266.27 1496.32 2266.27 1494.98 2265.84 1493.86 2265.63 1492.74 2264.98 1491.85 2264.34 1490.96 2263.69 1490.29 2262.61 1489.84 2261.54 1489.84 2259.82 1489.84 2258.53 1490.51 2257.66 1492.3 2256.8 1493.86 2256.37 1495.65 2256.37 1497.44Z" stroke="#000000" stroke-width="0" stroke-linejoin="round" stroke-miterlimit="10" fill="#262626" fill-rule="evenodd"/><path d="M0 0 0.000360892 419" stroke="#262626" stroke-width="2.29167" stroke-linejoin="round" stroke-miterlimit="10" fill="none" fill-rule="evenodd" transform="matrix(1 0 0 -1 1788 1414)"/><path d="M0 0 0.000360892 419" stroke="#262626" stroke-width="2.29167" stroke-linejoin="round" stroke-miterlimit="10" fill="none" fill-rule="evenodd" transform="matrix(1 0 0 -1 2654 1414)"/><path d="M1788 1354 1797 1354" stroke="#262626" stroke-width="2.29167" stroke-linejoin="round" stroke-miterlimit="10" fill="none" fill-rule="evenodd"/><path d="M1788 1055 1797 1055" stroke="#262626" stroke-width="2.29167" stroke-linejoin="round" stroke-miterlimit="10" fill="none" fill-rule="evenodd"/><path d="M0 0 8.99993 0.000360892" stroke="#262626" stroke-width="2.29167" stroke-linejoin="round" stroke-miterlimit="10" fill="none" fill-rule="evenodd" transform="matrix(-1 0 0 1 2654 1354)"/><path d="M0 0 8.99993 0.000360892" stroke="#262626" stroke-width="2.29167" stroke-linejoin="round" stroke-miterlimit="10" fill="none" fill-rule="evenodd" transform="matrix(-1 0 0 1 2654 1055)"/><path d="M1769 1364.5C1765.64 1364.5 1763.41 1363.23 1762.29 1360.7 1761.17 1358.16 1760.5 1355.2 1760.5 1351.61 1760.5 1349.49 1760.72 1347.38 1761.17 1345.48 1761.62 1343.36 1762.29 1341.88 1763.63 1340.4 1764.97 1339.13 1766.76 1338.5 1769 1338.5 1770.79 1338.5 1772.13 1338.92 1773.25 1339.56 1774.37 1340.4 1775.26 1341.46 1775.93 1342.73 1776.38 1344 1776.83 1345.48 1777.05 1346.96 1777.28 1348.43 1777.5 1349.91 1777.5 1351.61 1777.5 1353.72 1777.28 1355.83 1776.83 1357.74 1776.38 1359.64 1775.49 1361.33 1774.37 1362.6 1773.03 1363.87 1771.24 1364.5 1769 1364.5ZM1769 1363.65C1770.34 1363.65 1771.46 1362.81 1772.36 1361.33 1773.03 1360.06 1773.47 1358.37 1773.7 1356.68 1773.92 1354.78 1773.92 1352.87 1773.92 1350.97 1773.92 1349.07 1773.92 1347.38 1773.7 1345.69 1773.47 1344 1773.03 1342.73 1772.36 1341.25 1771.68 1339.98 1770.57 1339.35 1769 1339.35 1767.43 1339.35 1766.32 1339.98 1765.64 1341.25 1764.75 1342.73 1764.3 1344.21 1764.3 1345.69 1764.08 1347.38 1764.08 1349.07 1764.08 1350.97 1764.08 1352.45 1764.08 1353.72 1764.08 1354.99 1764.08 1356.26 1764.3 1357.52 1764.75 1358.79 1764.97 1360.27 1765.42 1361.33 1766.09 1362.17 1766.99 1363.23 1767.88 1363.65 1769 1363.65Z" stroke="#000000" stroke-width="0" stroke-linejoin="round" stroke-miterlimit="10" fill="#262626" fill-rule="evenodd"/><path d="M1750.94 1065.5C1750.5 1065.5 1750.5 1065.28 1750.5 1064.85 1750.5 1064.2 1750.72 1063.98 1750.94 1063.98 1752.02 1063.98 1752.9 1063.76 1753.77 1063.33 1754.42 1062.9 1755.07 1062.24 1755.73 1061.38 1755.73 1061.38 1755.73 1061.38 1755.73 1061.38L1769.88 1037.93C1769.88 1037.5 1770.31 1037.5 1770.53 1037.5L1770.97 1037.5C1771.19 1037.5 1771.19 1037.5 1771.19 1037.5 1771.4 1037.5 1771.4 1037.5 1771.4 1037.72 1771.62 1037.72 1771.62 1037.72 1771.62 1037.93L1774.02 1063.11C1774.02 1063.11 1774.02 1063.33 1774.02 1063.55 1774.45 1063.98 1775.32 1063.98 1777.06 1063.98 1777.28 1063.98 1777.5 1064.2 1777.5 1064.63 1777.28 1064.85 1777.28 1065.07 1777.28 1065.28 1777.06 1065.28 1777.06 1065.5 1776.85 1065.5L1767.05 1065.5C1766.83 1065.5 1766.61 1065.28 1766.61 1064.85 1766.83 1064.2 1766.83 1063.98 1767.05 1063.98 1769.23 1063.98 1770.31 1063.76 1770.31 1062.9L1769.88 1056.6 1760.08 1056.6 1757.03 1061.81C1756.81 1062.03 1756.81 1062.46 1756.81 1062.68 1756.81 1063.11 1757.03 1063.55 1757.47 1063.76 1757.9 1063.98 1758.34 1063.98 1758.77 1063.98 1758.99 1063.98 1759.21 1064.2 1759.21 1064.63 1759.21 1064.85 1758.99 1065.07 1758.99 1065.28 1758.99 1065.28 1758.77 1065.5 1758.56 1065.5L1750.94 1065.5ZM1760.95 1055.08 1769.66 1055.08 1768.57 1042.49 1760.95 1055.08Z" stroke="#000000" stroke-width="0" stroke-linejoin="round" stroke-miterlimit="10" fill="#262626" fill-rule="evenodd"/><path d="M1721.91 1240.87C1721.26 1240.87 1720.62 1240.87 1719.76 1240.66 1718.9 1240.45 1718.25 1240.24 1717.61 1240.02 1716.96 1239.81 1716.1 1239.6 1714.81 1239.17 1713.52 1238.53 1712.88 1238.32 1712.66 1238.32 1711.59 1237.89 1710.73 1237.68 1710.08 1237.68 1709.22 1237.68 1708.79 1238.1 1708.79 1238.74 1708.79 1239.81 1709.44 1240.87 1710.51 1241.51 1711.8 1242.37 1713.09 1242.79 1714.6 1243.22 1714.81 1243.22 1714.81 1243.43 1714.81 1243.65L1714.81 1244.07C1714.81 1244.29 1714.6 1244.5 1714.38 1244.5L1714.17 1244.5C1712.45 1243.86 1710.94 1243.22 1709.65 1242.37 1708.36 1241.3 1707.71 1240.02 1707.71 1238.74 1707.71 1237.68 1707.93 1236.82 1708.58 1235.97 1709.44 1235.33 1710.3 1234.9 1711.37 1234.9 1711.8 1234.9 1712.45 1235.12 1712.88 1235.33 1713.95 1235.54 1715.03 1235.97 1716.1 1236.4 1717.39 1237.04 1718.47 1237.25 1719.54 1237.68 1720.62 1237.89 1721.48 1237.89 1722.55 1237.89 1723.63 1237.89 1724.49 1237.68 1725.35 1237.04 1725.99 1236.4 1726.42 1235.54 1726.42 1234.48 1726.42 1232.99 1725.13 1231.71 1722.77 1230.64 1722.55 1230.64 1722.34 1230.64 1722.12 1230.64 1721.26 1230.64 1720.4 1230.64 1719.33 1230.43L1709.44 1227.87C1709.22 1227.87 1708.79 1227.65 1708.58 1227.23 1708.15 1226.8 1708.15 1226.38 1708.15 1225.95 1708.15 1225.74 1708.15 1225.31 1708.36 1225.1 1708.58 1224.88 1709.01 1224.67 1709.44 1224.67 1709.44 1224.67 1709.65 1224.88 1709.65 1224.88L1719.54 1227.23C1720.62 1227.44 1721.69 1227.65 1722.55 1227.65 1723.63 1227.65 1724.7 1227.44 1725.35 1227.01 1725.99 1226.38 1726.42 1225.74 1726.42 1224.67 1726.42 1222.75 1725.13 1221.04 1722.55 1219.98 1721.69 1219.55 1720.4 1218.91 1718.68 1218.49 1716.96 1217.85 1715.67 1217.63 1714.81 1217.63 1713.95 1217.63 1713.31 1217.63 1712.66 1218.06 1712.23 1218.27 1711.8 1218.7 1711.16 1219.12 1710.51 1219.55 1710.08 1219.76 1709.87 1219.76 1709.22 1219.76 1708.79 1219.55 1708.36 1219.12 1707.71 1218.7 1707.5 1218.06 1707.5 1217.63 1707.5 1216.78 1707.93 1216.35 1708.58 1215.93 1709.22 1215.71 1709.87 1215.5 1710.73 1215.5 1711.8 1215.5 1712.88 1215.71 1714.6 1216.14 1716.1 1216.35 1717.61 1216.78 1719.11 1217.21 1720.62 1217.85 1721.91 1218.27 1722.77 1218.7 1725.99 1220.19 1727.5 1222.32 1727.5 1224.67 1727.5 1225.95 1727.28 1227.01 1726.85 1227.87 1726.42 1228.93 1725.56 1229.79 1724.49 1230.21 1725.35 1230.64 1725.99 1231.28 1726.64 1231.92 1727.28 1232.77 1727.5 1233.62 1727.5 1234.48 1727.5 1236.4 1727.07 1237.89 1726.21 1239.17 1725.13 1240.24 1723.84 1240.87 1721.91 1240.87Z" stroke="#000000" stroke-width="0" stroke-linejoin="round" stroke-miterlimit="10" fill="#262626" fill-rule="evenodd"/><path d="M1737.29 1200.54C1736.02 1202 1734.55 1203.46 1733.07 1204.5 1731.39 1205.75 1729.7 1206.58 1727.8 1207.42 1725.91 1208.04 1724.01 1208.67 1722.11 1209.08 1720.01 1209.29 1717.9 1209.5 1716 1209.5 1713.89 1209.5 1711.78 1209.29 1709.89 1209.08 1707.78 1208.67 1705.88 1208.04 1703.99 1207.42 1702.09 1206.58 1700.4 1205.75 1698.72 1204.5 1697.24 1203.46 1695.76 1202 1694.5 1200.54 1694.5 1200.54 1694.5 1200.33 1694.5 1200.33L1694.5 1199.92C1694.5 1199.71 1694.5 1199.71 1694.5 1199.71 1694.71 1199.5 1694.71 1199.5 1694.92 1199.5 1694.92 1199.5 1694.92 1199.5 1695.13 1199.71 1696.4 1200.96 1697.87 1202.21 1699.56 1203.04 1701.03 1204.08 1702.72 1204.71 1704.62 1205.33 1706.3 1205.96 1708.2 1206.38 1710.1 1206.58 1712 1206.79 1713.89 1207 1716 1207 1725.06 1207 1732.02 1204.5 1736.66 1199.71 1736.87 1199.5 1736.87 1199.5 1737.08 1199.5 1737.08 1199.5 1737.29 1199.5 1737.29 1199.71 1737.5 1199.71 1737.5 1199.92 1737.5 1199.92L1737.5 1200.33C1737.5 1200.33 1737.5 1200.54 1737.29 1200.54Z" stroke="#000000" stroke-width="0" stroke-linejoin="round" stroke-miterlimit="10" fill="#262626" fill-rule="evenodd"/><path d="M1723.41 1194.72C1722.98 1194.72 1722.55 1194.72 1722.33 1194.5L1709.62 1191.17 1709.62 1196.06C1709.62 1196.28 1709.41 1196.5 1708.98 1196.5 1708.33 1196.28 1708.12 1196.28 1708.12 1195.83L1708.12 1190.94 1700.79 1189.17C1700.58 1188.94 1700.15 1188.72 1699.93 1188.28 1699.72 1188.06 1699.5 1187.61 1699.5 1187.17 1699.5 1186.72 1699.72 1186.5 1699.93 1186.06 1700.15 1185.83 1700.36 1185.83 1700.79 1185.83 1700.79 1185.83 1700.79 1185.83 1701.01 1185.83 1701.01 1185.83 1701.01 1185.83 1701.01 1185.83L1708.12 1187.61 1708.12 1182.94C1708.12 1182.72 1708.33 1182.5 1708.55 1182.5 1708.76 1182.5 1708.76 1182.5 1708.98 1182.5 1709.19 1182.72 1709.41 1182.72 1709.41 1182.72 1709.62 1182.94 1709.62 1182.94 1709.62 1183.17L1709.62 1188.06 1722.33 1191.39C1723.19 1191.61 1723.84 1191.61 1724.48 1191.61 1725.78 1191.61 1726.42 1191.17 1726.42 1190.28 1726.42 1188.94 1725.78 1187.83 1724.48 1186.72 1723.41 1185.83 1721.9 1184.94 1720.61 1184.5 1720.39 1184.28 1720.39 1184.28 1720.39 1184.06L1720.39 1183.61C1720.39 1183.39 1720.39 1183.39 1720.39 1183.17 1720.61 1183.17 1720.61 1183.17 1720.61 1183.17 1720.82 1183.17 1720.82 1183.17 1720.82 1183.17 1722.55 1183.83 1724.05 1184.72 1725.56 1186.06 1726.85 1187.39 1727.5 1188.72 1727.5 1190.5 1727.5 1191.61 1727.07 1192.72 1726.42 1193.39 1725.56 1194.28 1724.7 1194.72 1723.41 1194.72Z" stroke="#000000" stroke-width="0" stroke-linejoin="round" stroke-miterlimit="10" fill="#262626" fill-rule="evenodd"/><path d="M1737.5 1178.08C1737.5 1178.29 1737.29 1178.5 1737.08 1178.5 1736.87 1178.5 1736.87 1178.5 1736.87 1178.5 1732.02 1173.5 1725.06 1171.21 1716 1171.21 1706.73 1171.21 1699.98 1173.5 1695.13 1178.29 1695.13 1178.5 1694.92 1178.5 1694.92 1178.5 1694.71 1178.5 1694.71 1178.5 1694.5 1178.29 1694.5 1178.29 1694.5 1178.29 1694.5 1178.08L1694.5 1177.67C1694.5 1177.67 1694.5 1177.46 1694.5 1177.46 1696.19 1175.37 1698.08 1173.71 1700.4 1172.46 1702.72 1171 1705.25 1170.17 1707.78 1169.54 1710.52 1168.71 1713.26 1168.5 1716 1168.5 1717.9 1168.5 1720.01 1168.71 1721.9 1168.92 1723.8 1169.33 1725.91 1169.96 1727.8 1170.58 1729.7 1171.42 1731.39 1172.25 1733.07 1173.5 1734.76 1174.54 1736.02 1176 1737.29 1177.46 1737.5 1177.46 1737.5 1177.67 1737.5 1177.67L1737.5 1178.08Z" stroke="#000000" stroke-width="0" stroke-linejoin="round" stroke-miterlimit="10" fill="#262626" fill-rule="evenodd"/><path d="M1788.5 1354.5 1788.5 1354.5 1789.07 1354.5 1789.07 1354.5 1789.07 1354.5 1789.65 1354.5 1789.65 1354.5 1789.65 1354.5 1790.22 1354.5 1790.22 1354.5 1790.79 1354.5 1790.79 1354.5 1790.79 1354.5 1791.37 1354.5 1791.37 1354.5 1791.37 1354.5 1791.94 1354.5 1792.51 1354.5 1792.51 1354.5 1792.51 1354.5 1793.09 1354.5 1793.09 1354.5 1793.09 1354.5 1793.66 1354.5 1793.66 1354.5 1794.23 1354.5 1794.23 1354.5 1794.23 1354.5 1794.8 1354.5 1794.8 1354.5 1795.38 1354.5 1795.38 1354.5 1795.95 1354.5 1795.95 1354.5 1795.95 1354.5 1796.52 1354.5 1796.52 1354.5 1796.52 1354.5 1797.1 1354.5 1797.1 1354.5 1797.67 1354.5 1797.67 1354.5 1797.67 1354.5 1798.24 1354.5 1798.24 1354.5 1798.82 1354.5 1798.82 1354.5 1799.39 1354.5 1799.39 1354.5 1799.39 1354.5 1799.96 1354.5 1799.96 1354.5 1800.54 1354.5 1800.54 1354.5 1800.54 1354.5 1801.11 1354.5 1801.11 1354.5 1801.11 1354.5 1801.68 1354.5 1802.26 1354.5 1802.26 1354.5 1802.26 1354.5 1802.83 1354.5 1802.83 1354.5 1802.83 1354.5 1803.4 1354.5 1803.4 1354.5 1803.97 1354.5 1803.97 1354.5 1803.97 1354.5 1804.55 1354.5 1804.55 1354.5 1805.12 1354.5 1805.12 1354.5 1805.69 1354.5 1805.69 1354.5 1805.69 1354.5 1806.27 1354.5 1806.27 1354.5 1806.27 1354.5 1806.84 1354.5 1806.84 1354.5 1807.41 1354.5 1807.41 1354.5 1807.41 1354.5 1807.99 1354.5 1807.99 1354.5 1808.56 1354.5 1808.56 1354.5 1809.13 1354.5 1809.13 1354.5 1809.13 1354.5 1809.71 1354.5 1809.71 1354.5 1809.71 1354.5 1810.28 1354.5 1810.28 1354.5 1810.85 1354.5 1810.85 1354.5 1810.85 1354.5 1811.43 1354.5 1811.43 1354.5 1812 1354.5 1812 1354.5 1812.57 1354.5 1812.57 1354.5 1812.57 1354.5 1813.14 1354.5 1813.14 1354.5 1813.14 1354.5 1813.72 1354.5 1813.72 1354.5 1814.29 1354.5 1814.29 1354.5 1814.29 1354.5 1814.86 1354.5 1814.86 1354.5 1815.44 1354.5 1815.44 1354.5 1816.01 1354.5 1816.01 1354.5 1816.01 1354.5 1816.58 1354.5 1816.58 1354.5 1816.58 1354.5 1817.16 1354.5 1817.16 1354.5 1817.73 1354.5 1817.73 1354.5 1818.3 1354.5 1818.3 1354.5 1818.3 1354.5 1818.88 1354.5 1818.88 1354.5 1819.45 1354.5 1819.45 1354.5 1819.45 1354.5 1820.02 1354.5 1820.02 1354.5 1820.02 1354.5 1820.6 1354.5 1820.6 1354.5 1821.17 1354.5 1821.17 1354.5 1821.74 1354.5 1821.74 1354.5 1821.74 1354.5 1822.31 1354.5 1822.31 1354.5 1822.89 1354.5 1822.89 1354.5 1822.89 1354.5 1823.46 1354.5 1823.46 1354.5 1824.03 1354.5 1824.03 1354.5 1824.03 1354.5 1824.61 1354.5 1824.61 1354.5 1825.18 1354.5 1825.18 1354.5 1825.75 1354.5 1825.75 1354.5 1825.75 1354.5 1826.33 1354.5 1826.33 1354.5 1826.33 1354.5 1826.9 1354.5 1826.9 1354.5 1827.47 1354.5 1827.47 1354.5 1828.05 1354.5 1828.05 1354.5 1828.05 1354.5 1828.62 1354.5 1828.62 1354.5 1829.19 1354.5 1829.19 1354.5 1829.19 1354.5 1829.77 1354.5 1829.77 1354.5 1829.77 1354.5 1830.34 1354.5 1830.34 1354.5 1830.91 1354.5 1830.91 1354.5 1831.48 1354.5 1831.48 1354.5 1831.48 1354.5 1832.06 1354.5 1832.06 1354.5 1832.63 1354.5 1832.63 1354.5 1832.63 1354.5 1833.2 1354.5 1833.2 1354.5 1833.2 1354.5 1833.78 1354.5 1833.78 1354.5 1834.35 1354.5 1834.35 1354.5 1834.92 1354.5 1834.92 1354.5 1834.92 1354.5 1835.5 1354.5 1835.5 1354.5 1836.07 1354.5 1836.07 1354.5 1836.07 1354.5 1836.64 1354.5 1836.64 1354.5 1836.64 1354.5 1837.22 1354.5 1837.79 1354.5 1837.79 1354.5 1837.79 1354.5 1838.36 1354.5 1838.36 1354.5 1838.36 1354.5 1838.94 1354.5 1838.94 1354.5 1839.51 1354.5 1839.51 1354.5 1839.51 1354.5 1840.08 1354.5 1840.08 1354.5 1840.08 1354.5 1840.65 1354.5 1841.23 1354.5 1841.23 1354.5 1841.23 1354.5 1841.8 1354.5 1841.8 1354.5 1841.8 1354.5 1842.37 1354.5 1842.37 1354.5 1842.95 1354.5 1842.95 1354.5 1842.95 1354.5 1843.52 1354.5 1843.52 1354.5 1843.52 1354.5 1844.09 1354.5 1844.67 1354.5 1844.67 1354.5 1844.67 1354.5 1845.24 1354.5 1845.24 1354.5 1845.24 1354.5 1845.81 1354.5 1845.81 1354.5 1846.39 1354.5 1846.39 1354.5 1846.39 1354.5 1846.96 1354.5 1846.96 1354.5 1847.53 1354.5 1847.53 1354.5 1848.11 1354.5 1848.11 1354.5 1848.11 1354.5 1848.68 1354.5 1848.68 1354.5 1849.25 1354.5 1849.25 1354.5 1849.25 1354.5 1849.82 1354.5 1849.82 1354.5 1849.82 1354.5 1850.4 1354.5 1850.97 1354.5 1850.97 1354.5 1850.97 1354.5 1851.54 1354.5 1851.54 1354.5 1851.54 1354.5 1852.12 1354.5 1852.12 1354.5 1852.69 1354.5 1852.69 1354.5 1852.69 1354.5 1853.26 1354.5 1853.26 1354.5 1853.26 1354.5 1853.84 1354.5 1854.41 1354.5 1854.41 1354.5 1854.41 1354.5 1854.98 1354.5 1854.98 1354.5 1854.98 1354.5 1855.56 1354.5 1855.56 1354.5 1856.13 1354.5 1856.13 1354.5 1856.13 1354.5 1856.7 1354.5 1856.7 1354.5 1857.28 1354.5 1857.28 1354.5 1857.85 1354.5 1857.85 1354.5 1857.85 1354.5 1858.42 1354.5 1858.42 1354.5 1858.42 1354.5 1858.99 1354.5 1858.99 1354.5 1859.57 1354.5 1859.57 1354.5 1859.57 1354.5 1860.14 1354.5 1860.14 1354.5 1860.71 1354.5 1860.71 1354.5 1861.29 1354.5 1861.29 1354.5 1861.29 1354.5 1861.86 1354.5 1861.86 1354.5 1861.86 1354.5 1862.43 1354.5 1862.43 1354.5 1863.01 1354.5 1863.01 1354.5 1863.01 1354.5 1863.58 1354.5 1863.58 1354.5 1864.15 1354.5 1864.15 1354.5 1864.73 1354.5 1864.73 1354.5 1864.73 1354.5 1865.3 1354.5 1865.3 1354.5 1865.3 1354.5 1865.87 1354.5 1865.87 1354.5 1866.45 1354.5 1866.45 1354.5 1867.02 1354.5 1867.02 1354.5 1867.02 1354.5 1867.59 1354.5 1867.59 1354.5 1868.17 1354.5 1868.17 1354.5 1868.17 1354.5 1868.74 1354.5 1868.74 1354.5 1869.31 1354.5 1869.31 1354.5 1869.31 1354.5 1869.88 1354.5 1869.88 1354.5 1870.46 1354.5 1870.46 1354.5 1871.03 1354.5 1871.03 1354.5 1871.03 1354.5 1871.6 1354.5 1871.6 1354.5 1871.6 1354.5 1872.18 1354.5 1872.18 1354.5 1872.75 1354.5 1872.75 1354.5 1872.75 1354.5 1873.32 1354.5 1873.32 1354.5 1873.9 1354.5 1873.9 1354.5 1874.47 1354.5 1874.47 1354.5 1874.47 1354.5 1875.04 1354.5 1875.04 1354.5 1875.04 1354.5 1875.62 1354.5 1875.62 1354.5 1876.19 1354.5 1876.19 1354.5 1876.19 1354.5 1876.76 1354.5 1876.76 1354.5 1877.34 1354.5 1877.34 1354.5 1877.91 1354.5 1877.91 1354.5 1877.91 1354.5 1878.48 1354.5 1878.48 1354.5 1878.48 1354.5 1879.05 1354.5 1879.05 1354.5 1879.63 1354.5 1879.63 1354.5 1880.2 1354.5 1880.2 1354.5 1880.2 1354.5 1880.77 1354.5 1880.77 1354.5 1881.35 1354.5 1881.35 1354.5 1881.35 1354.5 1881.92 1354.5 1881.92 1354.5 1881.92 1354.5 1882.49 1354.5 1882.49 1354.5 1883.07 1354.5 1883.07 1354.5 1883.64 1354.5 1883.64 1354.5 1883.64 1354.5 1884.21 1354.5 1884.21 1354.5 1884.79 1354.5 1884.79 1354.5 1884.79 1354.5 1885.36 1354.5 1885.36 1354.5 1885.36 1354.5 1885.93 1354.5 1885.93 1354.5 1886.51 1354.5 1886.51 1354.5 1887.08 1354.5 1887.08 1354.5 1887.08 1354.5 1887.65 1354.5 1887.65 1354.5 1888.22 1354.5 1888.22 1354.5 1888.22 1354.5 1888.8 1354.5 1888.8 1354.5 1888.8 1354.5 1889.37 1354.5 1889.94 1354.5 1889.94 1354.5 1889.94 1354.5 1890.52 1354.5 1890.52 1354.5 1890.52 1354.5 1891.09 1354.5 1891.09 1354.5 1891.66 1354.5 1891.66 1354.5 1891.66 1354.5 1892.24 1354.5 1892.24 1354.5 1892.81 1354.5 1892.81 1354.5 1893.38 1354.5 1893.38 1354.5 1893.38 1354.5 1893.96 1354.5 1893.96 1354.5 1894.53 1354.5 1894.53 1354.5 1894.53 1354.5 1895.1 1354.5 1895.1 1354.5 1895.1 1354.5 1895.68 1354.5 1895.68 1354.5 1896.25 1354.5 1896.25 1354.5 1896.82 1354.5 1896.82 1354.5 1896.82 1354.5 1897.39 1354.5 1897.39 1354.5 1897.97 1354.5 1897.97 1354.5 1897.97 1354.5 1898.54 1354.5 1898.54 1354.5 1898.54 1354.5 1899.11 1354.5 1899.69 1354.5 1899.69 1354.5 1899.69 1354.5 1900.26 1354.5 1900.26 1354.5 1900.26 1354.5 1900.83 1354.5 1900.83 1354.5 1901.41 1354.5 1901.41 1354.5 1901.41 1354.5 1901.98 1354.5 1901.98 1354.5 1901.98 1354.5 1902.55 1354.5 1903.13 1354.5 1903.13 1354.5 1903.13 1354.5 1903.7 1354.5 1903.7 1354.5 1903.7 1354.5 1904.27 1354.5 1904.27 1354.5 1904.85 1354.5 1904.85 1354.5 1904.85 1354.5 1905.42 1354.5 1905.42 1354.5 1905.99 1354.5 1905.99 1354.5 1906.56 1354.5 1906.56 1354.5 1906.56 1354.5 1907.14 1354.5 1907.14 1354.5 1907.14 1354.5 1907.71 1354.5 1907.71 1354.5 1908.28 1354.5 1908.28 1354.5 1908.28 1354.5 1908.86 1354.5 1908.86 1354.5 1909.43 1354.5 1909.43 1354.5 1910 1354.5 1910 1354.5 1910 1354.5 1910.58 1354.5 1910.58 1354.5 1910.58 1354.5 1911.15 1354.5 1911.15 1354.5 1911.72 1354.5 1911.72 1354.5 1911.72 1354.5 1912.3 1354.5 1912.3 1354.5 1912.87 1354.5 1912.87 1354.5 1913.44 1354.5 1913.44 1354.5 1913.44 1354.5 1914.02 1354.5 1914.02 1354.5 1914.02 1354.5 1914.59 1354.5 1914.59 1354.5 1915.16 1354.5 1915.16 1354.5 1915.16 1354.5 1915.73 1354.5 1916.31 1354.5 1916.31 1354.5 1916.31 1354.5 1916.88 1354.5 1916.88 1354.5 1916.88 1354.5 1917.45 1354.5 1917.45 1354.5 1918.03 1354.5 1918.03 1354.5 1918.03 1354.5 1918.6 1354.5 1918.6 1354.5 1919.17 1354.5 1919.17 1354.5 1919.75 1354.5 1919.75 1354.5 1919.75 1354.5 1920.32 1354.5 1920.32 1354.5 1920.32 1354.5 1920.89 1354.5 1920.89 1354.5 1921.47 1354.5 1921.47 1354.5 1921.47 1354.5 1922.04 1354.5 1922.04 1354.5 1922.61 1354.5 1922.61 1354.5 1923.19 1354.5 1923.19 1354.5 1923.19 1354.5 1923.76 1354.5 1923.76 1354.5 1923.76 1354.5 1924.33 1354.5 1924.33 1354.5 1924.91 1354.5 1924.91 1354.5 1924.91 1354.5 1925.48 1354.5 1925.48 1354.5 1926.05 1354.5 1926.05 1354.5 1926.62 1354.5 1926.62 1354.5 1926.62 1354.5 1927.2 1354.5 1927.2 1354.5 1927.2 1354.5 1927.77 1354.5 1927.77 1354.5 1928.34 1354.5 1928.34 1354.5 1928.92 1354.5 1928.92 1354.5 1928.92 1354.5 1929.49 1354.5 1929.49 1354.5 1930.06 1354.5 1930.06 1354.5 1930.06 1354.5 1930.64 1354.5 1930.64 1354.5 1930.64 1354.5 1931.21 1354.5 1931.21 1354.5 1931.78 1354.5 1931.78 1354.5 1932.36 1354.5 1932.36 1354.5 1932.36 1354.5 1932.93 1354.5 1932.93 1354.5 1933.5 1354.5 1933.5 1354.5 1933.5 1354.5 1934.08 1354.5 1934.08 1354.5 1934.08 1354.5 1934.65 1354.5 1934.65 1354.5 1935.22 1354.5 1935.22 1354.5 1935.79 1354.5 1935.79 1354.5 1935.79 1353.93 1936.37 1353.93 1936.37 1353.93 1936.94 1353.93 1936.94 1353.93 1936.94 1353.93 1937.51 1353.93 1937.51 1353.93 1937.51 1353.93 1938.09 1353.93 1938.66 1353.93 1938.66 1353.93 1938.66 1353.93 1939.23 1353.93 1939.23 1353.93 1939.81 1353.93 1939.81 1353.93 1939.81 1353.93 1940.38 1353.93 1940.38 1353.93 1940.38 1353.93 1940.95 1353.93 1940.95 1353.93 1941.53 1353.93 1941.53 1353.93 1942.1 1353.93 1942.1 1353.35 1942.1 1353.35 1942.67 1353.35 1942.67 1353.35 1943.25 1353.35 1943.25 1353.35 1943.25 1353.35 1943.82 1353.35 1943.82 1353.35 1943.82 1353.35 1944.39 1352.78 1944.39 1352.78 1944.96 1352.78 1944.96 1352.78 1945.54 1352.78 1945.54 1352.78 1945.54 1352.78 1946.11 1352.78 1946.11 1352.78 1946.68 1352.78 1946.68 1352.78 1946.68 1352.78 1947.26 1352.78 1947.26 1352.21 1947.26 1352.21 1947.83 1352.21 1947.83 1352.21 1948.4 1352.21 1948.4 1352.21 1948.98 1352.21 1948.98 1352.21 1948.98 1352.21 1949.55 1352.21 1949.55 1351.64 1950.12 1351.64 1950.12 1351.64 1950.12 1351.64 1950.7 1351.64 1950.7 1351.64 1950.7 1351.06 1951.27 1351.06 1951.84 1351.06 1951.84 1351.06 1951.84 1351.06 1952.42 1351.06 1952.42 1351.06 1952.42 1351.06 1952.99 1350.49 1952.99 1350.49 1953.56 1350.49 1953.56 1350.49 1953.56 1350.49 1954.13 1350.49 1954.13 1350.49 1954.13 1350.49 1954.71 1349.92 1955.28 1349.92 1955.28 1349.92 1955.28 1349.92 1955.85 1349.92 1955.85 1349.34 1955.85 1349.34 1956.43 1349.34 1956.43 1349.34 1957 1349.34 1957 1349.34 1957 1349.34 1957.57 1348.77 1957.57 1348.77 1958.15 1348.77 1958.15 1348.77 1958.72 1348.77 1958.72 1348.77 1958.72 1348.2 1959.29 1348.2 1959.29 1348.2 1959.29 1348.2 1959.87 1347.63 1959.87 1347.63 1960.44 1347.63 1960.44 1347.63 1960.44 1347.63 1961.01 1347.63 1961.59 1347.05 1961.59 1347.05 1961.59 1347.05 1962.16 1347.05 1962.16 1347.05 1962.16 1346.48 1962.73 1346.48 1962.73 1346.48 1963.3 1346.48 1963.3 1345.91 1963.3 1345.91 1963.88 1345.91 1963.88 1345.91 1963.88 1345.91 1964.45 1345.34 1965.02 1345.34 1965.02 1345.34 1965.02 1345.34 1965.6 1344.76 1965.6 1344.76 1965.6 1344.76 1966.17 1344.76 1966.17 1344.19 1966.74 1344.19 1966.74 1344.19 1966.74 1344.19 1967.32 1344.19 1967.32 1343.62 1967.89 1343.62 1967.89 1343.62 1968.46 1343.04 1968.46 1343.04 1968.46 1343.04 1969.04 1343.04 1969.04 1343.04 1969.04 1342.47 1969.61 1342.47 1969.61 1342.47 1970.18 1342.47 1970.18 1341.9 1970.18 1341.9 1970.76 1341.9 1970.76 1341.33 1971.33 1341.33 1971.33 1341.33 1971.9 1341.33 1971.9 1340.75 1971.9 1340.75 1972.47 1340.75 1972.47 1340.75 1972.47 1340.75 1973.05 1340.18 1973.05 1340.18 1973.62 1339.61 1973.62 1339.61 1973.62 1339.61 1974.19 1339.61 1974.19 1339.03 1974.77 1339.03 1974.77 1339.03 1975.34 1339.03 1975.34 1338.46 1975.34 1338.46 1975.91 1338.46 1975.91 1337.89 1975.91 1337.89 1976.49 1337.89 1976.49 1337.89 1977.06 1337.32 1977.06 1337.32 1977.06 1337.32 1977.63 1336.74 1977.63 1336.74 1978.21 1336.74 1978.21 1336.17 1978.78 1336.17 1978.78 1336.17 1978.78 1335.6 1979.35 1335.6 1979.35 1335.6 1979.35 1335.6 1979.93 1335.02 1979.93 1335.02 1980.5 1334.45 1980.5 1334.45 1981.07 1334.45 1981.07 1334.45 1981.07 1333.88 1981.64 1333.88 1981.64 1333.88 1982.22 1333.31 1982.22 1333.31 1982.22 1332.73 1982.79 1332.73 1982.79 1332.73 1982.79 1332.73 1983.36 1332.16 1983.36 1332.16 1983.94 1331.59 1983.94 1331.59 1984.51 1331.59 1984.51 1331.02 1985.08 1331.02 1985.08 1331.02 1985.08 1330.44 1985.66 1330.44 1985.66 1330.44 1985.66 1329.87 1986.23 1329.87 1986.23 1329.87 1986.8 1329.3 1986.8 1329.3 1986.8 1329.3 1987.38 1328.72 1987.38 1328.72 1987.95 1328.15 1987.95 1328.15 1988.52 1328.15 1988.52 1327.58 1988.52 1327.58 1989.1 1327.58 1989.1 1327.01 1989.1 1327.01 1989.67 1326.43 1989.67 1326.43 1990.24 1326.43 1990.24 1325.86 1990.81 1325.86 1990.81 1325.86 1990.81 1325.29 1991.39 1325.29 1991.39 1324.71 1991.96 1324.71 1991.96 1324.71 1991.96 1324.14 1992.53 1324.14 1992.53 1324.14 1992.53 1323.57 1993.11 1323 1993.11 1323 1993.68 1323 1993.68 1322.42 1994.25 1322.42 1994.25 1322.42 1994.25 1321.85 1994.83 1321.85 1994.83 1321.28 1995.4 1321.28 1995.4 1321.28 1995.4 1320.7 1995.97 1320.13 1995.97 1320.13 1995.97 1320.13 1996.55 1319.56 1996.55 1319.56 1997.12 1319.56 1997.12 1318.99 1997.69 1318.99 1997.69 1318.41 1997.69 1318.41 1998.27 1317.84 1998.27 1317.84 1998.84 1317.84 1998.84 1317.27 1998.84 1317.27 1999.41 1316.7 1999.41 1316.7 1999.41 1316.12 1999.99 1316.12 2000.56 1316.12 2000.56 1315.55 2000.56 1315.55 2001.13 1314.98 2001.13 1314.98 2001.13 1314.4 2001.7 1314.4 2001.7 1314.4 2002.28 1313.83 2002.28 1313.26 2002.28 1313.26 2002.85 1313.26 2002.85 1312.69 2002.85 1312.69 2003.42 1312.11 2004 1312.11 2004 1311.54 2004 1311.54 2004.57 1310.97 2004.57 1310.97 2004.57 1310.97 2005.14 1310.39 2005.14 1310.39 2005.72 1309.82 2005.72 1309.82 2005.72 1309.25 2006.29 1309.25 2006.29 1308.68 2006.86 1308.68 2006.86 1308.1 2007.44 1308.1 2007.44 1307.53 2007.44 1307.53 2008.01 1306.96 2008.01 1306.96 2008.58 1306.38 2008.58 1306.38 2008.58 1306.38 2009.16 1305.81 2009.16 1305.24 2009.16 1305.24 2009.73 1305.24 2009.73 1304.67 2010.3 1304.67 2010.3 1304.09 2010.87 1303.52 2010.87 1303.52 2010.87 1303.52 2011.45 1302.95 2011.45 1302.95 2012.02 1302.38 2012.02 1302.38 2012.02 1301.8 2012.59 1301.8 2012.59 1301.23 2012.59 1301.23 2013.17 1300.66 2013.74 1300.66 2013.74 1300.08 2013.74 1300.08 2014.31 1299.51 2014.31 1299.51 2014.31 1298.94 2014.89 1298.37 2014.89 1298.37 2015.46 1298.37 2015.46 1297.79 2015.46 1297.22 2016.03 1297.22 2016.03 1296.65 2016.03 1296.65 2016.61 1296.65 2017.18 1296.07 2017.18 1295.5 2017.18 1295.5 2017.75 1294.93 2017.75 1294.93 2017.75 1294.36 2018.33 1294.36 2018.33 1293.78 2018.9 1293.78 2018.9 1293.21 2018.9 1293.21 2019.47 1292.64 2019.47 1292.07 2020.04 1292.07 2020.04 1292.07 2020.62 1291.49 2020.62 1291.49 2020.62 1290.92 2021.19 1290.35 2021.19 1290.35 2021.19 1289.77 2021.76 1289.77 2021.76 1289.2 2022.34 1289.2 2022.34 1288.63 2022.34 1288.63 2022.91 1288.06 2022.91 1288.06 2023.48 1287.48 2023.48 1286.91 2024.06 1286.91 2024.06 1286.34 2024.06 1286.34 2024.63 1285.76 2024.63 1285.76 2024.63 1285.19 2025.2 1285.19 2025.2 1284.62 2025.78 1284.05 2025.78 1284.05 2025.78 1283.47 2026.35 1283.47 2026.35 1282.9 2026.92 1282.9 2026.92 1282.33 2027.5 1282.33 2027.5 1281.75 2027.5 1281.75 2028.07 1281.18 2028.07 1280.61 2028.07 1280.61 2028.64 1280.04 2028.64 1280.04 2029.21 1279.46 2029.21 1278.89 2029.79 1278.89 2029.79 1278.32 2029.79 1278.32 2030.36 1277.75 2030.36 1277.75 2030.93 1277.17 2030.93 1277.17 2030.93 1276.6 2031.51 1276.6 2031.51 1276.03 2032.08 1275.45 2032.08 1275.45 2032.08 1274.88 2032.65 1274.88 2032.65 1274.31 2033.23 1273.74 2033.23 1273.74 2033.8 1273.16 2033.8 1272.59 2033.8 1272.59 2034.37 1272.02 2034.37 1272.02 2034.37 1271.44 2034.95 1270.87 2034.95 1270.87 2035.52 1270.3 2035.52 1270.3 2035.52 1269.73 2036.09 1269.73 2036.09 1269.15 2036.67 1268.58 2036.67 1268.58 2037.24 1268.01 2037.24 1268.01 2037.24 1267.43 2037.81 1267.43 2037.81 1266.86 2037.81 1266.29 2038.38 1266.29 2038.38 1265.72 2038.96 1265.72 2038.96 1265.14 2039.53 1264.57 2039.53 1264.57 2039.53 1264 2040.1 1264 2040.1 1263.43 2040.68 1262.85 2040.68 1262.85 2040.68 1262.28 2041.25 1262.28 2041.25 1261.71 2041.25 1261.13 2041.82 1261.13 2041.82 1260.56 2042.4 1260.56 2042.4 1259.99 2042.97 1259.42 2042.97 1259.42 2042.97 1258.84 2043.54 1258.84 2043.54 1258.27 2044.12 1257.7 2044.12 1257.7 2044.12 1257.12 2044.69 1256.55 2044.69 1256.55 2044.69 1255.98 2045.26 1255.41 2045.26 1255.41 2045.84 1254.83 2045.84 1254.83 2046.41 1254.26 2046.41 1253.69 2046.41 1253.69 2046.98 1253.11 2046.98 1252.54 2047.55 1252.54 2047.55 1251.97 2047.55 1251.97 2048.13 1251.4 2048.13 1250.82 2048.13 1250.82 2048.7 1250.25 2048.7 1250.25 2049.27 1249.68 2049.27 1249.11 2049.85 1249.11 2049.85 1248.53 2049.85 1247.96 2050.42 1247.96 2050.42 1247.39 2050.99 1247.39 2050.99 1246.81 2050.99 1246.24 2051.57 1246.24 2051.57 1245.67 2051.57 1245.67 2052.14 1245.1 2052.71 1244.52 2052.71 1243.95 2052.71 1243.95 2053.29 1243.38 2053.29 1242.8 2053.86 1242.8 2053.86 1242.23 2053.86 1242.23 2054.43 1241.66 2054.43 1241.09 2054.43 1241.09 2055.01 1240.51 2055.01 1240.51 2055.58 1239.94 2055.58 1239.37 2056.15 1239.37 2056.15 1238.79 2056.15 1238.79 2056.73 1238.22 2056.73 1237.65 2057.3 1237.08 2057.3 1237.08 2057.3 1236.5 2057.87 1235.93 2057.87 1235.93 2057.87 1235.36 2058.44 1234.79 2058.44 1234.79 2059.02 1234.21 2059.02 1234.21 2059.59 1233.64 2059.59 1233.07 2059.59 1233.07 2060.16 1232.49 2060.16 1232.49 2060.74 1231.92 2060.74 1231.35 2060.74 1230.78 2061.31 1230.78 2061.31 1230.2 2061.31 1229.63 2061.88 1229.63 2062.46 1229.06 2062.46 1229.06 2062.46 1228.48 2063.03 1227.91 2063.03 1227.91 2063.03 1227.34 2063.6 1227.34 2063.6 1226.77 2064.18 1226.19 2064.18 1225.62 2064.18 1225.62 2064.75 1225.05 2064.75 1224.48 2064.75 1224.48 2065.32 1223.9 2065.9 1223.33 2065.9 1223.33 2065.9 1222.76 2066.47 1222.76 2066.47 1222.18 2066.47 1221.61 2067.04 1221.61 2067.04 1221.04 2067.61 1220.47 2067.61 1220.47 2067.61 1219.89 2068.19 1219.32 2068.19 1219.32 2068.76 1218.75 2068.76 1218.17 2069.33 1218.17 2069.33 1217.6 2069.33 1217.6 2069.91 1217.03 2069.91 1216.46 2069.91 1216.46 2070.48 1215.88 2070.48 1215.31 2071.05 1214.74 2071.05 1214.74 2071.05 1214.16 2071.63 1213.59 2071.63 1213.59 2072.2 1213.02 2072.2 1213.02 2072.77 1212.45 2072.77 1211.87 2072.77 1211.87 2073.35 1211.3 2073.35 1210.73 2073.35 1210.73 2073.92 1210.16 2073.92 1209.58 2074.49 1209.58 2074.49 1209.01 2074.49 1208.44 2075.07 1208.44 2075.07 1207.86 2075.64 1207.86 2075.64 1207.29 2076.21 1206.72 2076.21 1206.15 2076.21 1206.15 2076.78 1205.57 2076.78 1205 2077.36 1205 2077.36 1204.43 2077.36 1204.43 2077.93 1203.85 2077.93 1203.28 2077.93 1203.28 2078.5 1202.71 2079.08 1202.14 2079.08 1202.14 2079.08 1201.56 2079.65 1200.99 2079.65 1200.42 2079.65 1200.42 2080.22 1199.84 2080.22 1199.84 2080.8 1199.27 2080.8 1198.7 2080.8 1198.7 2081.37 1198.13 2081.37 1197.55 2081.94 1197.55 2081.94 1196.98 2082.52 1196.41 2082.52 1196.41 2082.52 1195.84 2083.09 1195.26 2083.09 1195.26 2083.09 1194.69 2083.66 1194.69 2083.66 1194.12 2084.24 1193.54 2084.24 1193.54 2084.24 1192.97 2084.81 1192.4 2084.81 1191.83 2085.38 1191.83 2085.38 1191.25 2085.95 1191.25 2085.95 1190.68 2085.95 1190.11 2086.53 1190.11 2086.53 1189.53 2086.53 1188.96 2087.1 1188.96 2087.1 1188.39 2087.67 1187.82 2087.67 1187.82 2087.67 1187.24 2088.25 1186.67 2088.25 1186.67 2088.82 1186.1 2088.82 1185.52 2089.39 1185.52 2089.39 1184.95 2089.39 1184.95 2089.97 1184.38 2089.97 1183.81 2089.97 1183.81 2090.54 1183.23 2090.54 1182.66 2091.11 1182.66 2091.11 1182.09 2091.69 1181.52 2091.69 1181.52 2091.69 1180.94 2092.26 1180.37 2092.26 1180.37 2092.83 1179.8 2092.83 1179.8 2092.83 1179.22 2093.41 1178.65 2093.41 1178.65 2093.41 1178.08 2093.98 1177.51 2093.98 1177.51 2094.55 1176.93 2094.55 1176.36 2095.12 1175.79 2095.12 1175.79 2095.12 1175.21 2095.7 1175.21 2095.7 1174.64 2096.27 1174.07 2096.27 1174.07 2096.27 1173.5 2096.84 1173.5 2096.84 1172.92 2096.84 1172.35 2097.42 1172.35 2097.42 1171.78 2097.99 1171.2 2097.99 1171.2 2098.56 1170.63 2098.56 1170.06 2098.56 1170.06 2099.14 1169.49 2099.14 1168.91 2099.71 1168.91 2099.71 1168.34 2099.71 1168.34 2100.28 1167.77 2100.28 1167.2 2100.86 1167.2 2100.86 1166.62 2101.43 1166.62 2101.43 1166.05 2101.43 1165.48 2102 1165.48 2102 1164.9 2102.58 1164.33 2102.58 1164.33 2102.58 1163.76 2103.15 1163.19 2103.15 1163.19 2103.15 1162.61 2103.72 1162.04 2103.72 1162.04 2104.29 1161.47 2104.29 1160.89 2104.87 1160.89 2104.87 1160.32 2104.87 1160.32 2105.44 1159.75 2105.44 1159.18 2106.01 1159.18 2106.01 1158.6 2106.01 1158.6 2106.59 1158.03 2106.59 1157.46 2106.59 1157.46 2107.16 1156.89 2107.16 1156.89 2107.73 1156.31 2107.73 1155.74 2108.31 1155.74 2108.31 1155.17 2108.31 1155.17 2108.88 1154.59 2108.88 1154.02 2109.45 1154.02 2109.45 1153.45 2109.45 1152.88 2110.03 1152.88 2110.03 1152.3 2110.03 1152.3 2110.6 1151.73 2110.6 1151.16 2111.17 1151.16 2111.17 1150.58 2111.75 1150.58 2111.75 1150.01 2111.75 1149.44 2112.32 1149.44 2112.32 1148.87 2112.89 1148.29 2112.89 1148.29 2112.89 1147.72 2113.46 1147.72 2113.46 1147.15 2113.46 1146.57 2114.04 1146.57 2114.61 1146 2114.61 1146 2114.61 1145.43 2115.18 1144.86 2115.18 1144.86 2115.18 1144.28 2115.76 1144.28 2115.76 1143.71 2116.33 1143.71 2116.33 1143.14 2116.33 1142.57 2116.9 1142.57 2116.9 1141.99 2116.9 1141.42 2117.48 1141.42 2118.05 1140.85 2118.05 1140.85 2118.05 1140.27 2118.62 1139.7 2118.62 1139.7 2118.62 1139.13 2119.2 1139.13 2119.2 1138.56 2119.77 1137.98 2119.77 1137.98 2119.77 1137.41 2120.34 1137.41 2120.34 1136.84 2120.92 1136.26 2120.92 1136.26 2121.49 1135.69 2121.49 1135.69 2121.49 1135.12 2122.06 1135.12 2122.06 1134.55 2122.06 1133.97 2122.64 1133.97 2122.64 1133.4 2123.21 1133.4 2123.21 1132.83 2123.21 1132.83 2123.78 1132.25 2124.35 1132.25 2124.35 1131.68 2124.35 1131.11 2124.93 1131.11 2124.93 1130.54 2124.93 1129.96 2125.5 1129.96 2125.5 1129.39 2126.07 1129.39 2126.07 1128.82 2126.07 1128.82 2126.65 1128.25 2126.65 1128.25 2126.65 1127.67 2127.22 1127.67 2127.79 1127.1 2127.79 1126.53 2127.79 1126.53 2128.37 1125.95 2128.37 1125.95 2128.37 1125.38 2128.94 1124.81 2128.94 1124.81 2129.51 1124.81 2129.51 1124.24 2129.51 1124.24 2130.09 1123.66 2130.09 1123.09 2130.66 1123.09 2130.66 1122.52 2131.23 1122.52 2131.23 1121.94 2131.23 1121.37 2131.81 1121.37 2131.81 1121.37 2131.81 1120.8 2132.38 1120.8 2132.38 1120.23 2132.95 1119.65 2132.95 1119.65 2132.95 1119.08 2133.52 1119.08 2133.52 1118.51 2134.1 1118.51 2134.1 1117.93 2134.67 1117.93 2134.67 1117.36 2134.67 1116.79 2135.24 1116.79 2135.24 1116.22 2135.24 1116.22 2135.82 1115.64 2135.82 1115.64 2136.39 1115.07 2136.39 1115.07 2136.39 1114.5 2136.96 1114.5 2136.96 1113.93 2137.54 1113.93 2137.54 1113.35 2138.11 1113.35 2138.11 1112.78 2138.11 1112.78 2138.68 1112.21 2138.68 1112.21 2138.68 1111.63 2139.26 1111.63 2139.26 1111.06 2139.83 1111.06 2139.83 1110.49 2140.4 1109.92 2140.4 1109.92 2140.4 1109.92 2140.98 1109.34 2140.98 1109.34 2141.55 1108.77 2141.55 1108.2 2141.55 1108.2 2142.12 1108.2 2142.12 1107.62 2142.12 1107.62 2142.69 1107.05 2142.69 1106.48 2143.27 1106.48 2143.27 1106.48 2143.84 1105.91 2143.84 1105.33 2143.84 1105.33 2144.41 1105.33 2144.41 1104.76 2144.99 1104.76 2144.99 1104.19 2144.99 1104.19 2145.56 1103.61 2145.56 1103.61 2146.13 1103.04 2146.13 1103.04 2146.13 1102.47 2146.71 1102.47 2146.71 1101.9 2147.28 1101.9 2147.28 1101.32 2147.85 1101.32 2147.85 1101.32 2147.85 1100.75 2148.43 1100.18 2148.43 1100.18 2148.43 1100.18 2149 1099.61 2149 1099.61 2149.57 1099.03 2149.57 1099.03 2149.57 1098.46 2150.15 1098.46 2150.15 1097.89 2150.72 1097.89 2150.72 1097.89 2151.29 1097.31 2151.29 1096.74 2151.29 1096.74 2151.86 1096.74 2151.86 1096.17 2151.86 1096.17 2152.44 1095.6 2152.44 1095.6 2153.01 1095.02 2153.01 1095.02 2153.58 1095.02 2153.58 1094.45 2153.58 1093.88 2154.16 1093.88 2154.16 1093.88 2154.73 1093.3 2154.73 1093.3 2154.73 1092.73 2155.3 1092.73 2155.3 1092.16 2155.3 1092.16 2155.88 1092.16 2155.88 1091.59 2156.45 1091.59 2156.45 1091.01 2157.02 1091.01 2157.02 1090.44 2157.02 1090.44 2157.6 1090.44 2157.6 1089.87 2158.17 1089.87 2158.17 1089.87 2158.17 1089.3 2158.74 1088.72 2158.74 1088.72 2158.74 1088.72 2159.32 1088.15 2159.32 1088.15 2159.89 1088.15 2159.89 1087.58 2160.46 1087.58 2160.46 1087 2160.46 1087 2161.03 1087 2161.03 1086.43 2161.61 1086.43 2161.61 1085.86 2161.61 1085.86 2162.18 1085.29 2162.18 1085.29 2162.18 1085.29 2162.75 1084.71 2163.33 1084.71 2163.33 1084.71 2163.33 1084.14 2163.9 1084.14 2163.9 1083.57 2163.9 1083.57 2164.47 1083.57 2164.47 1082.99 2165.05 1082.99 2165.05 1082.99 2165.05 1082.42 2165.62 1082.42 2165.62 1081.85 2165.62 1081.85 2166.19 1081.85 2166.77 1081.28 2166.77 1081.28 2166.77 1080.7 2167.34 1080.7 2167.34 1080.7 2167.34 1080.13 2167.91 1080.13 2167.91 1080.13 2168.49 1079.56 2168.49 1079.56 2168.49 1078.98 2169.06 1078.98 2169.06 1078.98 2169.63 1078.98 2169.63 1078.41 2170.2 1078.41 2170.2 1078.41 2170.2 1077.84 2170.78 1077.84 2170.78 1077.27 2171.35 1077.27 2171.35 1077.27 2171.35 1076.69 2171.92 1076.69 2171.92 1076.69 2171.92 1076.69 2172.5 1076.12 2173.07 1076.12 2173.07 1075.55 2173.07 1075.55 2173.64 1075.55 2173.64 1075.55 2173.64 1074.98 2174.22 1074.98 2174.22 1074.98 2174.79 1074.4 2174.79 1074.4 2174.79 1073.83 2175.36 1073.83 2175.36 1073.83 2175.36 1073.83 2175.94 1073.26 2176.51 1073.26 2176.51 1073.26 2176.51 1073.26 2177.08 1072.68 2177.08 1072.68 2177.08 1072.11 2177.66 1072.11 2177.66 1072.11 2178.23 1072.11 2178.23 1071.54 2178.23 1071.54 2178.8 1071.54 2178.8 1071.54 2178.8 1070.97 2179.38 1070.97 2179.95 1070.39 2179.95 1070.39 2179.95 1070.39 2180.52 1070.39 2180.52 1069.82 2180.52 1069.82 2181.09 1069.82 2181.09 1069.25 2181.67 1069.25 2181.67 1069.25 2181.67 1069.25 2182.24 1068.67 2182.24 1068.67 2182.81 1068.67 2182.81 1068.67 2183.39 1068.1 2183.39 1068.1 2183.39 1068.1 2183.96 1067.53 2183.96 1067.53 2183.96 1067.53 2184.53 1067.53 2184.53 1067.53 2185.11 1066.96 2185.11 1066.96 2185.11 1066.96 2185.68 1066.96 2185.68 1066.38 2186.25 1066.38 2186.25 1066.38 2186.83 1065.81 2186.83 1065.81 2186.83 1065.81 2187.4 1065.81 2187.4 1065.81 2187.4 1065.24 2187.97 1065.24 2187.97 1065.24 2188.54 1065.24 2188.54 1065.24 2188.54 1064.66 2189.12 1064.66 2189.12 1064.66 2189.69 1064.09 2189.69 1064.09 2190.26 1064.09 2190.26 1064.09 2190.26 1064.09 2190.84 1063.52 2190.84 1063.52 2190.84 1063.52 2191.41 1063.52 2191.41 1063.52 2191.98 1063.52 2191.98 1062.95 2192.56 1062.95 2192.56 1062.95 2193.13 1062.37 2193.13 1062.37 2193.13 1062.37 2193.7 1062.37 2193.7 1062.37 2193.7 1062.37 2194.28 1061.8 2194.28 1061.8 2194.85 1061.8 2194.85 1061.8 2194.85 1061.8 2195.42 1061.8 2195.42 1061.23 2196 1061.23 2196 1061.23 2196.57 1061.23 2196.57 1060.66 2196.57 1060.66 2197.14 1060.66 2197.14 1060.66 2197.14 1060.66 2197.72 1060.66 2197.72 1060.66 2198.29 1060.08 2198.29 1060.08 2198.29 1060.08 2198.86 1060.08 2198.86 1060.08 2199.43 1060.08 2199.43 1060.08 2200.01 1059.51 2200.01 1059.51 2200.01 1059.51 2200.58 1059.51 2200.58 1059.51 2200.58 1058.94 2201.15 1058.94 2201.15 1058.94 2201.73 1058.94 2201.73 1058.94 2202.3 1058.94 2202.3 1058.94 2202.3 1058.94 2202.87 1058.36 2202.87 1058.36 2203.45 1058.36 2203.45 1058.36 2203.45 1058.36 2204.02 1058.36 2204.02 1057.79 2204.02 1057.79 2204.59 1057.79 2204.59 1057.79 2205.17 1057.79 2205.17 1057.79 2205.74 1057.79 2205.74 1057.79 2205.74 1057.79 2206.31 1057.79 2206.31 1057.22 2206.89 1057.22 2206.89 1057.22 2206.89 1057.22 2207.46 1057.22 2207.46 1057.22 2207.46 1057.22 2208.03 1057.22 2208.03 1057.22 2208.6 1057.22 2208.6 1057.22 2209.18 1056.65 2209.18 1056.65 2209.18 1056.65 2209.75 1056.65 2209.75 1056.65 2210.32 1056.65 2210.32 1056.65 2210.32 1056.65 2210.9 1056.65 2210.9 1056.07 2210.9 1056.07 2211.47 1056.07 2211.47 1056.07 2212.04 1056.07 2212.04 1056.07 2212.62 1056.07 2212.62 1056.07 2212.62 1056.07 2213.19 1056.07 2213.19 1056.07 2213.76 1056.07 2213.76 1056.07 2213.76 1056.07 2214.34 1056.07 2214.34 1056.07 2214.34 1056.07 2214.91 1056.07 2215.48 1056.07 2215.48 1056.07 2215.48 1055.5 2216.06 1055.5 2216.06 1055.5 2216.63 1055.5 2216.63 1055.5 2216.63 1055.5 2217.2 1055.5 2217.2 1055.5 2217.2 1055.5 2217.77 1055.5 2217.77 1055.5 2218.35 1055.5 2218.35 1055.5 2218.92 1055.5 2218.92 1055.5 2218.92 1055.5 2219.49 1055.5 2219.49 1055.5 2220.07 1055.5 2220.07 1055.5 2220.07 1055.5 2220.64 1055.5 2220.64 1055.5 2220.64 1055.5 2221.21 1055.5 2221.21 1055.5 2221.79 1055.5 2221.79 1055.5 2222.36 1055.5 2222.36 1055.5 2222.36 1055.5 2222.93 1055.5 2222.93 1055.5 2223.51 1055.5 2223.51 1055.5 2223.51 1055.5 2224.08 1055.5 2224.08 1055.5 2224.08 1055.5 2224.65 1055.5 2225.23 1055.5 2225.23 1055.5 2225.23 1055.5 2225.8 1055.5 2225.8 1055.5 2225.8 1055.5 2226.37 1055.5 2226.37 1055.5 2226.94 1055.5 2226.94 1055.5 2226.94 1055.5 2227.52 1056.07 2227.52 1056.07 2227.52 1056.07 2228.09 1056.07 2228.66 1056.07 2228.66 1056.07 2228.66 1056.07 2229.24 1056.07 2229.24 1056.07 2229.24 1056.07 2229.81 1056.07 2229.81 1056.07 2230.38 1056.07 2230.38 1056.07 2230.38 1056.07 2230.96 1056.07 2230.96 1056.07 2231.53 1056.07 2231.53 1056.07 2232.1 1056.07 2232.1 1056.65 2232.1 1056.65 2232.68 1056.65 2232.68 1056.65 2232.68 1056.65 2233.25 1056.65 2233.25 1056.65 2233.82 1056.65 2233.82 1056.65 2233.82 1057.22 2234.4 1057.22 2234.4 1057.22 2234.97 1057.22 2234.97 1057.22 2235.54 1057.22 2235.54 1057.22 2235.54 1057.22 2236.11 1057.22 2236.11 1057.22 2236.11 1057.22 2236.69 1057.79 2236.69 1057.79 2237.26 1057.79 2237.26 1057.79 2237.26 1057.79 2237.83 1057.79 2238.41 1057.79 2238.41 1057.79 2238.41 1057.79 2238.98 1057.79 2238.98 1058.36 2238.98 1058.36 2239.55 1058.36 2239.55 1058.36 2240.13 1058.36 2240.13 1058.36 2240.13 1058.94 2240.7 1058.94 2240.7 1058.94 2240.7 1058.94 2241.27 1058.94 2241.85 1058.94 2241.85 1058.94 2241.85 1058.94 2242.42 1059.51 2242.42 1059.51 2242.42 1059.51 2242.99 1059.51 2242.99 1059.51 2243.57 1060.08 2243.57 1060.08 2243.57 1060.08 2244.14 1060.08 2244.14 1060.08 2244.71 1060.08 2244.71 1060.08 2245.28 1060.66 2245.28 1060.66 2245.28 1060.66 2245.86 1060.66 2245.86 1060.66 2245.86 1060.66 2246.43 1060.66 2246.43 1061.23 2247 1061.23 2247 1061.23 2247 1061.23 2247.58 1061.8 2247.58 1061.8 2248.15 1061.8 2248.15 1061.8 2248.72 1061.8 2248.72 1061.8 2248.72 1062.37 2249.3 1062.37 2249.3 1062.37 2249.3 1062.37 2249.87 1062.37 2249.87 1062.37 2250.44 1062.95 2250.44 1062.95 2250.44 1062.95 2251.02 1063.52 2251.02 1063.52 2251.59 1063.52 2251.59 1063.52 2252.16 1063.52 2252.16 1063.52 2252.16 1064.09 2252.74 1064.09 2252.74 1064.09 2252.74 1064.09 2253.31 1064.09 2253.31 1064.66 2253.88 1064.66 2253.88 1064.66 2254.45 1065.24 2254.45 1065.24 2254.45 1065.24 2255.03 1065.24 2255.03 1065.24 2255.6 1065.81 2255.6 1065.81 2255.6 1065.81 2256.17 1065.81 2256.17 1065.81 2256.17 1066.38 2256.75 1066.38 2256.75 1066.38 2257.32 1066.96 2257.32 1066.96 2257.89 1066.96 2257.89 1066.96 2257.89 1067.53 2258.47 1067.53 2258.47 1067.53 2259.04 1067.53 2259.04 1067.53 2259.04 1068.1 2259.61 1068.1 2259.61 1068.1 2259.61 1068.67 2260.19 1068.67 2260.19 1068.67 2260.76 1068.67 2260.76 1069.25 2261.33 1069.25 2261.33 1069.25 2261.91 1069.25 2261.91 1069.82 2261.91 1069.82 2262.48 1069.82 2262.48 1070.39 2262.48 1070.39 2263.05 1070.39 2263.05 1070.39 2263.62 1070.97 2263.62 1070.97 2264.2 1071.54 2264.2 1071.54 2264.2 1071.54 2264.77 1071.54 2264.77 1072.11 2265.34 1072.11 2265.34 1072.11 2265.34 1072.11 2265.92 1072.68 2265.92 1072.68 2265.92 1073.26 2266.49 1073.26 2266.49 1073.26 2267.06 1073.26 2267.06 1073.83 2267.64 1073.83 2267.64 1073.83 2267.64 1073.83 2268.21 1074.4 2268.21 1074.4 2268.78 1074.98 2268.78 1074.98 2268.78 1074.98 2269.36 1075.55 2269.36 1075.55 2269.36 1075.55 2269.93 1075.55 2269.93 1076.12 2270.5 1076.12 2270.5 1076.69 2271.08 1076.69 2271.08 1076.69 2271.08 1076.69 2271.65 1077.27 2271.65 1077.27 2272.22 1077.27 2272.22 1077.84 2272.22 1077.84 2272.8 1078.41 2272.8 1078.41 2272.8 1078.41 2273.37 1078.98 2273.37 1078.98 2273.94 1078.98 2273.94 1078.98 2274.51 1079.56 2274.51 1079.56 2274.51 1080.13 2275.09 1080.13 2275.09 1080.13 2275.66 1080.7 2275.66 1080.7 2275.66 1080.7 2276.23 1081.28 2276.23 1081.28 2276.23 1081.85 2276.81 1081.85 2277.38 1081.85 2277.38 1082.42 2277.38 1082.42 2277.95 1082.99 2277.95 1082.99 2277.95 1082.99 2278.53 1083.57 2278.53 1083.57 2279.1 1083.57 2279.1 1084.14 2279.1 1084.14 2279.67 1084.71 2279.67 1084.71 2279.67 1084.71 2280.25 1085.29 2280.82 1085.29 2280.82 1085.29 2280.82 1085.86 2281.39 1085.86 2281.39 1086.43 2281.39 1086.43 2281.97 1087 2281.97 1087 2282.54 1087 2282.54 1087.58 2282.54 1087.58 2283.11 1088.15 2283.11 1088.15 2283.68 1088.15 2283.68 1088.72 2284.26 1088.72 2284.26 1088.72 2284.26 1089.3 2284.83 1089.87 2284.83 1089.87 2285.4 1089.87 2285.4 1090.44 2285.4 1090.44 2285.98 1090.44 2285.98 1091.01 2285.98 1091.01 2286.55 1091.59 2287.12 1091.59 2287.12 1092.16 2287.12 1092.16 2287.7 1092.16 2287.7 1092.73 2287.7 1092.73 2288.27 1093.3 2288.27 1093.3 2288.84 1093.88 2288.84 1093.88 2288.84 1093.88 2289.42 1094.45 2289.42 1095.02 2289.42 1095.02 2289.99 1095.02 2290.56 1095.6 2290.56 1095.6 2290.56 1096.17 2291.14 1096.17 2291.14 1096.74 2291.14 1096.74 2291.71 1096.74 2291.71 1097.31 2292.28 1097.89 2292.28 1097.89 2292.28 1097.89 2292.85 1098.46 2292.85 1098.46 2293.43 1099.03 2293.43 1099.03 2294 1099.61 2294 1099.61 2294 1100.18 2294.57 1100.18 2294.57 1100.18 2294.57 1100.75 2295.15 1101.32 2295.15 1101.32 2295.72 1101.32 2295.72 1101.9 2295.72 1101.9 2296.29 1102.47 2296.29 1102.47 2296.87 1103.04 2296.87 1103.04 2297.44 1103.61 2297.44 1103.61 2297.44 1104.19 2298.01 1104.19 2298.01 1104.76 2298.01 1104.76 2298.59 1105.33 2298.59 1105.33 2299.16 1105.33 2299.16 1105.91 2299.16 1106.48 2299.73 1106.48 2299.73 1106.48 2300.31 1107.05 2300.31 1107.62 2300.88 1107.62 2300.88 1108.2 2300.88 1108.2 2301.45 1108.2 2301.45 1108.77 2301.45 1109.34 2302.02 1109.34 2302.02 1109.92 2302.6 1109.92 2302.6 1109.92 2303.17 1110.49 2303.17 1111.06 2303.17 1111.06 2303.74 1111.63 2303.74 1111.63 2304.32 1112.21 2304.32 1112.21 2304.32 1112.78 2304.89 1112.78 2304.89 1113.35 2304.89 1113.35 2305.46 1113.93 2305.46 1113.93 2306.04 1114.5 2306.04 1114.5 2306.61 1115.07 2306.61 1115.07 2306.61 1115.64 2307.18 1115.64 2307.18 1116.22 2307.76 1116.22 2307.76 1116.79 2307.76 1116.79 2308.33 1117.36 2308.33 1117.93 2308.9 1117.93 2308.9 1118.51 2308.9 1118.51 2309.48 1119.08 2309.48 1119.08 2310.05 1119.65 2310.05 1119.65 2310.62 1120.23 2310.62 1120.8 2310.62 1120.8 2311.19 1121.37 2311.19 1121.37 2311.19 1121.37 2311.77 1121.94 2311.77 1122.52 2312.34 1122.52 2312.34 1123.09 2312.34 1123.09 2312.91 1123.66 2312.91 1124.24 2313.49 1124.24 2313.49 1124.81 2314.06 1124.81 2314.06 1124.81 2314.06 1125.38 2314.63 1125.95 2314.63 1125.95 2314.63 1126.53 2315.21 1126.53 2315.21 1127.1 2315.78 1127.67 2315.78 1127.67 2316.35 1128.25 2316.35 1128.25 2316.35 1128.82 2316.93 1128.82 2316.93 1129.39 2317.5 1129.39 2317.5 1129.96 2317.5 1129.96 2318.07 1130.54 2318.07 1131.11 2318.07 1131.11 2318.65 1131.68 2318.65 1132.25 2319.22 1132.25 2319.22 1132.83 2319.79 1132.83 2319.79 1133.4 2319.79 1133.4 2320.36 1133.97 2320.36 1133.97 2320.94 1134.55 2320.94 1135.12 2320.94 1135.12 2321.51 1135.69 2321.51 1135.69 2321.51 1136.26 2322.08 1136.26 2322.08 1136.84 2322.66 1137.41 2322.66 1137.41 2323.23 1137.98 2323.23 1137.98 2323.23 1138.56 2323.8 1139.13 2323.8 1139.13 2324.38 1139.7 2324.38 1139.7 2324.38 1140.27 2324.95 1140.85 2324.95 1140.85 2324.95 1141.42 2325.52 1141.42 2326.1 1141.99 2326.1 1142.57 2326.1 1142.57 2326.67 1143.14 2326.67 1143.71 2326.67 1143.71 2327.24 1144.28 2327.24 1144.28 2327.82 1144.86 2327.82 1144.86 2327.82 1145.43 2328.39 1146 2328.39 1146 2328.39 1146.57 2328.96 1146.57 2329.54 1147.15 2329.54 1147.72 2329.54 1147.72 2330.11 1148.29 2330.11 1148.29 2330.11 1148.87 2330.68 1149.44 2330.68 1149.44 2331.25 1150.01 2331.25 1150.58 2331.25 1150.58 2331.83 1151.16 2331.83 1151.16 2332.4 1151.73 2332.4 1152.3 2332.97 1152.3 2332.97 1152.88 2332.97 1152.88 2333.55 1153.45 2333.55 1154.02 2334.12 1154.02 2334.12 1154.59 2334.12 1155.17 2334.69 1155.17 2334.69 1155.74 2334.69 1155.74 2335.27 1156.31 2335.84 1156.89 2335.84 1156.89 2335.84 1157.46 2336.41 1157.46 2336.41 1158.03 2336.41 1158.6 2336.99 1158.6 2336.99 1159.18 2337.56 1159.18 2337.56 1159.75 2337.56 1160.32 2338.13 1160.32 2338.13 1160.89 2338.13 1160.89 2338.71 1161.47 2339.28 1162.04 2339.28 1162.04 2339.28 1162.61 2339.85 1163.19 2339.85 1163.19 2339.85 1163.76 2340.42 1164.33 2340.42 1164.33 2341 1164.9 2341 1165.48 2341 1165.48 2341.57 1166.05 2341.57 1166.62 2341.57 1166.62 2342.14 1167.2 2342.72 1167.2 2342.72 1167.77 2342.72 1168.34 2343.29 1168.34 2343.29 1168.91 2343.29 1168.91 2343.86 1169.49 2343.86 1170.06 2344.44 1170.06 2344.44 1170.63 2344.44 1171.2 2345.01 1171.2 2345.01 1171.78 2345.58 1172.35 2345.58 1172.35 2346.16 1172.92 2346.16 1173.5 2346.16 1173.5 2346.73 1174.07 2346.73 1174.07 2346.73 1174.64 2347.3 1175.21 2347.3 1175.21 2347.88 1175.79 2347.88 1175.79 2347.88 1176.36 2348.45 1176.93 2348.45 1177.51 2349.02 1177.51 2349.02 1178.08 2349.59 1178.65 2349.59 1178.65 2349.59 1179.22 2350.17 1179.8 2350.17 1179.8 2350.17 1180.37 2350.74 1180.37 2350.74 1180.94 2351.31 1181.52 2351.31 1181.52 2351.31 1182.09 2351.89 1182.66 2351.89 1182.66 2352.46 1183.23 2352.46 1183.81 2353.03 1183.81 2353.03 1184.38 2353.03 1184.95 2353.61 1184.95 2353.61 1185.52 2354.18 1185.52 2354.18 1186.1 2354.18 1186.67 2354.75 1186.67 2354.75 1187.24 2355.33 1187.82 2355.33 1187.82 2355.9 1188.39 2355.9 1188.96 2355.9 1188.96 2356.47 1189.53 2356.47 1190.11 2356.47 1190.11 2357.05 1190.68 2357.05 1191.25 2357.62 1191.25 2357.62 1191.83 2357.62 1191.83 2358.19 1192.4 2358.19 1192.97 2358.76 1193.54 2358.76 1193.54 2359.34 1194.12 2359.34 1194.69 2359.34 1194.69 2359.91 1195.26 2359.91 1195.26 2359.91 1195.84 2360.48 1196.41 2360.48 1196.41 2361.06 1196.98 2361.06 1197.55 2361.06 1197.55 2361.63 1198.13 2361.63 1198.7 2362.2 1198.7 2362.2 1199.27 2362.78 1199.84 2362.78 1199.84 2362.78 1200.42 2363.35 1200.42 2363.35 1200.99 2363.35 1201.56 2363.92 1202.14 2363.92 1202.14 2364.5 1202.71 2364.5 1203.28 2365.07 1203.28 2365.07 1203.85 2365.07 1204.43 2365.64 1204.43 2365.64 1205 2366.22 1205 2366.22 1205.57 2366.22 1206.15 2366.79 1206.15 2366.79 1206.72 2366.79 1207.29 2367.36 1207.86 2367.36 1207.86 2367.93 1208.44 2367.93 1208.44 2368.51 1209.01 2368.51 1209.58 2368.51 1209.58 2369.08 1210.16 2369.08 1210.73 2369.65 1210.73 2369.65 1211.3 2369.65 1211.87 2370.23 1211.87 2370.23 1212.45 2370.23 1213.02 2370.8 1213.02 2370.8 1213.59 2371.37 1213.59 2371.37 1214.16 2371.95 1214.74 2371.95 1214.74 2371.95 1215.31 2372.52 1215.88 2372.52 1216.46 2373.09 1216.46 2373.09 1217.03 2373.09 1217.6 2373.67 1217.6 2373.67 1218.17 2373.67 1218.17 2374.24 1218.75 2374.24 1219.32 2374.81 1219.32 2374.81 1219.89 2375.39 1220.47 2375.39 1220.47 2375.39 1221.04 2375.96 1221.61 2375.96 1221.61 2376.53 1222.18 2376.53 1222.76 2376.53 1222.76 2377.1 1223.33 2377.1 1223.33 2377.68 1223.9 2377.68 1224.48 2378.25 1224.48 2378.25 1225.05 2378.25 1225.62 2378.82 1225.62 2378.82 1226.19 2379.4 1226.77 2379.4 1227.34 2379.4 1227.34 2379.97 1227.91 2379.97 1227.91 2379.97 1228.48 2380.54 1229.06 2380.54 1229.06 2381.12 1229.63 2381.12 1229.63 2381.69 1230.2 2381.69 1230.78 2381.69 1230.78 2382.26 1231.35 2382.26 1231.92 2382.84 1232.49 2382.84 1232.49 2382.84 1233.07 2383.41 1233.07 2383.41 1233.64 2383.41 1234.21 2383.98 1234.21 2383.98 1234.79 2384.56 1234.79 2384.56 1235.36 2385.13 1235.93 2385.13 1235.93 2385.13 1236.5 2385.7 1237.08 2385.7 1237.08 2386.27 1237.65 2386.27 1238.22 2386.27 1238.79 2386.85 1238.79 2386.85 1239.37 2386.85 1239.37 2387.42 1239.94 2387.99 1240.51 2387.99 1240.51 2387.99 1241.09 2388.57 1241.09 2388.57 1241.66 2388.57 1242.23 2389.14 1242.23 2389.14 1242.8 2389.71 1242.8 2389.71 1243.38 2389.71 1243.95 2390.29 1243.95 2390.29 1244.52 2390.29 1245.1 2390.86 1245.67 2391.43 1245.67 2391.43 1246.24 2391.43 1246.24 2392.01 1246.81 2392.01 1247.39 2392.01 1247.39 2392.58 1247.96 2392.58 1247.96 2393.15 1248.53 2393.15 1249.11 2393.15 1249.11 2393.73 1249.68 2393.73 1250.25 2394.3 1250.25 2394.3 1250.82 2394.87 1250.82 2394.87 1251.4 2394.87 1251.97 2395.45 1251.97 2395.45 1252.54 2395.45 1252.54 2396.02 1253.11 2396.02 1253.69 2396.59 1253.69 2396.59 1254.26 2396.59 1254.83 2397.16 1254.83 2397.16 1255.41 2397.74 1255.41 2397.74 1255.98 2398.31 1256.55 2398.31 1256.55 2398.31 1257.12 2398.88 1257.7 2398.88 1257.7 2398.88 1258.27 2399.46 1258.84 2399.46 1258.84 2400.03 1259.42 2400.03 1259.42 2400.03 1259.99 2400.6 1260.56 2401.18 1260.56 2401.18 1261.13 2401.18 1261.13 2401.75 1261.71 2401.75 1262.28 2401.75 1262.28 2402.32 1262.85 2402.32 1262.85 2402.9 1263.43 2402.9 1264 2402.9 1264 2403.47 1264.57 2403.47 1264.57 2404.04 1265.14 2404.04 1265.72 2404.61 1265.72 2404.61 1266.29 2404.61 1266.29 2405.19 1266.86 2405.19 1267.43 2405.19 1267.43 2405.76 1268.01 2405.76 1268.01 2406.33 1268.58 2406.33 1268.58 2406.33 1269.15 2406.91 1269.73 2406.91 1269.73 2407.48 1270.3 2407.48 1270.3 2408.05 1270.87 2408.05 1270.87 2408.05 1271.44 2408.63 1272.02 2408.63 1272.02 2408.63 1272.59 2409.2 1272.59 2409.2 1273.16 2409.77 1273.74 2409.77 1273.74 2409.77 1274.31 2410.35 1274.88 2410.35 1274.88 2410.92 1275.45 2410.92 1275.45 2411.49 1276.03 2411.49 1276.6 2411.49 1276.6 2412.07 1277.17 2412.07 1277.17 2412.07 1277.75 2412.64 1277.75 2412.64 1278.32 2413.21 1278.32 2413.21 1278.89 2413.21 1278.89 2413.79 1279.46 2413.79 1280.04 2414.36 1280.04 2414.36 1280.61 2414.93 1280.61 2414.93 1281.18 2414.93 1281.75 2415.5 1281.75 2415.5 1282.33 2415.5 1282.33 2416.08 1282.9 2416.08 1282.9 2416.65 1283.47 2416.65 1283.47 2417.22 1284.05 2417.22 1284.05 2417.22 1284.62 2417.8 1285.19 2417.8 1285.19 2418.37 1285.76 2418.37 1285.76 2418.37 1286.34 2418.94 1286.34 2418.94 1286.91 2418.94 1286.91 2419.52 1287.48 2419.52 1288.06 2420.09 1288.06 2420.09 1288.63 2420.66 1288.63 2420.66 1289.2 2420.66 1289.2 2421.24 1289.77 2421.24 1289.77 2421.81 1290.35 2421.81 1290.35 2421.81 1290.92 2422.38 1291.49 2422.38 1291.49 2422.38 1292.07 2422.96 1292.07 2422.96 1292.07 2423.53 1292.64 2423.53 1293.21 2424.1 1293.21 2424.1 1293.78 2424.67 1293.78 2424.67 1294.36 2424.67 1294.36 2425.25 1294.93 2425.25 1294.93 2425.25 1295.5 2425.82 1295.5 2425.82 1296.07 2426.39 1296.65 2426.39 1296.65 2426.97 1296.65 2426.97 1297.22 2426.97 1297.22 2427.54 1297.79 2427.54 1298.37 2428.11 1298.37 2428.11 1298.37 2428.11 1298.94 2428.69 1299.51 2428.69 1299.51 2428.69 1300.08 2429.26 1300.08 2429.26 1300.66 2429.83 1300.66 2429.83 1301.23 2430.41 1301.23 2430.41 1301.8 2430.41 1301.8 2430.98 1302.38 2430.98 1302.38 2431.55 1302.95 2431.55 1302.95 2431.55 1303.52 2432.13 1303.52 2432.13 1303.52 2432.13 1304.09 2432.7 1304.67 2432.7 1304.67 2433.27 1305.24 2433.27 1305.24 2433.84 1305.24 2433.84 1305.81 2433.84 1306.38 2434.42 1306.38 2434.42 1306.38 2434.99 1306.96 2434.99 1306.96 2434.99 1307.53 2435.56 1307.53 2435.56 1308.1 2435.56 1308.1 2436.14 1308.68 2436.71 1308.68 2436.71 1309.25 2436.71 1309.25 2437.28 1309.82 2437.28 1309.82 2437.28 1310.39 2437.86 1310.39 2437.86 1310.97 2438.43 1310.97 2438.43 1310.97 2438.43 1311.54 2439 1311.54 2439 1312.11 2439 1312.11 2439.58 1312.69 2440.15 1312.69 2440.15 1313.26 2440.15 1313.26 2440.72 1313.26 2440.72 1313.83 2440.72 1314.4 2441.3 1314.4 2441.3 1314.4 2441.87 1314.98 2441.87 1314.98 2441.87 1315.55 2442.44 1315.55 2442.44 1316.12 2442.44 1316.12 2443.01 1316.12 2443.59 1316.7 2443.59 1316.7 2443.59 1317.27 2444.16 1317.27 2444.16 1317.84 2444.16 1317.84 2444.73 1317.84 2444.73 1318.41 2445.31 1318.41 2445.31 1318.99 2445.31 1318.99 2445.88 1319.56 2445.88 1319.56 2446.45 1319.56 2446.45 1320.13 2447.03 1320.13 2447.03 1320.13 2447.03 1320.7 2447.6 1321.28 2447.6 1321.28 2448.17 1321.28 2448.17 1321.85 2448.17 1321.85 2448.75 1322.42 2448.75 1322.42 2448.75 1322.42 2449.32 1323 2449.89 1323 2449.89 1323 2449.89 1323.57 2450.47 1324.14 2450.47 1324.14 2450.47 1324.14 2451.04 1324.71 2451.04 1324.71 2451.61 1324.71 2451.61 1325.29 2451.61 1325.29 2452.18 1325.86 2452.18 1325.86 2452.18 1325.86 2452.76 1326.43 2453.33 1326.43 2453.33 1326.43 2453.33 1327.01 2453.9 1327.01 2453.9 1327.58 2453.9 1327.58 2454.48 1327.58 2454.48 1328.15 2455.05 1328.15 2455.05 1328.15 2455.05 1328.72 2455.62 1328.72 2455.62 1329.3 2456.2 1329.3 2456.2 1329.3 2456.77 1329.87 2456.77 1329.87 2456.77 1329.87 2457.34 1330.44 2457.34 1330.44 2457.34 1330.44 2457.92 1331.02 2457.92 1331.02 2458.49 1331.02 2458.49 1331.59 2458.49 1331.59 2459.06 1331.59 2459.06 1332.16 2459.64 1332.16 2459.64 1332.73 2460.21 1332.73 2460.21 1332.73 2460.21 1332.73 2460.78 1333.31 2460.78 1333.31 2460.78 1333.88 2461.35 1333.88 2461.35 1333.88 2461.93 1334.45 2461.93 1334.45 2461.93 1334.45 2462.5 1334.45 2462.5 1335.02 2463.07 1335.02 2463.07 1335.6 2463.65 1335.6 2463.65 1335.6 2463.65 1335.6 2464.22 1336.17 2464.22 1336.17 2464.22 1336.17 2464.79 1336.74 2464.79 1336.74 2465.37 1336.74 2465.37 1337.32 2465.94 1337.32 2465.94 1337.32 2465.94 1337.89 2466.51 1337.89 2466.51 1337.89 2467.09 1337.89 2467.09 1338.46 2467.09 1338.46 2467.66 1338.46 2467.66 1339.03 2467.66 1339.03 2468.23 1339.03 2468.23 1339.03 2468.81 1339.61 2468.81 1339.61 2469.38 1339.61 2469.38 1339.61 2469.95 1340.18 2469.95 1340.18 2469.95 1340.75 2470.53 1340.75 2470.53 1340.75 2470.53 1340.75 2471.1 1340.75 2471.1 1341.33 2471.67 1341.33 2471.67 1341.33 2471.67 1341.33 2472.24 1341.9 2472.24 1341.9 2472.82 1341.9 2472.82 1342.47 2473.39 1342.47 2473.39 1342.47 2473.39 1342.47 2473.96 1343.04 2473.96 1343.04 2473.96 1343.04 2474.54 1343.04 2474.54 1343.04 2475.11 1343.62 2475.11 1343.62 2475.11 1343.62 2475.68 1344.19 2475.68 1344.19 2476.26 1344.19 2476.26 1344.19 2476.83 1344.19 2476.83 1344.76 2476.83 1344.76 2477.4 1344.76 2477.4 1344.76 2477.4 1345.34 2477.98 1345.34 2477.98 1345.34 2478.55 1345.34 2478.55 1345.91 2479.12 1345.91 2479.12 1345.91 2479.12 1345.91 2479.7 1345.91 2479.7 1346.48 2480.27 1346.48 2480.27 1346.48 2480.27 1346.48 2480.84 1347.05 2480.84 1347.05 2480.84 1347.05 2481.41 1347.05 2481.41 1347.05 2481.99 1347.63 2481.99 1347.63 2482.56 1347.63 2482.56 1347.63 2482.56 1347.63 2483.13 1347.63 2483.13 1348.2 2483.71 1348.2 2483.71 1348.2 2483.71 1348.2 2484.28 1348.77 2484.28 1348.77 2484.28 1348.77 2484.85 1348.77 2484.85 1348.77 2485.43 1348.77 2485.43 1349.34 2486 1349.34 2486 1349.34 2486 1349.34 2486.57 1349.34 2486.57 1349.34 2487.15 1349.34 2487.15 1349.92 2487.15 1349.92 2487.72 1349.92 2487.72 1349.92 2487.72 1349.92 2488.29 1350.49 2488.87 1350.49 2488.87 1350.49 2488.87 1350.49 2489.44 1350.49 2489.44 1350.49 2489.44 1350.49 2490.01 1350.49 2490.01 1351.06 2490.58 1351.06 2490.58 1351.06 2490.58 1351.06 2491.16 1351.06 2491.16 1351.06 2491.16 1351.06 2491.73 1351.06 2492.3 1351.64 2492.3 1351.64 2492.3 1351.64 2492.88 1351.64 2492.88 1351.64 2493.45 1351.64 2493.45 1352.21 2493.45 1352.21 2494.02 1352.21 2494.02 1352.21 2494.02 1352.21 2494.6 1352.21 2494.6 1352.21 2495.17 1352.21 2495.17 1352.21 2495.74 1352.21 2495.74 1352.78 2495.74 1352.78 2496.32 1352.78 2496.32 1352.78 2496.89 1352.78 2496.89 1352.78 2496.89 1352.78 2497.46 1352.78 2497.46 1352.78 2497.46 1352.78 2498.04 1352.78 2498.61 1352.78 2498.61 1352.78 2498.61 1353.35 2499.18 1353.35 2499.18 1353.35 2499.18 1353.35 2499.75 1353.35 2499.75 1353.35 2500.33 1353.35 2500.33 1353.35 2500.33 1353.35 2500.9 1353.35 2500.9 1353.93 2500.9 1353.93 2501.47 1353.93 2502.05 1353.93 2502.05 1353.93 2502.05 1353.93 2502.62 1353.93 2502.62 1353.93 2502.62 1353.93 2503.19 1353.93 2503.19 1353.93 2503.77 1353.93 2503.77 1353.93 2503.77 1353.93 2504.34 1353.93 2504.34 1353.93 2504.91 1353.93 2504.91 1353.93 2505.49 1353.93 2505.49 1353.93 2505.49 1353.93 2506.06 1353.93 2506.06 1353.93 2506.06 1353.93 2506.63 1353.93 2506.63 1353.93 2507.21 1354.5 2507.21 1354.5 2507.21 1354.5 2507.78 1354.5 2507.78 1354.5 2508.35 1354.5 2508.35 1354.5 2508.92 1354.5 2508.92 1354.5 2508.92 1354.5 2509.5 1354.5 2509.5 1354.5 2509.5 1354.5 2510.07 1354.5 2510.07 1354.5 2510.64 1354.5 2510.64 1354.5 2510.64 1354.5 2511.22 1354.5 2511.22 1354.5 2511.79 1354.5 2511.79 1354.5 2512.36 1354.5 2512.36 1354.5 2512.36 1354.5 2512.94 1354.5 2512.94 1354.5 2512.94 1354.5 2513.51 1354.5 2513.51 1354.5 2514.08 1354.5 2514.08 1354.5 2514.08 1354.5 2514.66 1354.5 2514.66 1354.5 2515.23 1354.5 2515.23 1354.5 2515.8 1354.5 2515.8 1354.5 2515.8 1354.5 2516.38 1354.5 2516.38 1354.5 2516.95 1354.5 2516.95 1354.5 2516.95 1354.5 2517.52 1354.5 2517.52 1354.5 2518.09 1354.5 2518.09 1354.5 2518.67 1354.5 2518.67 1354.5 2518.67 1354.5 2519.24 1354.5 2519.24 1354.5 2519.24 1354.5 2519.81 1354.5 2519.81 1354.5 2520.39 1354.5 2520.39 1354.5 2520.39 1354.5 2520.96 1354.5 2520.96 1354.5 2521.53 1354.5 2521.53 1354.5 2522.11 1354.5 2522.11 1354.5 2522.11 1354.5 2522.68 1354.5 2522.68 1354.5 2522.68 1354.5 2523.25 1354.5 2523.25 1354.5 2523.83 1354.5 2523.83 1354.5 2523.83 1354.5 2524.4 1354.5 2524.4 1354.5 2524.97 1354.5 2524.97 1354.5 2525.55 1354.5 2525.55 1354.5 2525.55 1354.5 2526.12 1354.5 2526.12 1354.5 2526.12 1354.5 2526.69 1354.5 2526.69 1354.5 2527.27 1354.5 2527.27 1354.5 2527.84 1354.5 2527.84 1354.5 2527.84 1354.5 2528.41 1354.5 2528.41 1354.5 2528.98 1354.5 2528.98 1354.5 2528.98 1354.5 2529.56 1354.5 2529.56 1354.5 2529.56 1354.5 2530.13 1354.5 2530.13 1354.5 2530.7 1354.5 2530.7 1354.5 2531.28 1354.5 2531.28 1354.5 2531.28 1354.5 2531.85 1354.5 2531.85 1354.5 2532.42 1354.5 2532.42 1354.5 2532.42 1354.5 2533 1354.5 2533 1354.5 2533 1354.5 2533.57 1354.5 2533.57 1354.5 2534.14 1354.5 2534.14 1354.5 2534.72 1354.5 2534.72 1354.5 2534.72 1354.5 2535.29 1354.5 2535.29 1354.5 2535.86 1354.5 2535.86 1354.5 2535.86 1354.5 2536.44 1354.5 2536.44 1354.5 2536.44 1354.5 2537.01 1354.5 2537.58 1354.5 2537.58 1354.5 2537.58 1354.5 2538.15 1354.5 2538.15 1354.5 2538.73 1354.5 2538.73 1354.5 2538.73 1354.5 2539.3 1354.5 2539.3 1354.5 2539.3 1354.5 2539.87 1354.5 2539.87 1354.5 2540.45 1354.5 2540.45 1354.5 2541.02 1354.5 2541.02 1354.5 2541.02 1354.5 2541.59 1354.5 2541.59 1354.5 2542.17 1354.5 2542.17 1354.5 2542.17 1354.5 2542.74 1354.5 2542.74 1354.5 2542.74 1354.5 2543.31 1354.5 2543.31 1354.5 2543.89 1354.5 2543.89 1354.5 2544.46 1354.5 2544.46 1354.5 2544.46 1354.5 2545.03 1354.5 2545.03 1354.5 2545.6 1354.5 2545.6 1354.5 2545.6 1354.5 2546.18 1354.5 2546.18 1354.5 2546.18 1354.5 2546.75 1354.5 2546.75 1354.5 2547.32 1354.5 2547.32 1354.5 2547.9 1354.5 2547.9 1354.5 2547.9 1354.5 2548.47 1354.5 2548.47 1354.5 2549.04 1354.5 2549.04 1354.5 2549.04 1354.5 2549.62 1354.5 2549.62 1354.5 2549.62 1354.5 2550.19 1354.5 2550.76 1354.5 2550.76 1354.5 2550.76 1354.5 2551.34 1354.5 2551.34 1354.5 2551.34 1354.5 2551.91 1354.5 2551.91 1354.5 2552.48 1354.5 2552.48 1354.5 2552.48 1354.5 2553.06 1354.5 2553.06 1354.5 2553.06 1354.5 2553.63 1354.5 2554.2 1354.5 2554.2 1354.5 2554.2 1354.5 2554.78 1354.5 2554.78 1354.5 2554.78 1354.5 2555.35 1354.5 2555.35 1354.5 2555.92 1354.5 2555.92 1354.5 2555.92 1354.5 2556.49 1354.5 2556.49 1354.5 2557.07 1354.5 2557.07 1354.5 2557.64 1354.5 2557.64 1354.5 2557.64 1354.5 2558.21 1354.5 2558.21 1354.5 2558.21 1354.5 2558.79 1354.5 2558.79 1354.5 2559.36 1354.5 2559.36 1354.5 2559.36 1354.5 2559.93 1354.5 2559.93 1354.5 2560.51 1354.5 2560.51 1354.5 2561.08 1354.5 2561.08 1354.5 2561.08 1354.5 2561.65 1354.5 2561.65 1354.5 2562.23 1354.5 2562.23 1354.5 2562.23 1354.5 2562.8 1354.5 2562.8 1354.5 2562.8 1354.5 2563.37 1354.5 2563.95 1354.5 2563.95 1354.5 2563.95 1354.5 2564.52 1354.5 2564.52 1354.5 2564.52 1354.5 2565.09 1354.5 2565.09 1354.5 2565.66 1354.5 2565.66 1354.5 2565.66 1354.5 2566.24 1354.5 2566.24 1354.5 2566.81 1354.5 2566.81 1354.5 2567.38 1354.5 2567.38 1354.5 2567.38 1354.5 2567.96 1354.5 2567.96 1354.5 2567.96 1354.5 2568.53 1354.5 2568.53 1354.5 2569.1 1354.5 2569.1 1354.5 2569.1 1354.5 2569.68 1354.5 2569.68 1354.5 2570.25 1354.5 2570.25 1354.5 2570.82 1354.5 2570.82 1354.5 2570.82 1354.5 2571.4 1354.5 2571.4 1354.5 2571.4 1354.5 2571.97 1354.5 2571.97 1354.5 2572.54 1354.5 2572.54 1354.5 2572.54 1354.5 2573.12 1354.5 2573.12 1354.5 2573.69 1354.5 2573.69 1354.5 2574.26 1354.5 2574.26 1354.5 2574.26 1354.5 2574.83 1354.5 2574.83 1354.5 2574.83 1354.5 2575.41 1354.5 2575.41 1354.5 2575.98 1354.5 2575.98 1354.5 2575.98 1354.5 2576.55 1354.5 2576.55 1354.5 2577.13 1354.5 2577.13 1354.5 2577.7 1354.5 2577.7 1354.5 2577.7 1354.5 2578.27 1354.5 2578.27 1354.5 2578.27 1354.5 2578.85 1354.5 2578.85 1354.5 2579.42 1354.5 2579.42 1354.5 2579.99 1354.5 2579.99 1354.5 2579.99 1354.5 2580.57 1354.5 2580.57 1354.5 2581.14 1354.5 2581.14 1354.5 2581.14 1354.5 2581.71 1354.5 2581.71 1354.5 2581.71 1354.5 2582.29 1354.5 2582.29 1354.5 2582.86 1354.5 2582.86 1354.5 2583.43 1354.5 2583.43 1354.5 2583.43 1354.5 2584 1354.5 2584 1354.5 2584.58 1354.5 2584.58 1354.5 2584.58 1354.5 2585.15 1354.5 2585.15 1354.5 2585.72 1354.5 2585.72 1354.5 2585.72 1354.5 2586.3 1354.5 2586.3 1354.5 2586.87 1354.5 2586.87 1354.5 2587.44 1354.5 2587.44 1354.5 2587.44 1354.5 2588.02 1354.5 2588.02 1354.5 2588.02 1354.5 2588.59 1354.5 2588.59 1354.5 2589.16 1354.5 2589.16 1354.5 2589.74 1354.5 2589.74 1354.5 2589.74 1354.5 2590.31 1354.5 2590.31 1354.5 2590.88 1354.5 2590.88 1354.5 2590.88 1354.5 2591.46 1354.5 2591.46 1354.5 2591.46 1354.5 2592.03 1354.5 2592.03 1354.5 2592.6 1354.5 2592.6 1354.5 2593.18 1354.5 2593.18 1354.5 2593.18 1354.5 2593.75 1354.5 2593.75 1354.5 2594.32 1354.5 2594.32 1354.5 2594.32 1354.5 2594.89 1354.5 2594.89 1354.5 2594.89 1354.5 2595.47 1354.5 2595.47 1354.5 2596.04 1354.5 2596.04 1354.5 2596.61 1354.5 2596.61 1354.5 2596.61 1354.5 2597.19 1354.5 2597.19 1354.5 2597.76 1354.5 2597.76 1354.5 2597.76 1354.5 2598.33 1354.5 2598.33 1354.5 2598.33 1354.5 2598.91 1354.5 2599.48 1354.5 2599.48 1354.5 2599.48 1354.5 2600.05 1354.5 2600.05 1354.5 2600.05 1354.5 2600.63 1354.5 2600.63 1354.5 2601.2 1354.5 2601.2 1354.5 2601.2 1354.5 2601.77 1354.5 2601.77 1354.5 2601.77 1354.5 2602.35 1354.5 2602.92 1354.5 2602.92 1354.5 2602.92 1354.5 2603.49 1354.5 2603.49 1354.5 2603.49 1354.5 2604.06 1354.5 2604.06 1354.5 2604.64 1354.5 2604.64 1354.5 2604.64 1354.5 2605.21 1354.5 2605.21 1354.5 2605.78 1354.5 2605.78 1354.5 2606.36 1354.5 2606.36 1354.5 2606.36 1354.5 2606.93 1354.5 2606.93 1354.5 2606.93 1354.5 2607.5 1354.5 2607.5 1354.5 2608.08 1354.5 2608.08 1354.5 2608.08 1354.5 2608.65 1354.5 2608.65 1354.5 2609.22 1354.5 2609.22 1354.5 2609.8 1354.5 2609.8 1354.5 2609.8 1354.5 2610.37 1354.5 2610.37 1354.5 2610.94 1354.5 2610.94 1354.5 2610.94 1354.5 2611.52 1354.5 2611.52 1354.5 2611.52 1354.5 2612.09 1354.5 2612.66 1354.5 2612.66 1354.5 2612.66 1354.5 2613.23 1354.5 2613.23 1354.5 2613.23 1354.5 2613.81 1354.5 2613.81 1354.5 2614.38 1354.5 2614.38 1354.5 2614.38 1354.5 2614.95 1354.5 2614.95 1354.5 2614.95 1354.5 2615.53 1354.5 2616.1 1354.5 2616.1 1354.5 2616.1 1354.5 2616.67 1354.5 2616.67 1354.5 2616.67 1354.5 2617.25 1354.5 2617.25 1354.5 2617.82 1354.5 2617.82 1354.5 2617.82 1354.5 2618.39 1354.5 2618.39 1354.5 2618.97 1354.5 2618.97 1354.5 2619.54 1354.5 2619.54 1354.5 2619.54 1354.5 2620.11 1354.5 2620.11 1354.5 2620.11 1354.5 2620.69 1354.5 2620.69 1354.5 2621.26 1354.5 2621.26 1354.5 2621.26 1354.5 2621.83 1354.5 2621.83 1354.5 2622.4 1354.5 2622.4 1354.5 2622.98 1354.5 2622.98 1354.5 2622.98 1354.5 2623.55 1354.5 2623.55 1354.5 2623.55 1354.5 2624.12 1354.5 2624.12 1354.5 2624.7 1354.5 2624.7 1354.5 2624.7 1354.5 2625.27 1354.5 2625.27 1354.5 2625.84 1354.5 2625.84 1354.5 2626.42 1354.5 2626.42 1354.5 2626.42 1354.5 2626.99 1354.5 2626.99 1354.5 2626.99 1354.5 2627.56 1354.5 2627.56 1354.5 2628.14 1354.5 2628.14 1354.5 2628.71 1354.5 2628.71 1354.5 2628.71 1354.5 2629.28 1354.5 2629.28 1354.5 2629.86 1354.5 2629.86 1354.5 2629.86 1354.5 2630.43 1354.5 2630.43 1354.5 2631 1354.5 2631 1354.5 2631 1354.5 2631.57 1354.5 2631.57 1354.5 2632.15 1354.5 2632.15 1354.5 2632.72 1354.5 2632.72 1354.5 2632.72 1354.5 2633.29 1354.5 2633.29 1354.5 2633.29 1354.5 2633.87 1354.5 2633.87 1354.5 2634.44 1354.5 2634.44 1354.5 2634.44 1354.5 2635.01 1354.5 2635.01 1354.5 2635.59 1354.5 2635.59 1354.5 2636.16 1354.5 2636.16 1354.5 2636.16 1354.5 2636.73 1354.5 2636.73 1354.5 2636.73 1354.5 2637.31 1354.5 2637.31 1354.5 2637.88 1354.5 2637.88 1354.5 2638.45 1354.5 2638.45 1354.5 2638.45 1354.5 2639.03 1354.5 2639.03 1354.5 2639.6 1354.5 2639.6 1354.5 2639.6 1354.5 2640.17 1354.5 2640.17 1354.5 2640.17 1354.5 2640.74 1354.5 2640.74 1354.5 2641.32 1354.5 2641.32 1354.5 2641.89 1354.5 2641.89 1354.5 2641.89 1354.5 2642.46 1354.5 2642.46 1354.5 2643.04 1354.5 2643.04 1354.5 2643.04 1354.5 2643.61 1354.5 2643.61 1354.5 2643.61 1354.5 2644.18 1354.5 2644.18 1354.5 2644.76 1354.5 2644.76 1354.5 2645.33 1354.5 2645.33 1354.5 2645.33 1354.5 2645.9 1354.5 2645.9 1354.5 2646.48 1354.5 2646.48 1354.5 2646.48 1354.5 2647.05 1354.5 2647.05 1354.5 2647.05 1354.5 2647.62 1354.5 2647.62 1354.5 2648.2 1354.5 2648.2 1354.5 2648.77 1354.5 2648.77 1354.5 2648.77 1354.5 2649.34 1354.5 2649.34 1354.5 2649.91 1354.5 2649.91 1354.5 2649.91 1354.5 2650.49 1354.5 2650.49 1354.5 2650.49 1354.5 2651.06 1354.5 2651.63 1354.5 2651.63 1354.5 2651.63 1354.5 2652.21 1354.5 2652.21 1354.5 2652.21 1354.5 2652.78 1354.5 2652.78 1354.5 2653.35 1354.5 2653.35 1354.5 2653.35 1354.5 2653.93 1354.5 2653.93 1354.5 2654.5 1354.5 2654.5 1354.5" stroke="#0072BD" stroke-width="9.16667" stroke-linejoin="round" stroke-miterlimit="10" fill="none" fill-rule="evenodd"/></g></svg>